SplineFontDB: 3.2
FontName: Umpush-BoldOblique
FullName: Umpush Bold Oblique
FamilyName: Umpush
Weight: Bold
Copyright: Copyright (c) 2003 NECTEC. All rights reserved.\nCopyright (c) 2007 Widhaya Trisarnwadhana. All rights reserved.\nModified under GNU General Public License by TLWG.
Version: 001.002
ItalicAngle: -10
UnderlinePosition: -170
UnderlineWidth: 10
Ascent: 1638
Descent: 410
InvalidEm: 0
LayerCount: 3
Layer: 0 0 "Back" 1
Layer: 1 0 "Fore" 0
Layer: 2 1 "Quad" 0
FSType: 0
OS2Version: 4
OS2_WeightWidthSlopeOnly: 0
OS2_UseTypoMetrics: 1
CreationTime: 1153662462
ModificationTime: 1587986518
PfmFamily: 33
TTFWeight: 700
TTFWidth: 5
LineGap: 0
VLineGap: 0
Panose: 2 11 6 4 2 2 2 2 2 4
OS2TypoAscent: 2741
OS2TypoAOffset: 0
OS2TypoDescent: -1312
OS2TypoDOffset: 0
OS2TypoLinegap: 0
OS2WinAscent: 0
OS2WinAOffset: 1
OS2WinDescent: 0
OS2WinDOffset: 1
HheadAscent: 0
HheadAOffset: 1
HheadDescent: 0
HheadDOffset: 1
OS2Vendor: 'PfEd'
Lookup: 4 0 1 "'liga' Standard Ligatures lookup 0" { "'liga' Standard Ligatures lookup 0"  } ['liga' ('latn' <'dflt' > ) ]
Lookup: 6 0 0 "'ccmp' Thai Tone Tilde Reordering" { "'ccmp' Thai Tone Tilde Reordering"  } ['ccmp' ('DFLT' <'dflt' > 'latn' <'dflt' > 'thai' <'KUY ' 'MLY ' 'PAL ' 'SAN ' 'THA ' 'dflt' > ) ]
Lookup: 6 0 0 "'ccmp' Thai Tone Macron Reordering" { "'ccmp' Thai Tone Macron Reordering"  } ['ccmp' ('DFLT' <'dflt' > 'latn' <'dflt' > 'thai' <'KUY ' 'MLY ' 'PAL ' 'SAN ' 'THA ' 'dflt' > ) ]
Lookup: 6 0 0 "'ccmp' Thai Below Vowel Macron Reordering" { "'ccmp' Thai Below Vowel Macron Reordering"  } ['ccmp' ('DFLT' <'dflt' > 'latn' <'dflt' > 'thai' <'KUY ' 'MLY ' 'PAL ' 'SAN ' 'THA ' 'dflt' > ) ]
Lookup: 4 0 0 "'ccmp' Patani Malay Ligatures" { "'ccmp' Patani Malay Ligatures"  } ['ccmp' ('DFLT' <'dflt' > 'thai' <'KUY ' 'MLY ' 'PAL ' 'SAN ' 'THA ' 'dflt' > ) ]
Lookup: 6 0 0 "'ccmp' Thai Conditional Descender Removal" { "'ccmp' Thai Conditional Descender Removal"  } ['ccmp' ('DFLT' <'dflt' > 'thai' <'KUY ' 'MLY ' 'THA ' 'dflt' > ) ]

StartChar: .notdef
Encoding: 65536 -1 0
Width: 1536
Flags: W
HStem: 0 32<294 1254> 1248 32<508 1468>
DStem2: 256 0 288.358 0 0.173648 0.984808<38.1125 1272.8> 1248.36 0 1280 0 0.173648 0.984808<32.4937 1267.18>
LayerCount: 3
Fore
SplineSet
256 0 m 1
 482 1280 l 1
 1506 1280 l 1
 1280 0 l 1
 256 0 l 1
294 32 m 1
 1254 32 l 1
 1468 1248 l 1
 508 1248 l 1
 294 32 l 1
EndSplineSet
Validated: 1
Layer: 2
SplineSet
256 0 m 1,0,-1
 482 1280 l 1,1,-1
 1506 1280 l 1,2,-1
 1280 0 l 1,3,-1
 256 0 l 1,0,-1
294 32 m 1,4,-1
 1254 32 l 1,5,-1
 1468 1248 l 1,6,-1
 508 1248 l 1,7,-1
 294 32 l 1,4,-1
EndSplineSet
EndChar

StartChar: uni0E4D.high
Encoding: 63262 63262 2
Width: 0
VWidth: 2558
Flags: W
HStem: 2106 72<74.583 204.805> 2334 74<88.6836 223.277>
VStem: -3 70<2186 2311.8> 229 71<2203.12 2326.1>
AnchorPoint: "AboveMark" 214 2625 basemark 0
AnchorPoint: "AboveMark" 125 2120 mark 0
LayerCount: 3
Fore
SplineSet
-3 2228 m 0
 -3 2314 75 2408 177 2408 c 0
 248 2408 300 2357 300 2283 c 0
 300 2181 205 2106 123 2106 c 0
 56 2106 -3 2154 -3 2228 c 0
163 2334 m 0
 105 2334 67 2285 67 2242 c 0
 67 2203 100 2178 134 2178 c 0
 176 2178 229 2219 229 2270 c 0
 229 2313 195 2334 163 2334 c 0
EndSplineSet
Validated: 1
Layer: 2
SplineSet
-3 2228 m 0,0,1
 -3 2295 -3 2295 50 2351.5 c 128,-1,2
 103 2408 103 2408 177 2408 c 0,3,4
 231 2408 231 2408 265.5 2373 c 128,-1,5
 300 2338 300 2338 300 2283 c 0,6,7
 300 2210 300 2210 244 2158 c 128,-1,8
 188 2106 188 2106 123 2106 c 0,9,10
 71 2106 71 2106 34 2140 c 128,-1,11
 -3 2174 -3 2174 -3 2228 c 0,0,1
163 2334 m 0,12,13
 122 2334 122 2334 94.5 2305.5 c 128,-1,14
 67 2277 67 2277 67 2242 c 0,15,16
 67 2214 67 2214 87 2196 c 128,-1,17
 107 2178 107 2178 134 2178 c 0,18,19
 167 2178 167 2178 198 2205.5 c 128,-1,20
 229 2233 229 2233 229 2270 c 0,21,22
 229 2300 229 2300 209 2317 c 128,-1,23
 189 2334 189 2334 163 2334 c 0,12,13
EndSplineSet
EndChar

StartChar: exclam
Encoding: 33 33 5
Width: 569
Flags: W
HStem: 0 194<210 400> 1430 20G<420.452 664>
VStem: 276 153<365 423.639>
DStem2: 176 0 400 0 0.173648 0.984808<38.8972 196.957 565.496 1471.04>
LayerCount: 3
Fore
SplineSet
344 999 m 1
 424 1450 l 1
 664 1450 l 1
 584 999 l 1
 429 365 l 1
 276 365 l 1
 344 999 l 1
210 194 m 1
 434 194 l 1
 400 0 l 1
 176 0 l 1
 210 194 l 1
EndSplineSet
Validated: 1
Layer: 2
SplineSet
344 999 m 1,0,-1
 424 1450 l 1,1,-1
 664 1450 l 1,2,-1
 584 999 l 1,3,-1
 429 365 l 1,4,-1
 276 365 l 1,5,-1
 344 999 l 1,0,-1
210 194 m 1,6,-1
 434 194 l 1,7,-1
 400 0 l 1,8,-1
 176 0 l 1,9,-1
 210 194 l 1,6,-1
EndSplineSet
EndChar

StartChar: quotedbl
Encoding: 34 34 6
Width: 727
Flags: W
HStem: 947 503<362 458 645 739>
VStem: 323 552
LayerCount: 3
Fore
SplineSet
323 947 m 1
 321 1217 l 1
 362 1450 l 1
 592 1450 l 1
 551 1217 l 1
 458 947 l 1
 323 947 l 1
604 947 m 1
 604 1217 l 1
 645 1450 l 1
 875 1450 l 1
 834 1217 l 1
 739 947 l 1
 604 947 l 1
EndSplineSet
Validated: 1
Layer: 2
SplineSet
323 947 m 1,0,-1
 321 1217 l 1,1,-1
 362 1450 l 1,2,-1
 592 1450 l 1,3,-1
 551 1217 l 1,4,-1
 458 947 l 1,5,-1
 323 947 l 1,0,-1
604 947 m 1,6,-1
 604 1217 l 1,7,-1
 645 1450 l 1,8,-1
 875 1450 l 1,9,-1
 834 1217 l 1,10,-1
 739 947 l 1,11,-1
 604 947 l 1,6,-1
EndSplineSet
EndChar

StartChar: numbersign
Encoding: 35 35 7
Width: 1139
Flags: W
HStem: -10 21G<55 302.68 514 768.573> 365 220<124 199 524 658 987 1177> 875 220<214 395 720 854 1181 1267> 1450 20G<616.32 864 1075.32 1323>
DStem2: 55 -10 295 -10 0.358852 0.933394<86.1245 401.698 723.671 948.064 1270.04 1585.61> 514 -10 761 -10 0.358852 0.933394<88.6365 401.698 725.107 948.064 1270.76 1585.61>
LayerCount: 3
Fore
SplineSet
295 -10 m 1
 55 -10 l 1
 199 365 l 1
 85 365 l 1
 124 585 l 1
 284 585 l 1
 395 875 l 1
 175 875 l 1
 214 1095 l 1
 480 1095 l 1
 624 1470 l 1
 864 1470 l 1
 720 1095 l 1
 939 1095 l 1
 1083 1470 l 1
 1323 1470 l 1
 1181 1095 l 1
 1306 1095 l 1
 1267 875 l 1
 1097 875 l 1
 987 585 l 1
 1216 585 l 1
 1177 365 l 1
 903 365 l 1
 761 -10 l 1
 514 -10 l 1
 658 365 l 1
 439 365 l 1
 295 -10 l 1
854 875 m 1
 635 875 l 1
 524 585 l 1
 743 585 l 1
 854 875 l 1
EndSplineSet
Validated: 1
Layer: 2
SplineSet
295 -10 m 1,0,-1
 55 -10 l 1,1,-1
 199 365 l 1,2,-1
 85 365 l 1,3,-1
 124 585 l 1,4,-1
 284 585 l 1,5,-1
 395 875 l 1,6,-1
 175 875 l 1,7,-1
 214 1095 l 1,8,-1
 480 1095 l 1,9,-1
 624 1470 l 1,10,-1
 864 1470 l 1,11,-1
 720 1095 l 1,12,-1
 939 1095 l 1,13,-1
 1083 1470 l 1,14,-1
 1323 1470 l 1,15,-1
 1181 1095 l 1,16,-1
 1306 1095 l 1,17,-1
 1267 875 l 1,18,-1
 1097 875 l 1,19,-1
 987 585 l 1,20,-1
 1216 585 l 1,21,-1
 1177 365 l 1,22,-1
 903 365 l 1,23,-1
 761 -10 l 1,24,-1
 514 -10 l 1,25,-1
 658 365 l 1,26,-1
 439 365 l 1,27,-1
 295 -10 l 1,0,-1
854 875 m 1,28,-1
 635 875 l 1,29,-1
 524 585 l 1,30,-1
 743 585 l 1,31,-1
 854 875 l 1,28,-1
EndSplineSet
EndChar

StartChar: dollar
Encoding: 36 36 8
Width: 1139
Flags: W
VStem: 140 244<232.788 417> 280 239<879.38 1122.61> 877 244<289.492 558.321> 954 244<1050.75 1173.55>
DStem2: 419 -137 659 -137 0.173648 0.984808<41.6756 104.561 380.847 771.806 1011.26 1354.54 1628.68 1669.38>
LayerCount: 3
Fore
SplineSet
659 -137 m 1x20
 419 -137 l 1
 437 -34 l 1
 242 -3 140 108 140 304 c 3
 140 339 144 377 150 417 c 1
 390 417 l 1
 386 395 384 375 384 356 c 3xa0
 384 279 415 225 478 198 c 1
 553 625 l 1
 399 667 280 762 280 945 c 3
 280 1217 452 1386 694 1425 c 1
 709 1507 l 1
 949 1507 l 1
 934 1426 l 1
 1110 1399 1198 1302 1198 1124 c 3
 1198 1101 1196 1076 1193 1050 c 1
 953 1050 l 1
 954 1056 954 1063 954 1069 c 3x50
 954 1114 938 1160 892 1188 c 1
 826 811 l 1
 965 781 1121 708 1121 492 c 3
 1121 195 930 10 677 -32 c 1
 659 -137 l 1x20
718 197 m 1
 815 232 877 320 877 453 c 3
 877 528 844 563 786 582 c 1
 718 197 l 1
594 859 m 1
 654 1197 l 1
 581 1171 519 1091 519 971 c 3x40
 519 918 549 881 594 859 c 1
EndSplineSet
Validated: 1
Layer: 2
SplineSet
659 -137 m 1,0,-1
 419 -137 l 1,1,-1
 437 -34 l 1,2,3
 140 13 140 13 140 304 c 0,4,5
 140 350 140 350 150 417 c 1,6,-1
 390 417 l 1,7,8
 384 384 384 384 384 356 c 0,9,10
 384 238 384 238 478 198 c 1,11,-1
 553 625 l 1,12,13
 428 659 428 659 354 737 c 128,-1,14
 280 815 280 815 280 945 c 0,15,16
 280 1144 280 1144 393.5 1269.5 c 128,-1,17
 507 1395 507 1395 694 1425 c 1,18,-1
 709 1507 l 1,19,-1
 949 1507 l 1,20,-1
 934 1426 l 1,21,22
 1198 1386 1198 1386 1198 1124 c 0,23,24
 1198 1093 1198 1093 1193 1050 c 1,25,-1
 953 1050 l 1,26,27
 954 1056 954 1056 954 1069 c 0,28,29
 954 1150 954 1150 892 1188 c 1,30,-1
 826 811 l 1,31,32
 1121 747 1121 747 1121 492 c 0,33,34
 1121 276 1121 276 997.5 138.5 c 128,-1,35
 874 1 874 1 677 -32 c 1,36,-1
 659 -137 l 1,0,-1
718 197 m 1,37,38
 793 224 793 224 835 289.5 c 128,-1,39
 877 355 877 355 877 453 c 0,40,41
 877 507 877 507 854.5 537 c 128,-1,42
 832 567 832 567 786 582 c 1,43,-1
 718 197 l 1,37,38
594 859 m 1,44,-1
 654 1197 l 1,45,46
 596 1176 596 1176 557.5 1116.5 c 128,-1,47
 519 1057 519 1057 519 971 c 0,48,49
 519 896 519 896 594 859 c 1,44,-1
EndSplineSet
EndChar

StartChar: percent
Encoding: 37 37 9
Width: 1821
Flags: W
HStem: -55 172<1325.14 1486.15> -10 21G<409 699.644> 548 172<1393.39 1554.37> 716 172<512.143 673.151> 1319 172<580.388 741.37>
VStem: 304 192<903.473 1214.28> 758 192<993.227 1303.65> 1117 192<132.473 443.276> 1571 192<222.227 532.653>
DStem2: 409 -10 686 -10 0.563559 0.826076<156.106 1817.02>
LayerCount: 3
Fore
SplineSet
1371 -55 m 3xaf80
 1198 -55 1117 55 1117 223 c 3
 1117 506 1275 720 1508 720 c 3
 1681 720 1763 610 1763 442 c 3
 1763 160 1604 -55 1371 -55 c 3xaf80
1571 421 m 3
 1571 510 1536 548 1478 548 c 3
 1388 548 1309 415 1309 245 c 3
 1309 156 1344 117 1402 117 c 3
 1492 117 1571 251 1571 421 c 3
558 716 m 3x1f80
 385 716 304 826 304 994 c 3
 304 1277 462 1491 695 1491 c 3
 868 1491 950 1381 950 1213 c 3
 950 931 791 716 558 716 c 3x1f80
758 1192 m 3
 758 1281 723 1319 665 1319 c 3
 575 1319 496 1186 496 1016 c 3
 496 927 531 888 589 888 c 3
 679 888 758 1022 758 1192 c 3
1433 1491 m 1
 1710 1491 l 1
 686 -10 l 1
 409 -10 l 1x4f80
 1433 1491 l 1
EndSplineSet
Validated: 1
Layer: 2
SplineSet
1371 -55 m 3,0,1
 1245 -55 1245 -55 1181 19 c 128,-1,2
 1117 93 1117 93 1117 223 c 0,3,4
 1117 438 1117 438 1226 579 c 128,-1,5
 1335 720 1335 720 1508 720 c 0,6,7
 1634 720 1634 720 1698.5 646 c 128,-1,8
 1763 572 1763 572 1763 442 c 0,9,10
 1763 228 1763 228 1653.5 86.5 c 128,-1,11
 1544 -55 1544 -55 1371 -55 c 3,0,1
1571 421 m 3,12,13
 1571 548 1571 548 1478 548 c 0,14,15
 1410 548 1410 548 1359.5 459.5 c 128,-1,16
 1309 371 1309 371 1309 245 c 0,17,18
 1309 117 1309 117 1402 117 c 0,19,20
 1470 117 1470 117 1520.5 206 c 128,-1,21
 1571 295 1571 295 1571 421 c 3,12,13
558 716 m 3,22,23
 432 716 432 716 368 790 c 128,-1,24
 304 864 304 864 304 994 c 0,25,26
 304 1209 304 1209 413 1350 c 128,-1,27
 522 1491 522 1491 695 1491 c 0,28,29
 821 1491 821 1491 885.5 1417 c 128,-1,30
 950 1343 950 1343 950 1213 c 0,31,32
 950 999 950 999 840.5 857.5 c 128,-1,33
 731 716 731 716 558 716 c 3,22,23
758 1192 m 3,34,35
 758 1319 758 1319 665 1319 c 0,36,37
 597 1319 597 1319 546.5 1230.5 c 128,-1,38
 496 1142 496 1142 496 1016 c 0,39,40
 496 888 496 888 589 888 c 0,41,42
 657 888 657 888 707.5 977 c 128,-1,43
 758 1066 758 1066 758 1192 c 3,34,35
1433 1491 m 1,44,-1
 1710 1491 l 1,45,-1
 686 -10 l 1,46,-1
 409 -10 l 1,47,-1
 1433 1491 l 1,44,-1
EndSplineSet
EndChar

StartChar: ampersand
Encoding: 38 38 10
Width: 1366
Flags: W
HStem: -13 220<452.028 765.882> 1262 220<751.201 929.156>
VStem: 153 245<259.985 504.513> 468 245<1006.81 1227.05> 942 246<1060.45 1248.04>
LayerCount: 3
Fore
SplineSet
863 812 m 1
 1018 522 l 1
 1058 579 1093 648 1123 727 c 1
 1335 649 l 1
 1287 540 1228 442 1158 357 c 1
 1210 270 1272 195 1347 132 c 1
 1161 -67 l 1
 1097 -19 1035 50 973 140 c 1
 946 115 792 -13 574 -13 c 3
 256 -13 153 177 153 338 c 3
 153 577 316 739 556 843 c 1
 504 921 468 992 468 1083 c 3
 468 1320 671 1482 898 1482 c 3
 1062 1482 1188 1380 1188 1224 c 3
 1188 1021 1038 898 863 812 c 1
850 1262 m 0
 786 1262 713 1213 713 1131 c 3
 713 1088 735 1034 781 974 c 1
 864 1013 942 1076 942 1171 c 3
 942 1213 915 1262 850 1262 c 0
398 385 m 3
 398 321 429 207 576 207 c 3
 675 207 793 239 857 326 c 1
 647 662 l 1
 499 583 398 498 398 385 c 3
EndSplineSet
Validated: 1
Layer: 2
SplineSet
863 812 m 1,0,-1
 1018 522 l 1,1,2
 1077 606 1077 606 1123 727 c 1,3,-1
 1335 649 l 1,4,5
 1262 483 1262 483 1158 357 c 1,6,7
 1238 224 1238 224 1347 132 c 1,8,-1
 1161 -67 l 1,9,10
 1067 3 1067 3 973 140 c 1,11,12
 956 124 956 124 928 104.5 c 128,-1,13
 900 85 900 85 847.5 55.5 c 128,-1,14
 795 26 795 26 722.5 6.5 c 128,-1,15
 650 -13 650 -13 574 -13 c 0,16,17
 482 -13 482 -13 408.5 8 c 128,-1,18
 335 29 335 29 288 63.5 c 128,-1,19
 241 98 241 98 210 145 c 128,-1,20
 179 192 179 192 166 239.5 c 128,-1,21
 153 287 153 287 153 338 c 0,22,23
 153 668 153 668 556 843 c 1,24,25
 512 909 512 909 490 964.5 c 128,-1,26
 468 1020 468 1020 468 1083 c 0,27,28
 468 1256 468 1256 595.5 1369 c 128,-1,29
 723 1482 723 1482 898 1482 c 0,30,31
 1023 1482 1023 1482 1105.5 1410.5 c 128,-1,32
 1188 1339 1188 1339 1188 1224 c 0,33,34
 1188 1151 1188 1151 1162.5 1087 c 128,-1,35
 1137 1023 1137 1023 1090 973 c 128,-1,36
 1043 923 1043 923 988.5 885 c 128,-1,37
 934 847 934 847 863 812 c 1,0,-1
850 1262 m 0,38,39
 798 1262 798 1262 755.5 1225.5 c 128,-1,40
 713 1189 713 1189 713 1131 c 0,41,42
 713 1063 713 1063 781 974 c 1,43,44
 942 1050 942 1050 942 1171 c 0,45,46
 942 1207 942 1207 918.5 1234.5 c 128,-1,47
 895 1262 895 1262 850 1262 c 0,38,39
398 385 m 3,48,49
 398 363 398 363 402 341.5 c 128,-1,50
 406 320 406 320 418.5 295 c 128,-1,51
 431 270 431 270 450 251 c 128,-1,52
 469 232 469 232 501.5 219.5 c 128,-1,53
 534 207 534 207 576 207 c 0,54,55
 659 207 659 207 735.5 236 c 128,-1,56
 812 265 812 265 857 326 c 1,57,-1
 647 662 l 1,58,59
 526 598 526 598 462 531.5 c 128,-1,60
 398 465 398 465 398 385 c 3,48,49
EndSplineSet
EndChar

StartChar: quotesingle
Encoding: 39 39 11
Width: 391
Flags: W
HStem: 947 519<319 443>
VStem: 274 308
LayerCount: 3
Fore
SplineSet
274 947 m 1
 276 1221 l 1
 319 1466 l 1
 582 1466 l 1
 539 1221 l 1
 443 947 l 1
 274 947 l 1
EndSplineSet
Validated: 1
Layer: 2
SplineSet
274 947 m 1,0,-1
 276 1221 l 1,1,-1
 319 1466 l 1,2,-1
 582 1466 l 1,3,-1
 539 1221 l 1,4,-1
 443 947 l 1,5,-1
 274 947 l 1,0,-1
EndSplineSet
EndChar

StartChar: parenleft
Encoding: 40 40 12
Width: 682
Flags: W
VStem: 154 272<-45.5043 640.992>
LayerCount: 3
Fore
SplineSet
919 1491 m 1
 679 1177 426 814 426 258 c 3
 426 28 477 -202 580 -431 c 1
 360 -431 l 1
 248 -247 154 9 154 298 c 3
 154 780 391 1158 699 1491 c 1
 919 1491 l 1
EndSplineSet
Validated: 1
Layer: 2
SplineSet
919 1491 m 1,0,1
 858 1412 858 1412 815 1352.5 c 128,-1,2
 772 1293 772 1293 717 1207.5 c 128,-1,3
 662 1122 662 1122 623.5 1048.5 c 128,-1,4
 585 975 585 975 545 878.5 c 128,-1,5
 505 782 505 782 481 689.5 c 128,-1,6
 457 597 457 597 441.5 485.5 c 128,-1,7
 426 374 426 374 426 258 c 0,8,9
 426 -89 426 -89 580 -431 c 1,10,-1
 360 -431 l 1,11,12
 268 -280 268 -280 211 -93 c 128,-1,13
 154 94 154 94 154 298 c 0,14,15
 154 473 154 473 194.5 638.5 c 128,-1,16
 235 804 235 804 312 952.5 c 128,-1,17
 389 1101 389 1101 482.5 1229.5 c 128,-1,18
 576 1358 576 1358 699 1491 c 1,19,-1
 919 1491 l 1,0,1
EndSplineSet
EndChar

StartChar: parenright
Encoding: 41 41 13
Width: 682
Flags: W
VStem: 447 271<446.688 1108.05>
LayerCount: 3
Fore
SplineSet
289 1491 m 1
 509 1491 l 1
 637 1266 718 1049 718 785 c 3
 718 274 438 -153 170 -431 c 1
 -50 -431 l 1
 267 -34 447 359 447 840 c 3
 447 1103 374 1284 289 1491 c 1
EndSplineSet
Validated: 1
Layer: 2
SplineSet
289 1491 m 1,0,-1
 509 1491 l 1,1,2
 612 1310 612 1310 665 1141.5 c 128,-1,3
 718 973 718 973 718 785 c 0,4,5
 718 637 718 637 686.5 489 c 128,-1,6
 655 341 655 341 603 216 c 128,-1,7
 551 91 551 91 478 -30 c 128,-1,8
 405 -151 405 -151 330 -246.5 c 128,-1,9
 255 -342 255 -342 170 -431 c 1,10,-1
 -50 -431 l 1,11,12
 198 -120 198 -120 322.5 186 c 128,-1,13
 447 492 447 492 447 840 c 0,14,15
 447 934 447 934 436 1019 c 128,-1,16
 425 1104 425 1104 398.5 1191 c 128,-1,17
 372 1278 372 1278 351 1334.5 c 128,-1,18
 330 1391 330 1391 289 1491 c 1,0,-1
EndSplineSet
EndChar

StartChar: asterisk
Encoding: 42 42 14
Width: 797
Flags: W
HStem: 1176 181<771.374 916.792>
VStem: 272 654
LayerCount: 3
Fore
SplineSet
741 1491 m 1
 728 1416 718 1361 700 1284 c 1
 765 1316 845 1335 916 1357 c 1
 926 1176 l 1
 857 1161 784 1149 713 1136 c 1
 732 1115 771 1059 829 968 c 1
 659 862 l 1
 622 915 597 981 576 1041 c 1
 533 981 484 915 429 862 c 1
 297 968 l 1
 387 1059 444 1115 471 1136 c 1
 404 1149 335 1161 272 1176 c 1
 346 1357 l 1
 409 1335 483 1316 536 1284 c 1
 546 1361 556 1416 569 1491 c 1
 741 1491 l 1
EndSplineSet
Validated: 1
Layer: 2
SplineSet
741 1491 m 1,0,1
 720 1369 720 1369 700 1284 c 1,2,3
 723 1295 723 1295 752.5 1306 c 128,-1,4
 782 1317 782 1317 804.5 1324 c 128,-1,5
 827 1331 827 1331 863 1341.5 c 128,-1,6
 899 1352 899 1352 916 1357 c 1,7,-1
 926 1176 l 1,8,9
 897 1170 897 1170 713 1136 c 1,10,11
 743 1103 743 1103 829 968 c 1,12,-1
 659 862 l 1,13,14
 618 920 618 920 576 1041 c 1,15,16
 489 920 489 920 429 862 c 1,17,-1
 297 968 l 1,18,19
 437 1110 437 1110 471 1136 c 1,20,21
 304 1169 304 1169 272 1176 c 1,22,-1
 346 1357 l 1,23,24
 356 1353 356 1353 405 1337.5 c 128,-1,25
 454 1322 454 1322 483 1310 c 128,-1,26
 512 1298 512 1298 536 1284 c 1,27,28
 545 1350 545 1350 569 1491 c 1,29,-1
 741 1491 l 1,0,1
EndSplineSet
EndChar

StartChar: plus
Encoding: 43 43 15
Width: 1196
Flags: W
HStem: 614 220<261 586 865 1190>
DStem2: 520 237 760 237 0.173648 0.984808<41.6756 382.733 647.839 983.973>
LayerCount: 3
Fore
SplineSet
520 237 m 1
 586 614 l 1
 222 614 l 1
 261 834 l 1
 625 834 l 1
 691 1206 l 1
 931 1206 l 1
 865 834 l 1
 1229 834 l 1
 1190 614 l 1
 826 614 l 1
 760 237 l 1
 520 237 l 1
EndSplineSet
Validated: 1
Layer: 2
SplineSet
520 237 m 1,0,-1
 586 614 l 1,1,-1
 222 614 l 1,2,-1
 261 834 l 1,3,-1
 625 834 l 1,4,-1
 691 1206 l 1,5,-1
 931 1206 l 1,6,-1
 865 834 l 1,7,-1
 1229 834 l 1,8,-1
 1190 614 l 1,9,-1
 826 614 l 1,10,-1
 760 237 l 1,11,-1
 520 237 l 1,0,-1
EndSplineSet
EndChar

StartChar: comma
Encoding: 44 44 16
Width: 569
Flags: W
HStem: -300 531
VStem: 74 386
LayerCount: 3
Fore
SplineSet
118 -22 m 1
 163 231 l 1
 460 231 l 1
 415 -22 l 2
 383 -201 308 -258 215 -300 c 1
 74 -207 l 1
 190 -159 230 -65 240 -22 c 1
 118 -22 l 1
EndSplineSet
Validated: 1
Layer: 2
SplineSet
118 -22 m 1,0,-1
 163 231 l 1,1,-1
 460 231 l 1,2,-1
 415 -22 l 2,3,4
 400 -107 400 -107 368.5 -164.5 c 128,-1,5
 337 -222 337 -222 302.5 -249 c 128,-1,6
 268 -276 268 -276 215 -300 c 1,7,-1
 74 -207 l 1,8,9
 150 -175 150 -175 189.5 -122 c 128,-1,10
 229 -69 229 -69 240 -22 c 1,11,-1
 118 -22 l 1,0,-1
EndSplineSet
EndChar

StartChar: hyphen
Encoding: 45 45 17
Width: 682
Flags: W
HStem: 411 220<176 690>
VStem: 137 592
LayerCount: 3
Fore
SplineSet
137 411 m 1
 176 631 l 1
 729 631 l 1
 690 411 l 1
 137 411 l 1
EndSplineSet
Validated: 1
Layer: 2
SplineSet
137 411 m 1,0,-1
 176 631 l 1,1,-1
 729 631 l 1,2,-1
 690 411 l 1,3,-1
 137 411 l 1,0,-1
EndSplineSet
EndChar

StartChar: period
Encoding: 46 46 18
Width: 569
Flags: W
HStem: 0 220<193 430>
VStem: 154 315
LayerCount: 3
Fore
SplineSet
154 0 m 1
 193 220 l 1
 469 220 l 1
 430 0 l 1
 154 0 l 1
EndSplineSet
Validated: 1
Layer: 2
SplineSet
154 0 m 1,0,-1
 193 220 l 1,1,-1
 469 220 l 1,2,-1
 430 0 l 1,3,-1
 154 0 l 1,0,-1
EndSplineSet
EndChar

StartChar: slash
Encoding: 47 47 19
Width: 595
Flags: W
HStem: -10 21G<-112 139.446> 1450 20G<723.554 975>
DStem2: -112 -10 128 -10 0.496707 0.867918<119.21 1705.23>
LayerCount: 3
Fore
SplineSet
-112 -10 m 1
 735 1470 l 1
 975 1470 l 1
 128 -10 l 1
 -112 -10 l 1
EndSplineSet
Validated: 1
Layer: 2
SplineSet
-112 -10 m 1,0,-1
 735 1470 l 1,1,-1
 975 1470 l 1,2,-1
 128 -10 l 1,3,-1
 -112 -10 l 1,0,-1
EndSplineSet
EndChar

StartChar: zero
Encoding: 48 48 20
Width: 1139
Flags: W
HStem: -13 220<485.731 709.364> 1262 220<669.961 892.703>
VStem: 187 240<268.19 830.573> 957 241<632.3 1193.56>
LayerCount: 3
Fore
SplineSet
558 -13 m 3
 297 -13 187 155 187 443 c 3
 187 973 405 1482 821 1482 c 3
 1082 1482 1198 1307 1198 1019 c 3
 1198 489 974 -13 558 -13 c 3
783 1262 m 3
 530 1262 427 766 427 462 c 3
 427 286 482 207 596 207 c 3
 849 207 957 694 957 998 c 3
 957 1174 897 1262 783 1262 c 3
EndSplineSet
Validated: 1
Layer: 2
SplineSet
558 -13 m 3,0,1
 187 -13 187 -13 187 443 c 0,2,3
 187 603 187 603 212.5 754.5 c 128,-1,4
 238 906 238 906 291 1038 c 128,-1,5
 344 1170 344 1170 418 1269 c 128,-1,6
 492 1368 492 1368 596 1425 c 128,-1,7
 700 1482 700 1482 821 1482 c 0,8,9
 1012 1482 1012 1482 1105 1361.5 c 128,-1,10
 1198 1241 1198 1241 1198 1019 c 0,11,12
 1198 818 1198 818 1155.5 634 c 128,-1,13
 1113 450 1113 450 1034.5 305 c 128,-1,14
 956 160 956 160 832.5 73.5 c 128,-1,15
 709 -13 709 -13 558 -13 c 3,0,1
783 1262 m 3,16,17
 693 1262 693 1262 621.5 1181 c 128,-1,18
 550 1100 550 1100 509.5 974.5 c 128,-1,19
 469 849 469 849 448 716.5 c 128,-1,20
 427 584 427 584 427 462 c 0,21,22
 427 331 427 331 468.5 269 c 128,-1,23
 510 207 510 207 596 207 c 0,24,25
 669 207 669 207 730.5 260 c 128,-1,26
 792 313 792 313 833 397.5 c 128,-1,27
 874 482 874 482 902.5 588.5 c 128,-1,28
 931 695 931 695 944 799 c 128,-1,29
 957 903 957 903 957 998 c 0,30,31
 957 1262 957 1262 783 1262 c 3,16,17
EndSplineSet
EndChar

StartChar: one
Encoding: 49 49 21
Width: 1139
Flags: W
HStem: 0 21G<523 766.533> 1452 20G<739.5 1023>
VStem: 372 651
DStem2: 523 0 763 0 0.173648 0.984808<41.6756 1061.08 1354.96 1494.79>
LayerCount: 3
Fore
SplineSet
418 1104 m 1
 598 1183 696 1274 783 1472 c 1
 1023 1472 l 1
 763 0 l 1
 523 0 l 1
 707 1045 l 1
 563 908 434 858 372 844 c 1
 418 1104 l 1
EndSplineSet
Validated: 1
Layer: 2
SplineSet
418 1104 m 1,0,1
 556 1164 556 1164 637.5 1245 c 128,-1,2
 719 1326 719 1326 783 1472 c 1,3,-1
 1023 1472 l 1,4,-1
 763 0 l 1,5,-1
 523 0 l 1,6,-1
 707 1045 l 1,7,8
 611 954 611 954 522.5 906 c 128,-1,9
 434 858 434 858 372 844 c 1,10,-1
 418 1104 l 1,0,1
EndSplineSet
EndChar

StartChar: two
Encoding: 50 50 22
Width: 1139
Flags: W
HStem: 0 220<421 1031> 1262 220<639.023 924.196>
VStem: 279 240<1039 1146.17> 984 242<961.713 1205.97>
LayerCount: 3
Fore
SplineSet
833 1482 m 3
 1080 1482 1226 1350 1226 1152 c 3
 1226 719 643 486 421 220 c 1
 1070 220 l 1
 1031 0 l 1
 62 0 l 1
 110 186 247 355 359 450 c 0
 601 657 984 859 984 1106 c 3
 984 1201 889 1262 791 1262 c 3
 646 1262 550 1175 519 1039 c 1
 279 1039 l 1
 326 1307 545 1482 833 1482 c 3
EndSplineSet
Validated: 1
Layer: 2
SplineSet
833 1482 m 3,0,1
 1016 1482 1016 1482 1121 1392 c 128,-1,2
 1226 1302 1226 1302 1226 1152 c 0,3,4
 1226 1063 1226 1063 1193.5 978.5 c 128,-1,5
 1161 894 1161 894 1104.5 823.5 c 128,-1,6
 1048 753 1048 753 979.5 688 c 128,-1,7
 911 623 911 623 830.5 561.5 c 128,-1,8
 750 500 750 500 678 446 c 128,-1,9
 606 392 606 392 535 332 c 128,-1,10
 464 272 464 272 421 220 c 1,11,-1
 1070 220 l 1,12,-1
 1031 0 l 1,13,-1
 62 0 l 1,14,15
 95 129 95 129 179.5 249 c 128,-1,16
 264 369 264 369 359 450 c 0,17,18
 409 493 409 493 488 552.5 c 128,-1,19
 567 612 567 612 629.5 657.5 c 128,-1,20
 692 703 692 703 761 762.5 c 128,-1,21
 830 822 830 822 876.5 873 c 128,-1,22
 923 924 923 924 953.5 985.5 c 128,-1,23
 984 1047 984 1047 984 1106 c 0,24,25
 984 1175 984 1175 926 1218.5 c 128,-1,26
 868 1262 868 1262 791 1262 c 0,27,28
 684 1262 684 1262 613.5 1202.5 c 128,-1,29
 543 1143 543 1143 519 1039 c 1,30,-1
 279 1039 l 1,31,32
 314 1240 314 1240 465.5 1361 c 128,-1,33
 617 1482 617 1482 833 1482 c 3,0,1
EndSplineSet
EndChar

StartChar: three
Encoding: 51 51 23
Width: 1139
Flags: W
HStem: -13 220<474.763 749.731> 665 220<597 813.189> 1070 21G<293 549> 1262 220<634.028 886.215>
VStem: 154 247<279.51 427> 887 249<339.167 594.959> 934 243<984.384 1212.96>
LayerCount: 3
Fore
SplineSet
550 -13 m 3xfc
 323 -13 154 131 154 348 c 3
 154 373 156 400 161 427 c 1
 401 427 l 1
 401 295 482 207 590 207 c 3
 758 207 887 328 887 481 c 3xfc
 887 592 791 665 654 665 c 3
 621 665 589 660 556 651 c 1
 597 885 l 1
 817 888 934 960 934 1124 c 3
 934 1201 850 1262 772 1262 c 3
 661 1262 565 1191 533 1070 c 1
 293 1070 l 1
 334 1305 557 1482 806 1482 c 3
 1024 1482 1177 1358 1177 1168 c 3xfa
 1177 967 1080 839 952 794 c 1
 1079 773 1136 691 1136 559 c 3
 1136 221 864 -13 550 -13 c 3xfc
EndSplineSet
Validated: 1
Layer: 2
SplineSet
550 -13 m 3,0,1
 378 -13 378 -13 266 87 c 128,-1,2
 154 187 154 187 154 348 c 0,3,4
 154 389 154 389 161 427 c 1,5,-1
 401 427 l 1,6,7
 401 329 401 329 454.5 268 c 128,-1,8
 508 207 508 207 590 207 c 0,9,10
 716 207 716 207 801.5 286.5 c 128,-1,11
 887 366 887 366 887 481 c 0,12,13
 887 564 887 564 822 614.5 c 128,-1,14
 757 665 757 665 654 665 c 0,15,16
 607 665 607 665 556 651 c 1,17,-1
 597 885 l 1,18,19
 765 887 765 887 849.5 945 c 128,-1,20
 934 1003 934 1003 934 1124 c 0,21,22
 934 1180 934 1180 883.5 1221 c 128,-1,23
 833 1262 833 1262 772 1262 c 0,24,25
 687 1262 687 1262 622 1210.5 c 128,-1,26
 557 1159 557 1159 533 1070 c 1,27,-1
 293 1070 l 1,28,29
 324 1246 324 1246 471.5 1364 c 128,-1,30
 619 1482 619 1482 806 1482 c 0,31,32
 971 1482 971 1482 1074 1396 c 128,-1,33
 1177 1310 1177 1310 1177 1168 c 0,34,35
 1177 1023 1177 1023 1115 926 c 128,-1,36
 1053 829 1053 829 952 794 c 1,37,38
 1136 764 1136 764 1136 559 c 0,39,40
 1136 395 1136 395 1055 262.5 c 128,-1,41
 974 130 974 130 840.5 58.5 c 128,-1,42
 707 -13 707 -13 550 -13 c 3,0,1
EndSplineSet
EndChar

StartChar: four
Encoding: 52 52 24
Width: 1139
Flags: W
HStem: 0 21G<652 895.547> 327 220<417 710 988 1128> 1452 20G<895.568 1152>
DStem2: 152 547 417 547 0.634829 0.772653<168.23 847.538> 652 0 892 0 0.173648 0.984808<41.6756 332.104 597.036 1093.63>
LayerCount: 3
Fore
SplineSet
652 0 m 1
 710 327 l 1
 114 327 l 1
 152 547 l 1
 912 1472 l 1
 1152 1472 l 1
 988 547 l 1
 1166 547 l 1
 1128 327 l 1
 950 327 l 1
 892 0 l 1
 652 0 l 1
748 547 m 1
 842 1077 l 1
 417 547 l 1
 748 547 l 1
EndSplineSet
Validated: 1
Layer: 2
SplineSet
652 0 m 1,0,-1
 710 327 l 1,1,-1
 114 327 l 1,2,-1
 152 547 l 1,3,-1
 912 1472 l 1,4,-1
 1152 1472 l 1,5,-1
 988 547 l 1,6,-1
 1166 547 l 1,7,-1
 1128 327 l 1,8,-1
 950 327 l 1,9,-1
 892 0 l 1,10,-1
 652 0 l 1,0,-1
748 547 m 1,11,-1
 842 1077 l 1,12,-1
 417 547 l 1,13,-1
 748 547 l 1,11,-1
EndSplineSet
EndChar

StartChar: five
Encoding: 53 53 25
Width: 1139
Flags: W
HStem: -13 220<448.277 746.708> 774 220<597.162 843.569> 1230 220<677 1205>
VStem: 156 240<260.962 412> 911 245<385.932 704.83>
DStem2: 241 705 569 937 0.34518 0.938537<60.1243 134.585 330.959 643.23>
LayerCount: 3
Fore
SplineSet
592 207 m 3
 772 207 911 356 911 568 c 3
 911 704 832 774 689 774 c 3
 594 774 540 745 475 683 c 1
 241 705 l 1
 515 1450 l 1
 1244 1450 l 1
 1205 1230 l 1
 677 1230 l 1
 569 937 l 1
 649 975 698 994 766 994 c 3
 1018 994 1156 833 1156 612 c 3
 1156 247 888 -13 554 -13 c 3
 287 -13 156 135 156 366 c 3
 156 381 157 396 158 412 c 1
 398 412 l 1
 397 400 396 389 396 378 c 3
 396 235 514 207 592 207 c 3
EndSplineSet
Validated: 1
Layer: 2
SplineSet
592 207 m 3,0,1
 728 207 728 207 819.5 308.5 c 128,-1,2
 911 410 911 410 911 568 c 0,3,4
 911 669 911 669 854 721.5 c 128,-1,5
 797 774 797 774 689 774 c 0,6,7
 620 774 620 774 573 753 c 128,-1,8
 526 732 526 732 475 683 c 1,9,-1
 241 705 l 1,10,-1
 515 1450 l 1,11,-1
 1244 1450 l 1,12,-1
 1205 1230 l 1,13,-1
 677 1230 l 1,14,-1
 569 937 l 1,15,16
 635 968 635 968 676.5 981 c 128,-1,17
 718 994 718 994 766 994 c 0,18,19
 950 994 950 994 1053 888.5 c 128,-1,20
 1156 783 1156 783 1156 612 c 0,21,22
 1156 433 1156 433 1075.5 289.5 c 128,-1,23
 995 146 995 146 857.5 66.5 c 128,-1,24
 720 -13 720 -13 554 -13 c 0,25,26
 358 -13 358 -13 257 87.5 c 128,-1,27
 156 188 156 188 156 366 c 0,28,29
 156 380 156 380 158 412 c 1,30,-1
 398 412 l 1,31,32
 396 388 396 388 396 378 c 0,33,34
 396 327 396 327 415 291.5 c 128,-1,35
 434 256 434 256 465.5 238.5 c 128,-1,36
 497 221 497 221 527.5 214 c 128,-1,37
 558 207 558 207 592 207 c 3,0,1
EndSplineSet
EndChar

StartChar: six
Encoding: 54 54 26
Width: 1139
Flags: W
HStem: -13 220<496.711 754.074> 757 220<568.569 836.048> 1262 220<674.154 948.253>
VStem: 177 253<273.061 606.555> 898 241<361.169 691.547>
LayerCount: 3
Fore
SplineSet
864 1482 m 3
 1073 1482 1219 1361 1219 1173 c 0
 1219 1151 1217 1127 1213 1103 c 1
 1001 1104 l 1
 987 1222 902 1262 823 1262 c 3
 645 1262 522 1112 468 858 c 1
 547 937 645 977 761 977 c 3
 998 977 1139 805 1139 580 c 3
 1139 247 894 -13 584 -13 c 3
 273 -13 177 201 177 457 c 3
 177 904 378 1482 864 1482 c 3
706 757 m 3
 552 757 430 617 430 417 c 3
 430 297 490 207 616 207 c 3
 775 207 898 353 898 551 c 3
 898 672 833 757 706 757 c 3
EndSplineSet
Validated: 1
Layer: 2
SplineSet
864 1482 m 3,0,1
 1022 1482 1022 1482 1120.5 1397.5 c 128,-1,2
 1219 1313 1219 1313 1219 1173 c 0,3,4
 1219 1139 1219 1139 1213 1103 c 1,5,-1
 1001 1104 l 1,6,7
 991 1186 991 1186 940.5 1224 c 128,-1,8
 890 1262 890 1262 823 1262 c 0,9,10
 691 1262 691 1262 600 1156.5 c 128,-1,11
 509 1051 509 1051 468 858 c 1,12,13
 587 977 587 977 761 977 c 128,-1,14
 935 977 935 977 1037 865 c 128,-1,15
 1139 753 1139 753 1139 580 c 0,16,17
 1139 457 1139 457 1095.5 347 c 128,-1,18
 1052 237 1052 237 978 158 c 128,-1,19
 904 79 904 79 801 33 c 128,-1,20
 698 -13 698 -13 584 -13 c 0,21,22
 493 -13 493 -13 422.5 11.5 c 128,-1,23
 352 36 352 36 306 78.5 c 128,-1,24
 260 121 260 121 230.5 181.5 c 128,-1,25
 201 242 201 242 189 309.5 c 128,-1,26
 177 377 177 377 177 457 c 0,27,28
 177 572 177 572 194.5 688.5 c 128,-1,29
 212 805 212 805 246.5 921 c 128,-1,30
 281 1037 281 1037 338.5 1137.5 c 128,-1,31
 396 1238 396 1238 469.5 1315.5 c 128,-1,32
 543 1393 543 1393 644.5 1437.5 c 128,-1,33
 746 1482 746 1482 864 1482 c 3,0,1
706 757 m 3,34,35
 589 757 589 757 509.5 661 c 128,-1,36
 430 565 430 565 430 417 c 0,37,38
 430 323 430 323 477.5 265 c 128,-1,39
 525 207 525 207 616 207 c 0,40,41
 736 207 736 207 817 305 c 128,-1,42
 898 403 898 403 898 551 c 0,43,44
 898 645 898 645 848.5 701 c 128,-1,45
 799 757 799 757 706 757 c 3,34,35
EndSplineSet
EndChar

StartChar: seven
Encoding: 55 55 27
Width: 1139
Flags: W
HStem: 0 21G<262 514> 1230 220<353 981>
VStem: 262 240<0 165.702>
LayerCount: 3
Fore
SplineSet
314 1230 m 1
 353 1450 l 1
 1302 1450 l 1
 1263 1230 l 1
 1154 1136 879 856 788 692 c 0
 588 328 526 138 502 0 c 1
 262 0 l 1
 305 243 417 502 592 776 c 0
 662 885 820 1069 981 1230 c 1
 314 1230 l 1
EndSplineSet
Validated: 1
Layer: 2
SplineSet
314 1230 m 1,0,-1
 353 1450 l 1,1,-1
 1302 1450 l 1,2,-1
 1263 1230 l 1,3,4
 1159 1141 1159 1141 1004 971.5 c 128,-1,5
 849 802 849 802 788 692 c 0,6,7
 546 251 546 251 502 0 c 1,8,-1
 262 0 l 1,9,10
 325 359 325 359 592 776 c 0,11,12
 644 857 644 857 752 983 c 128,-1,13
 860 1109 860 1109 981 1230 c 1,14,-1
 314 1230 l 1,0,-1
EndSplineSet
EndChar

StartChar: eight
Encoding: 56 56 28
Width: 1139
Flags: W
HStem: -13 220<458.442 764.923> 666 220<609.107 837.187> 1262 220<662.925 904.794>
VStem: 152 244<268.679 548.191> 328 240<922.488 1167.83> 892 243<337.986 613.087> 942 244<974.841 1221.08>
LayerCount: 3
Fore
SplineSet
564 -13 m 3xe4
 340 -13 152 108 152 345 c 3xf4
 152 607 303 745 499 794 c 1
 374 844 328 924 328 1018 c 3
 328 1299 578 1482 827 1482 c 3
 1044 1482 1186 1352 1186 1155 c 3xea
 1186 977 1108 862 913 794 c 1
 1052 756 1135 673 1135 523 c 3
 1135 170 831 -13 564 -13 c 3xe4
789 1262 m 3
 684 1262 568 1181 568 1033 c 3
 568 946 623 886 722 886 c 3
 846 886 942 982 942 1116 c 3xea
 942 1212 874 1262 789 1262 c 3
602 207 m 3
 775 207 892 323 892 493 c 3
 892 608 819 666 683 666 c 3
 518 666 396 570 396 386 c 3xf4
 396 280 466 207 602 207 c 3
EndSplineSet
Validated: 1
Layer: 2
SplineSet
564 -13 m 3,0,1
 387 -13 387 -13 269.5 81 c 128,-1,2
 152 175 152 175 152 345 c 0,3,4
 152 471 152 471 199 566 c 128,-1,5
 246 661 246 661 321.5 714.5 c 128,-1,6
 397 768 397 768 499 794 c 1,7,8
 328 862 328 862 328 1018 c 0,9,10
 328 1120 328 1120 371 1208.5 c 128,-1,11
 414 1297 414 1297 484 1356 c 128,-1,12
 554 1415 554 1415 643.5 1448.5 c 128,-1,13
 733 1482 733 1482 827 1482 c 0,14,15
 990 1482 990 1482 1088 1392.5 c 128,-1,16
 1186 1303 1186 1303 1186 1155 c 0,17,18
 1186 1019 1186 1019 1121.5 931.5 c 128,-1,19
 1057 844 1057 844 913 794 c 1,20,21
 1135 733 1135 733 1135 523 c 0,22,23
 1135 421 1135 421 1101.5 332.5 c 128,-1,24
 1068 244 1068 244 1011 181.5 c 128,-1,25
 954 119 954 119 880.5 74.5 c 128,-1,26
 807 30 807 30 726 8.5 c 128,-1,27
 645 -13 645 -13 564 -13 c 3,0,1
789 1262 m 3,28,29
 703 1262 703 1262 635.5 1200 c 128,-1,30
 568 1138 568 1138 568 1033 c 0,31,32
 568 966 568 966 608.5 926 c 128,-1,33
 649 886 649 886 722 886 c 0,34,35
 816 886 816 886 879 951 c 128,-1,36
 942 1016 942 1016 942 1116 c 0,37,38
 942 1185 942 1185 899 1223.5 c 128,-1,39
 856 1262 856 1262 789 1262 c 3,28,29
602 207 m 3,40,41
 732 207 732 207 812 286 c 128,-1,42
 892 365 892 365 892 493 c 0,43,44
 892 666 892 666 683 666 c 0,45,46
 555 666 555 666 475.5 593 c 128,-1,47
 396 520 396 520 396 386 c 0,48,49
 396 304 396 304 449 255.5 c 128,-1,50
 502 207 502 207 602 207 c 3,40,41
EndSplineSet
EndChar

StartChar: nine
Encoding: 57 57 29
Width: 1139
Flags: W
HStem: -13 220<474.109 758.912> 495 220<584.499 854.363> 1262 220<661.916 927.634>
VStem: 188 246<248.144 369> 277 244<777.9 1106.68> 984 256<872.054 1204.67>
LayerCount: 3
Fore
SplineSet
553 -13 m 3xec
 334 -13 188 109 188 300 c 3
 188 322 190 345 194 369 c 1
 434 369 l 1xf4
 434 266 491 207 602 207 c 3
 809 207 878 358 927 579 c 1
 849 513 773 495 651 495 c 3
 421 495 277 655 277 880 c 3
 277 1232 540 1482 833 1482 c 3
 1145 1482 1240 1269 1240 1013 c 3
 1240 554 1034 -13 553 -13 c 3xec
802 1262 m 3
 637 1262 521 1110 521 919 c 3xec
 521 792 591 715 710 715 c 3
 909 715 984 907 984 1058 c 3
 984 1177 926 1262 802 1262 c 3
EndSplineSet
Validated: 1
Layer: 2
SplineSet
553 -13 m 3,0,1
 388 -13 388 -13 288 72 c 128,-1,2
 188 157 188 157 188 300 c 0,3,4
 188 333 188 333 194 369 c 1,5,-1
 434 369 l 1,6,7
 434 291 434 291 477 249 c 128,-1,8
 520 207 520 207 602 207 c 0,9,10
 663 207 663 207 711 225 c 128,-1,11
 759 243 759 243 792 273.5 c 128,-1,12
 825 304 825 304 851 353 c 128,-1,13
 877 402 877 402 894 454.5 c 128,-1,14
 911 507 911 507 927 579 c 1,15,16
 870 531 870 531 808 513 c 128,-1,17
 746 495 746 495 651 495 c 0,18,19
 481 495 481 495 379 602 c 128,-1,20
 277 709 277 709 277 880 c 0,21,22
 277 1009 277 1009 323 1122 c 128,-1,23
 369 1235 369 1235 445 1313.5 c 128,-1,24
 521 1392 521 1392 622.5 1437 c 128,-1,25
 724 1482 724 1482 833 1482 c 0,26,27
 946 1482 946 1482 1027.5 1445.5 c 128,-1,28
 1109 1409 1109 1409 1154 1342.5 c 128,-1,29
 1199 1276 1199 1276 1219.5 1195 c 128,-1,30
 1240 1114 1240 1114 1240 1013 c 0,31,32
 1240 871 1240 871 1215.5 730 c 128,-1,33
 1191 589 1191 589 1136 454 c 128,-1,34
 1081 319 1081 319 1003 216 c 128,-1,35
 925 113 925 113 808.5 50 c 128,-1,36
 692 -13 692 -13 553 -13 c 3,0,1
802 1262 m 3,37,38
 680 1262 680 1262 600.5 1163 c 128,-1,39
 521 1064 521 1064 521 919 c 0,40,41
 521 823 521 823 571 769 c 128,-1,42
 621 715 621 715 710 715 c 0,43,44
 781 715 781 715 836 747 c 128,-1,45
 891 779 891 779 922 830.5 c 128,-1,46
 953 882 953 882 968.5 940 c 128,-1,47
 984 998 984 998 984 1058 c 0,48,49
 984 1151 984 1151 938 1206.5 c 128,-1,50
 892 1262 892 1262 802 1262 c 3,37,38
EndSplineSet
EndChar

StartChar: colon
Encoding: 58 58 30
Width: 569
Flags: W
HStem: 0 230<201 415> 832 230<347 562>
VStem: 160 442
DStem2: 160 0 415 0 0.173648 0.984808<44.2803 233.625 889.167 1078.34>
LayerCount: 3
Fore
SplineSet
307 832 m 1
 347 1062 l 1
 602 1062 l 1
 562 832 l 1
 307 832 l 1
160 0 m 1
 201 230 l 1
 456 230 l 1
 415 0 l 1
 160 0 l 1
EndSplineSet
Validated: 1
Layer: 2
SplineSet
307 832 m 1,0,-1
 347 1062 l 1,1,-1
 602 1062 l 1,2,-1
 562 832 l 1,3,-1
 307 832 l 1,0,-1
160 0 m 1,4,-1
 201 230 l 1,5,-1
 456 230 l 1,6,-1
 415 0 l 1,7,-1
 160 0 l 1,4,-1
EndSplineSet
EndChar

StartChar: semicolon
Encoding: 59 59 31
Width: 569
Flags: W
HStem: 832 230<344 559>
VStem: 107 492
DStem2: 104.631 -297 359.631 -297 0.173648 0.984808<322.956 509.719 1190.75 1379.92>
LayerCount: 3
Fore
SplineSet
304 832 m 1
 344 1062 l 1
 599 1062 l 1
 559 832 l 1
 304 832 l 1
157 0 m 1
 193 205 l 1
 448 205 l 1
 412 0 l 2
 383 -163 319 -262 218 -297 c 1
 107 -213 l 1
 182 -182 234 -120 259 0 c 1
 157 0 l 1
EndSplineSet
Validated: 1
Layer: 2
SplineSet
304 832 m 1,0,-1
 344 1062 l 1,1,-1
 599 1062 l 1,2,-1
 559 832 l 1,3,-1
 304 832 l 1,0,-1
157 0 m 1,4,-1
 193 205 l 1,5,-1
 448 205 l 1,6,-1
 412 0 l 2,7,8
 368 -245 368 -245 218 -297 c 1,9,-1
 107 -213 l 1,10,11
 225 -164 225 -164 259 0 c 1,12,-1
 157 0 l 1,4,-1
EndSplineSet
EndChar

StartChar: less
Encoding: 60 60 32
Width: 1196
Flags: W
DStem2: 551 724 225 641 0.907752 -0.419507<0 668.392> 255 809 551 724 0.930676 0.365846<244.383 999.686>
LayerCount: 3
Fore
SplineSet
225 641 m 1
 255 809 l 1
 1298 1219 l 1
 1258 990 l 1
 551 724 l 1
 1163 455 l 1
 1123 226 l 1
 225 641 l 1
EndSplineSet
Validated: 1
Layer: 2
SplineSet
225 641 m 1,0,-1
 255 809 l 1,1,-1
 1298 1219 l 1,2,-1
 1258 990 l 1,3,-1
 551 724 l 1,4,-1
 1163 455 l 1,5,-1
 1123 226 l 1,6,-1
 225 641 l 1,0,-1
EndSplineSet
EndChar

StartChar: equal
Encoding: 61 61 33
Width: 1196
Flags: W
HStem: 416 220<226 1155> 811 220<296 1225>
LayerCount: 3
Fore
SplineSet
1225 811 m 1
 257 811 l 1
 296 1031 l 1
 1264 1031 l 1
 1225 811 l 1
1155 416 m 1
 187 416 l 1
 226 636 l 1
 1194 636 l 1
 1155 416 l 1
EndSplineSet
Validated: 1
Layer: 2
SplineSet
1225 811 m 1,0,-1
 257 811 l 1,1,-1
 296 1031 l 1,2,-1
 1264 1031 l 1,3,-1
 1225 811 l 1,0,-1
1155 416 m 1,4,-1
 187 416 l 1,5,-1
 226 636 l 1,6,-1
 1194 636 l 1,7,-1
 1155 416 l 1,4,-1
EndSplineSet
EndChar

StartChar: greater
Encoding: 62 62 34
Width: 1196
Flags: W
DStem2: 192 455 152 226 0.929273 0.369395<0 736.848> 327 1219 287 990 0.909846 -0.414946<58.6289 706.724>
LayerCount: 3
Fore
SplineSet
1196 641 m 1
 152 226 l 1
 192 455 l 1
 878 724 l 1
 287 990 l 1
 327 1219 l 1
 1226 809 l 1
 1196 641 l 1
EndSplineSet
Validated: 1
Layer: 2
SplineSet
1196 641 m 1,0,-1
 152 226 l 1,1,-1
 192 455 l 1,2,-1
 878 724 l 1,3,-1
 287 990 l 1,4,-1
 327 1219 l 1,5,-1
 1226 809 l 1,6,-1
 1196 641 l 1,0,-1
EndSplineSet
EndChar

StartChar: question
Encoding: 63 63 35
Width: 1139
Flags: W
HStem: 0 235<462 695> 1284 220<667.129 929.822>
VStem: 991 243<979.425 1229.28>
DStem2: 462 235 736 235 0.115564 0.9933<-206.499 0 156.936 288.009>
LayerCount: 3
Fore
SplineSet
830 1504 m 3
 1071 1504 1234 1373 1234 1163 c 3
 1234 1058 1214 950 1033 782 c 0
 918 676 776 580 737 361 c 1
 497 361 l 1
 542 615 660 714 772 803 c 0
 963 956 991 1041 991 1124 c 3
 991 1249 862 1284 794 1284 c 3
 667 1284 529 1133 514 1046 c 1
 274 1046 l 1
 319 1300 558 1504 830 1504 c 3
421 0 m 1
 462 235 l 1
 736 235 l 1
 695 0 l 1
 421 0 l 1
EndSplineSet
Validated: 1
Layer: 2
SplineSet
830 1504 m 3,0,1
 1012 1504 1012 1504 1123 1411.5 c 128,-1,2
 1234 1319 1234 1319 1234 1163 c 0,3,4
 1234 1068 1234 1068 1195 982 c 128,-1,5
 1156 896 1156 896 1033 782 c 0,6,7
 1019 769 1019 769 975 730 c 128,-1,8
 931 691 931 691 912 673 c 128,-1,9
 893 655 893 655 858 615 c 128,-1,10
 823 575 823 575 804.5 542.5 c 128,-1,11
 786 510 786 510 766 462 c 128,-1,12
 746 414 746 414 737 361 c 1,13,-1
 497 361 l 1,14,15
 510 434 510 434 533 496.5 c 128,-1,16
 556 559 556 559 580 600 c 128,-1,17
 604 641 604 641 641 682.5 c 128,-1,18
 678 724 678 724 703.5 746.5 c 128,-1,19
 729 769 729 769 772 803 c 0,20,21
 904 908 904 908 947.5 980 c 128,-1,22
 991 1052 991 1052 991 1124 c 0,23,24
 991 1168 991 1168 970.5 1201 c 128,-1,25
 950 1234 950 1234 917.5 1251 c 128,-1,26
 885 1268 885 1268 854 1276 c 128,-1,27
 823 1284 823 1284 794 1284 c 0,28,29
 705 1284 705 1284 615.5 1201 c 128,-1,30
 526 1118 526 1118 514 1046 c 1,31,-1
 274 1046 l 1,32,33
 308 1238 308 1238 467.5 1371 c 128,-1,34
 627 1504 627 1504 830 1504 c 3,0,1
421 0 m 1,35,-1
 462 235 l 1,36,-1
 736 235 l 1,37,-1
 695 0 l 1,38,-1
 421 0 l 1,35,-1
EndSplineSet
EndChar

StartChar: at
Encoding: 64 64 36
Width: 2079
Flags: W
HStem: -428 200<766.636 1403.07> -13 200<843.475 1059.64 1276.5 1557.43> 895 200<1031.86 1290.36> 1042 20G<1487.45 1710> 1282 200<1054.34 1561.41>
VStem: 176 227<100.697 604.61> 572 225<235.394 593.552> 1329 81<240 727> 1871 224<594.352 996.57>
LayerCount: 3
Fore
SplineSet
1352 -13 m 3xdf80
 1201 -13 1182 50 1182 121 c 1
 1095 28 985 -13 852 -13 c 3
 668 -13 572 135 572 336 c 3
 572 744 907 1095 1204 1095 c 3xef80
 1391 1095 1439 988 1443 938 c 1
 1496 1062 l 1
 1710 1062 l 1
 1447 379 l 2
 1433 343 1410 291 1410 240 c 3
 1410 210 1421 187 1455 187 c 3
 1654 187 1871 530 1871 811 c 3
 1871 1106 1610 1282 1326 1282 c 3
 729 1282 403 753 403 333 c 3
 403 57 549 -228 1080 -228 c 3
 1405 -228 1548 -142 1751 19 c 1
 2008 19 l 1
 1828 -253 1470 -428 1048 -428 c 3
 506 -428 176 -189 176 271 c 3
 176 967 707 1482 1363 1482 c 3
 1798 1482 2095 1242 2095 858 c 3
 2095 416 1719 -13 1352 -13 c 3xdf80
797 383 m 3
 797 245 867 187 939 187 c 3
 1143 187 1329 467 1329 727 c 3
 1329 866 1248 895 1171 895 c 3
 951 895 797 617 797 383 c 3
EndSplineSet
Validated: 1
Layer: 2
SplineSet
1352 -13 m 3,0,1
 1298 -13 1298 -13 1262.5 -2.5 c 128,-1,2
 1227 8 1227 8 1210 28 c 128,-1,3
 1193 48 1193 48 1187.5 69.5 c 128,-1,4
 1182 91 1182 91 1182 121 c 1,5,6
 1057 -13 1057 -13 852 -13 c 0,7,8
 718 -13 718 -13 645 83.5 c 128,-1,9
 572 180 572 180 572 336 c 0,10,11
 572 455 572 455 609 571 c 128,-1,12
 646 687 646 687 709.5 780 c 128,-1,13
 773 873 773 873 853 945 c 128,-1,14
 933 1017 933 1017 1024.5 1056 c 128,-1,15
 1116 1095 1116 1095 1204 1095 c 0,16,17
 1270 1095 1270 1095 1319 1078 c 128,-1,18
 1368 1061 1368 1061 1393 1034.5 c 128,-1,19
 1418 1008 1418 1008 1429.5 984 c 128,-1,20
 1441 960 1441 960 1443 938 c 1,21,-1
 1496 1062 l 1,22,-1
 1710 1062 l 1,23,-1
 1447 379 l 2,24,25
 1410 284 1410 284 1410 240 c 0,26,27
 1410 187 1410 187 1455 187 c 0,28,29
 1551 187 1551 187 1649.5 284 c 128,-1,30
 1748 381 1748 381 1809.5 527 c 128,-1,31
 1871 673 1871 673 1871 811 c 0,32,33
 1871 918 1871 918 1826 1008.5 c 128,-1,34
 1781 1099 1781 1099 1705 1158 c 128,-1,35
 1629 1217 1629 1217 1531 1249.5 c 128,-1,36
 1433 1282 1433 1282 1326 1282 c 0,37,38
 1201 1282 1201 1282 1087 1251.5 c 128,-1,39
 973 1221 973 1221 881.5 1167.5 c 128,-1,40
 790 1114 790 1114 712 1041 c 128,-1,41
 634 968 634 968 578 883 c 128,-1,42
 522 798 522 798 482 705 c 128,-1,43
 442 612 442 612 422.5 518 c 128,-1,44
 403 424 403 424 403 333 c 0,45,46
 403 245 403 245 422 168 c 128,-1,47
 441 91 441 91 489 16.5 c 128,-1,48
 537 -58 537 -58 611.5 -110.5 c 128,-1,49
 686 -163 686 -163 806 -195.5 c 128,-1,50
 926 -228 926 -228 1080 -228 c 0,51,52
 1199 -228 1199 -228 1291 -213.5 c 128,-1,53
 1383 -199 1383 -199 1463 -164 c 128,-1,54
 1543 -129 1543 -129 1604 -89 c 128,-1,55
 1665 -49 1665 -49 1751 19 c 1,56,-1
 2008 19 l 1,57,58
 1872 -187 1872 -187 1616.5 -307.5 c 128,-1,59
 1361 -428 1361 -428 1048 -428 c 0,60,61
 636 -428 636 -428 406 -248.5 c 128,-1,62
 176 -69 176 -69 176 271 c 0,63,64
 176 442 176 442 218.5 602 c 128,-1,65
 261 762 261 762 337.5 894.5 c 128,-1,66
 414 1027 414 1027 523.5 1137 c 128,-1,67
 633 1247 633 1247 763.5 1323 c 128,-1,68
 894 1399 894 1399 1047.5 1440.5 c 128,-1,69
 1201 1482 1201 1482 1363 1482 c 0,70,71
 1580 1482 1580 1482 1745.5 1406.5 c 128,-1,72
 1911 1331 1911 1331 2003 1189 c 128,-1,73
 2095 1047 2095 1047 2095 858 c 0,74,75
 2095 697 2095 697 2030 536.5 c 128,-1,76
 1965 376 1965 376 1861.5 256 c 128,-1,77
 1758 136 1758 136 1622.5 61.5 c 128,-1,78
 1487 -13 1487 -13 1352 -13 c 3,0,1
797 383 m 3,79,80
 797 286 797 286 838.5 236.5 c 128,-1,81
 880 187 880 187 939 187 c 0,82,83
 1038 187 1038 187 1129.5 267.5 c 128,-1,84
 1221 348 1221 348 1275 473.5 c 128,-1,85
 1329 599 1329 599 1329 727 c 0,86,87
 1329 895 1329 895 1171 895 c 0,88,89
 1092 895 1092 895 1020.5 848 c 128,-1,90
 949 801 949 801 901 727 c 128,-1,91
 853 653 853 653 825 562 c 128,-1,92
 797 471 797 471 797 383 c 3,79,80
EndSplineSet
EndChar

StartChar: A
Encoding: 65 65 37
Width: 1366
Flags: W
HStem: 0 21G<1 266.501 1104.52 1363> 433 220<631 963> 1430 20G<824.483 1044.46>
DStem2: 1 0 255 0 0.499032 0.866583<126.754 626.244 880.269 1361.4> 1040 1450 871 1070 0.217429 -0.976076<334.163 761.191 986.581 1430.31>
LayerCount: 3
Fore
SplineSet
631 653 m 1
 963 653 l 1
 871 1070 l 1
 631 653 l 1
1040 1450 m 1
 1363 0 l 1
 1109 0 l 1
 1012 433 l 1
 504 433 l 1
 255 0 l 1
 1 0 l 1
 836 1450 l 1
 1040 1450 l 1
EndSplineSet
Validated: 1
Layer: 2
SplineSet
631 653 m 1,0,-1
 963 653 l 1,1,-1
 871 1070 l 1,2,-1
 631 653 l 1,0,-1
1040 1450 m 1,3,-1
 1363 0 l 1,4,-1
 1109 0 l 1,5,-1
 1012 433 l 1,6,-1
 504 433 l 1,7,-1
 255 0 l 1,8,-1
 1 0 l 1,9,-1
 836 1450 l 1,10,-1
 1040 1450 l 1,3,-1
EndSplineSet
EndChar

StartChar: B
Encoding: 66 66 38
Width: 1366
Flags: W
HStem: 0 220<443 980.502> 626 220<553 1029.4> 1230 220<621 1102.31>
VStem: 1097 243<318.27 580.289> 1137 246<963.594 1197.89>
DStem2: 164 0 404.208 0 0.173648 0.984808<265.106 677.266 900.696 1290.67>
LayerCount: 3
Fore
SplineSet
1157 772 m 1xe8
 1279 734 1340 649 1340 516 c 3xf0
 1340 176 1085 0 709 0 c 2
 164 0 l 1
 420 1450 l 1
 956 1450 l 2
 1216 1450 1383 1354 1383 1153 c 3
 1383 900 1188 790 1157 772 c 1xe8
553 846 m 1
 810 846 l 2
 1032 846 1137 918 1137 1108 c 3xe8
 1137 1214 1054 1230 854 1230 c 2
 621 1230 l 1
 553 846 l 1
443 220 m 1
 748 220 l 2
 942 220 1097 255 1097 480 c 3xf0
 1097 603 1000 626 793 626 c 2
 514 626 l 1
 443 220 l 1
EndSplineSet
Validated: 1
Layer: 2
SplineSet
1157 772 m 1,0,1
 1340 715 1340 715 1340 516 c 0,2,3
 1340 267 1340 267 1169 133.5 c 128,-1,4
 998 0 998 0 709 0 c 2,5,-1
 164 0 l 1,6,-1
 420 1450 l 1,7,-1
 956 1450 l 2,8,9
 1156 1450 1156 1450 1269.5 1375 c 128,-1,10
 1383 1300 1383 1300 1383 1153 c 0,11,12
 1383 1082 1383 1082 1361.5 1018 c 128,-1,13
 1340 954 1340 954 1314 915 c 128,-1,14
 1288 876 1288 876 1249 840.5 c 128,-1,15
 1210 805 1210 805 1193.5 794.5 c 128,-1,16
 1177 784 1177 784 1157 772 c 1,0,1
553 846 m 1,17,-1
 810 846 l 2,18,19
 979 846 979 846 1058 907 c 128,-1,20
 1137 968 1137 968 1137 1108 c 0,21,22
 1137 1184 1137 1184 1075.5 1207 c 128,-1,23
 1014 1230 1014 1230 854 1230 c 2,24,-1
 621 1230 l 1,25,-1
 553 846 l 1,17,-1
443 220 m 1,26,-1
 748 220 l 2,27,28
 812 220 812 220 859.5 225.5 c 128,-1,29
 907 231 907 231 954 247 c 128,-1,30
 1001 263 1001 263 1030.5 291 c 128,-1,31
 1060 319 1060 319 1078.5 366.5 c 128,-1,32
 1097 414 1097 414 1097 480 c 0,33,34
 1097 568 1097 568 1028 597 c 128,-1,35
 959 626 959 626 793 626 c 2,36,-1
 514 626 l 1,37,-1
 443 220 l 1,26,-1
EndSplineSet
EndChar

StartChar: C
Encoding: 67 67 39
Width: 1479
Flags: W
HStem: -13 220<653.535 1015.54> 1262 220<806.596 1202.22>
VStem: 215 248<409.4 863.868> 1318 240<1050 1152.36>
LayerCount: 3
Fore
SplineSet
824 207 m 3
 1003 207 1197 328 1243 480 c 1
 1483 480 l 1
 1363 201 1142 -13 789 -13 c 3
 418 -13 215 198 215 551 c 3
 215 1101 589 1482 1055 1482 c 3
 1361 1482 1533 1304 1558 1050 c 1
 1318 1050 l 1
 1299 1182 1188 1262 1013 1262 c 3
 703 1262 463 995 463 621 c 3
 463 377 601 207 824 207 c 3
EndSplineSet
Validated: 1
Layer: 2
SplineSet
824 207 m 3,0,1
 960 207 960 207 1084.5 287 c 128,-1,2
 1209 367 1209 367 1243 480 c 1,3,-1
 1483 480 l 1,4,5
 1436 372 1436 372 1372.5 285 c 128,-1,6
 1309 198 1309 198 1224.5 129.5 c 128,-1,7
 1140 61 1140 61 1029 24 c 128,-1,8
 918 -13 918 -13 789 -13 c 0,9,10
 513 -13 513 -13 364 135.5 c 128,-1,11
 215 284 215 284 215 551 c 0,12,13
 215 753 215 753 281 928 c 128,-1,14
 347 1103 347 1103 460 1223.5 c 128,-1,15
 573 1344 573 1344 727.5 1413 c 128,-1,16
 882 1482 882 1482 1055 1482 c 0,17,18
 1278 1482 1278 1482 1408.5 1364.5 c 128,-1,19
 1539 1247 1539 1247 1558 1050 c 1,20,-1
 1318 1050 l 1,21,22
 1304 1150 1304 1150 1224 1206 c 128,-1,23
 1144 1262 1144 1262 1013 1262 c 0,24,25
 779 1262 779 1262 621 1080.5 c 128,-1,26
 463 899 463 899 463 621 c 0,27,28
 463 436 463 436 561 321.5 c 128,-1,29
 659 207 659 207 824 207 c 3,0,1
EndSplineSet
EndChar

StartChar: D
Encoding: 68 68 40
Width: 1479
Flags: W
HStem: 0 220<447 917.21> 1230 220<625 1100.43>
VStem: 1282 248<603.275 1056.22>
DStem2: 168 0 408.208 0 0.173648 0.984808<265.106 1290.67>
LayerCount: 3
Fore
SplineSet
697 0 m 2
 168 0 l 1
 424 1450 l 1
 929 1450 l 2
 1388 1450 1530 1236 1530 946 c 3
 1530 261 1083 0 697 0 c 2
714 220 m 2
 1037 220 1282 481 1282 865 c 3
 1282 1100 1143 1230 887 1230 c 2
 625 1230 l 1
 447 220 l 1
 714 220 l 2
EndSplineSet
Validated: 1
Layer: 2
SplineSet
697 0 m 2,0,-1
 168 0 l 1,1,-1
 424 1450 l 1,2,-1
 929 1450 l 2,3,4
 1096 1450 1096 1450 1215.5 1413 c 128,-1,5
 1335 1376 1335 1376 1402.5 1306 c 128,-1,6
 1470 1236 1470 1236 1500 1148 c 128,-1,7
 1530 1060 1530 1060 1530 946 c 0,8,9
 1530 803 1530 803 1504 678 c 128,-1,10
 1478 553 1478 553 1432.5 458.5 c 128,-1,11
 1387 364 1387 364 1323.5 286.5 c 128,-1,12
 1260 209 1260 209 1187 156.5 c 128,-1,13
 1114 104 1114 104 1031 68 c 128,-1,14
 948 32 948 32 865 16 c 128,-1,15
 782 0 782 0 697 0 c 2,0,-1
714 220 m 2,16,17
 875 220 875 220 1004 300.5 c 128,-1,18
 1133 381 1133 381 1207.5 529 c 128,-1,19
 1282 677 1282 677 1282 865 c 0,20,21
 1282 1042 1282 1042 1180.5 1136 c 128,-1,22
 1079 1230 1079 1230 887 1230 c 2,23,-1
 625 1230 l 1,24,-1
 447 220 l 1,25,-1
 714 220 l 2,16,17
EndSplineSet
EndChar

StartChar: E
Encoding: 69 69 41
Width: 1320
Flags: W
HStem: 0 220<446 1227> 626 220<556 1136> 1230 220<624 1444>
DStem2: 167 0 407.208 0 0.173648 0.984808<265.106 677.266 900.696 1290.67>
LayerCount: 3
Fore
SplineSet
167 0 m 1
 423 1450 l 1
 1483 1450 l 1
 1444 1230 l 1
 624 1230 l 1
 556 846 l 1
 1175 846 l 1
 1136 626 l 1
 517 626 l 1
 446 220 l 1
 1266 220 l 1
 1227 0 l 1
 167 0 l 1
EndSplineSet
Validated: 1
Layer: 2
SplineSet
167 0 m 1,0,-1
 423 1450 l 1,1,-1
 1483 1450 l 1,2,-1
 1444 1230 l 1,3,-1
 624 1230 l 1,4,-1
 556 846 l 1,5,-1
 1175 846 l 1,6,-1
 1136 626 l 1,7,-1
 517 626 l 1,8,-1
 446 220 l 1,9,-1
 1266 220 l 1,10,-1
 1227 0 l 1,11,-1
 167 0 l 1,0,-1
EndSplineSet
EndChar

StartChar: F
Encoding: 70 70 42
Width: 1251
Flags: W
HStem: 0 21G<167 410.514> 626 220<556 1118> 1230 220<624 1375>
DStem2: 167 0 407 0 0.173648 0.984808<41.6756 677.266 900.696 1290.67>
LayerCount: 3
Fore
SplineSet
167 0 m 1
 423 1450 l 1
 1414 1450 l 1
 1375 1230 l 1
 624 1230 l 1
 556 846 l 1
 1157 846 l 1
 1118 626 l 1
 517 626 l 1
 407 0 l 1
 167 0 l 1
EndSplineSet
Validated: 1
Layer: 2
SplineSet
167 0 m 1,0,-1
 423 1450 l 1,1,-1
 1414 1450 l 1,2,-1
 1375 1230 l 1,3,-1
 624 1230 l 1,4,-1
 556 846 l 1,5,-1
 1157 846 l 1,6,-1
 1118 626 l 1,7,-1
 517 626 l 1,8,-1
 407 0 l 1,9,-1
 167 0 l 1,0,-1
EndSplineSet
EndChar

StartChar: G
Encoding: 71 71 43
Width: 1479
Flags: W
HStem: -13 220<642.776 1054.25> 464 220<1026 1246> 1262 220<823.653 1178.43>
VStem: 216 246<402.508 863.514>
LayerCount: 3
Fore
SplineSet
1013 1262 m 3
 742 1262 462 992 462 618 c 3
 462 382 590 207 824 207 c 3
 1027 207 1208 287 1246 464 c 1
 987 464 l 1
 1026 684 l 1
 1525 684 l 1
 1469 236 1227 -13 789 -13 c 3
 414 -13 216 211 216 557 c 3
 216 1098 584 1482 1055 1482 c 3
 1374 1482 1530 1300 1558 1050 c 1
 1300 1050 l 1
 1274 1167 1171 1262 1013 1262 c 3
EndSplineSet
Validated: 1
Layer: 2
SplineSet
1013 1262 m 3,0,1
 912 1262 912 1262 813 1213 c 128,-1,2
 714 1164 714 1164 636 1081 c 128,-1,3
 558 998 558 998 510 876 c 128,-1,4
 462 754 462 754 462 618 c 0,5,6
 462 436 462 436 557.5 321.5 c 128,-1,7
 653 207 653 207 824 207 c 0,8,9
 929 207 929 207 1015.5 233.5 c 128,-1,10
 1102 260 1102 260 1165 319.5 c 128,-1,11
 1228 379 1228 379 1246 464 c 1,12,-1
 987 464 l 1,13,-1
 1026 684 l 1,14,-1
 1525 684 l 1,15,16
 1482 344 1482 344 1298 165.5 c 128,-1,17
 1114 -13 1114 -13 789 -13 c 0,18,19
 513 -13 513 -13 364.5 139.5 c 128,-1,20
 216 292 216 292 216 557 c 0,21,22
 216 756 216 756 281 929 c 128,-1,23
 346 1102 346 1102 458.5 1223 c 128,-1,24
 571 1344 571 1344 725.5 1413 c 128,-1,25
 880 1482 880 1482 1055 1482 c 0,26,27
 1284 1482 1284 1482 1410 1365 c 128,-1,28
 1536 1248 1536 1248 1558 1050 c 1,29,-1
 1300 1050 l 1,30,31
 1280 1142 1280 1142 1203.5 1202 c 128,-1,32
 1127 1262 1127 1262 1013 1262 c 3,0,1
EndSplineSet
EndChar

StartChar: H
Encoding: 72 72 44
Width: 1479
Flags: W
HStem: 0 21G<164 407.518 1074 1317.53> 631 220<554 1185> 1430 20G<416.469 660 1326.46 1570>
DStem2: 164 0 404 0 0.173648 0.984808<41.6756 682.364 905.794 1472.43> 1074 0 1314 0 0.173648 0.984808<41.6756 640.689 864.119 1472.43>
LayerCount: 3
Fore
SplineSet
164 0 m 1
 420 1450 l 1
 660 1450 l 1
 554 851 l 1
 1224 851 l 1
 1330 1450 l 1
 1570 1450 l 1
 1314 0 l 1
 1074 0 l 1
 1185 631 l 1
 515 631 l 1
 404 0 l 1
 164 0 l 1
EndSplineSet
Validated: 1
Layer: 2
SplineSet
164 0 m 1,0,-1
 420 1450 l 1,1,-1
 660 1450 l 1,2,-1
 554 851 l 1,3,-1
 1224 851 l 1,4,-1
 1330 1450 l 1,5,-1
 1570 1450 l 1,6,-1
 1314 0 l 1,7,-1
 1074 0 l 1,8,-1
 1185 631 l 1,9,-1
 515 631 l 1,10,-1
 404 0 l 1,11,-1
 164 0 l 1,0,-1
EndSplineSet
EndChar

StartChar: I
Encoding: 73 73 45
Width: 650
Flags: W
HStem: 0 220<64 244 484 625> 1230 220<281 422 662 842>
DStem2: 205.208 0 445.208 0 0.173648 0.984808<265.069 1248.96>
LayerCount: 3
Fore
SplineSet
664 220 m 1
 625 0 l 1
 25 0 l 1
 64 220 l 1
 244 220 l 1
 422 1230 l 1
 242 1230 l 1
 281 1450 l 1
 881 1450 l 1
 842 1230 l 1
 662 1230 l 1
 484 220 l 1
 664 220 l 1
EndSplineSet
Validated: 1
Layer: 2
SplineSet
664 220 m 1,0,-1
 625 0 l 1,1,-1
 25 0 l 1,2,-1
 64 220 l 1,3,-1
 244 220 l 1,4,-1
 422 1230 l 1,5,-1
 242 1230 l 1,6,-1
 281 1450 l 1,7,-1
 881 1450 l 1,8,-1
 842 1230 l 1,9,-1
 662 1230 l 1,10,-1
 484 220 l 1,11,-1
 664 220 l 1,0,-1
EndSplineSet
EndChar

StartChar: J
Encoding: 74 74 46
Width: 1024
Flags: W
HStem: -13 220<415.278 609.866> 1230 220<664 842>
VStem: 130 249<244.426 455>
DStem2: 622.658 -13 862.303 -13 0.173648 0.984808<280.94 1262.2>
LayerCount: 3
Fore
SplineSet
504 207 m 3
 619 207 683 328 708 471 c 2
 842 1230 l 1
 625 1230 l 1
 664 1450 l 1
 1121 1450 l 1
 945 456 l 2
 885 116 704 -13 461 -13 c 3
 260 -13 130 76 130 309 c 3
 130 353 135 401 144 455 c 1
 384 455 l 1
 381 429 379 405 379 384 c 3
 379 247 446 207 504 207 c 3
EndSplineSet
Validated: 1
Layer: 2
SplineSet
504 207 m 3,0,1
 585 207 585 207 636.5 280.5 c 128,-1,2
 688 354 688 354 708 471 c 2,3,-1
 842 1230 l 1,4,-1
 625 1230 l 1,5,-1
 664 1450 l 1,6,-1
 1121 1450 l 1,7,-1
 945 456 l 2,8,9
 862 -13 862 -13 461 -13 c 0,10,11
 130 -13 130 -13 130 309 c 0,12,13
 130 371 130 371 144 455 c 1,14,-1
 384 455 l 1,15,16
 379 412 379 412 379 384 c 0,17,18
 379 290 379 290 416 248.5 c 128,-1,19
 453 207 453 207 504 207 c 3,0,1
EndSplineSet
EndChar

StartChar: K
Encoding: 75 75 47
Width: 1366
Flags: W
HStem: 0 21G<150 393.541 1037.75 1346> 1430 20G<402.469 646 1253.74 1572>
DStem2: 149.824 -1 389.824 -1 0.173648 0.984808<42.691 564.684 895.629 1473.44>
LayerCount: 3
Fore
SplineSet
150 0 m 1
 406 1450 l 1
 646 1450 l 1
 538 840 l 1
 1278 1450 l 1
 1572 1450 l 1
 801 806 l 1
 1346 0 l 1
 1053 -1 l 1
 587 610 l 1
 481 514 l 1
 390 0 l 1
 150 0 l 1
EndSplineSet
Validated: 1
Layer: 2
SplineSet
150 0 m 1,0,-1
 406 1450 l 1,1,-1
 646 1450 l 1,2,-1
 538 840 l 1,3,-1
 1278 1450 l 1,4,-1
 1572 1450 l 1,5,-1
 801 806 l 1,6,-1
 1346 0 l 1,7,-1
 1053 -1 l 1,8,-1
 587 610 l 1,9,-1
 481 514 l 1,10,-1
 390 0 l 1,11,-1
 150 0 l 1,0,-1
EndSplineSet
EndChar

StartChar: L
Encoding: 76 76 48
Width: 1139
Flags: W
HStem: 0 220<429 1060> 1430 20G<402.469 646>
DStem2: 150 0 390.208 0 0.173648 0.984808<265.106 1472.43>
LayerCount: 3
Fore
SplineSet
150 0 m 1
 406 1450 l 1
 646 1450 l 1
 429 220 l 1
 1099 220 l 1
 1060 0 l 1
 150 0 l 1
EndSplineSet
Validated: 1
Layer: 2
SplineSet
150 0 m 1,0,-1
 406 1450 l 1,1,-1
 646 1450 l 1,2,-1
 429 220 l 1,3,-1
 1099 220 l 1,4,-1
 1060 0 l 1,5,-1
 150 0 l 1,0,-1
EndSplineSet
EndChar

StartChar: M
Encoding: 77 77 49
Width: 1706
Flags: W
HStem: 0 21G<152 395.517 672.063 1036.97 1310 1553.53> 1430 20G<404.469 645.926 1561.02 1806>
DStem2: 152 0 392 0 0.173648 0.984808<41.6756 815.368> 887 202 526 762 0.192637 -0.98127<-619.053 0> 887 202 1026 0 0.481164 0.876631<0 758.921> 1310 0 1550 0 0.173648 0.984808<41.6756 773.692>
LayerCount: 3
Fore
SplineSet
152 0 m 1
 408 1450 l 1
 642 1450 l 1
 887 202 l 1
 1572 1450 l 1
 1806 1450 l 1
 1550 0 l 1
 1310 0 l 1
 1444 762 l 1
 1026 0 l 1
 676 0 l 1
 526 762 l 1
 392 0 l 1
 152 0 l 1
EndSplineSet
Validated: 1
Layer: 2
SplineSet
152 0 m 1,0,-1
 408 1450 l 1,1,-1
 642 1450 l 1,2,-1
 887 202 l 1,3,-1
 1572 1450 l 1,4,-1
 1806 1450 l 1,5,-1
 1550 0 l 1,6,-1
 1310 0 l 1,7,-1
 1444 762 l 1,8,-1
 1026 0 l 1,9,-1
 676 0 l 1,10,-1
 526 762 l 1,11,-1
 392 0 l 1,12,-1
 152 0 l 1,0,-1
EndSplineSet
EndChar

StartChar: N
Encoding: 78 78 50
Width: 1479
Flags: W
HStem: 0 21G<156 399.528 1060.68 1314.53> 1430 20G<408.469 662.255 1323.47 1567>
DStem2: 156 0 396 0 0.173648 0.984808<41.6756 1031.73> 652 1450 568 975 0.45628 -0.889836<384.345 1100.2> 1070.95 0 1311 0 0.173648 0.984808<478.266 1472.43>
LayerCount: 3
Fore
SplineSet
156 0 m 1
 412 1450 l 1
 652 1450 l 1
 1154 471 l 1
 1327 1450 l 1
 1567 1450 l 1
 1311 0 l 1
 1071 0 l 1
 568 975 l 1
 396 0 l 1
 156 0 l 1
EndSplineSet
Validated: 1
Layer: 2
SplineSet
156 0 m 1,0,-1
 412 1450 l 1,1,-1
 652 1450 l 1,2,-1
 1154 471 l 1,3,-1
 1327 1450 l 1,4,-1
 1567 1450 l 1,5,-1
 1311 0 l 1,6,-1
 1071 0 l 1,7,-1
 568 975 l 1,8,-1
 396 0 l 1,9,-1
 156 0 l 1,0,-1
EndSplineSet
EndChar

StartChar: O
Encoding: 79 79 51
Width: 1593
Flags: W
HStem: -13 220<632.718 1054.12> 1262 220<803.274 1223.96>
VStem: 215 242<378.017 867.129> 1399 243<603.627 1084.84>
LayerCount: 3
Fore
SplineSet
798 -13 m 3
 429 -13 215 213 215 554 c 3
 215 1114 591 1482 1062 1482 c 3
 1434 1482 1642 1262 1642 912 c 3
 1642 366 1279 -13 798 -13 c 3
1026 1262 m 3
 630 1262 457 933 457 577 c 3
 457 346 585 207 836 207 c 3
 1243 207 1399 548 1399 880 c 3
 1399 1116 1277 1262 1026 1262 c 3
EndSplineSet
Validated: 1
Layer: 2
SplineSet
798 -13 m 3,0,1
 525 -13 525 -13 370 141 c 128,-1,2
 215 295 215 295 215 554 c 0,3,4
 215 760 215 760 281.5 934.5 c 128,-1,5
 348 1109 348 1109 462 1228.5 c 128,-1,6
 576 1348 576 1348 731 1415 c 128,-1,7
 886 1482 886 1482 1062 1482 c 0,8,9
 1338 1482 1338 1482 1490 1329.5 c 128,-1,10
 1642 1177 1642 1177 1642 912 c 0,11,12
 1642 711 1642 711 1577.5 538 c 128,-1,13
 1513 365 1513 365 1400.5 244.5 c 128,-1,14
 1288 124 1288 124 1132 55.5 c 128,-1,15
 976 -13 976 -13 798 -13 c 3,0,1
1026 1262 m 3,16,17
 911 1262 911 1262 815.5 1225 c 128,-1,18
 720 1188 720 1188 654.5 1123.5 c 128,-1,19
 589 1059 589 1059 544 971.5 c 128,-1,20
 499 884 499 884 478 785 c 128,-1,21
 457 686 457 686 457 577 c 0,22,23
 457 401 457 401 553.5 304 c 128,-1,24
 650 207 650 207 836 207 c 0,25,26
 954 207 954 207 1050.5 245.5 c 128,-1,27
 1147 284 1147 284 1210.5 348 c 128,-1,28
 1274 412 1274 412 1317.5 499.5 c 128,-1,29
 1361 587 1361 587 1380 682 c 128,-1,30
 1399 777 1399 777 1399 880 c 0,31,32
 1399 1061 1399 1061 1305 1161.5 c 128,-1,33
 1211 1262 1211 1262 1026 1262 c 3,16,17
EndSplineSet
EndChar

StartChar: P
Encoding: 80 80 52
Width: 1366
Flags: W
HStem: 0 21G<158 401.517> 580 220<539 1083.34> 1230 220<615 1152.12>
VStem: 1221 247<918.883 1166.22>
DStem2: 158 0 398 0 0.173648 0.984808<41.6756 630.576 854.006 1290.67>
LayerCount: 3
Fore
SplineSet
830 580 m 2
 500 580 l 1
 398 0 l 1
 158 0 l 1
 414 1450 l 1
 967 1450 l 2
 1341 1450 1468 1325 1468 1129 c 3
 1468 704 1129 580 830 580 c 2
1221 1064 m 3
 1221 1195 1096 1230 904 1230 c 2
 615 1230 l 1
 539 800 l 1
 832 800 l 2
 1111 800 1221 896 1221 1064 c 3
EndSplineSet
Validated: 1
Layer: 2
SplineSet
830 580 m 2,0,-1
 500 580 l 1,1,-1
 398 0 l 1,2,-1
 158 0 l 1,3,-1
 414 1450 l 1,4,-1
 967 1450 l 2,5,6
 1235 1450 1235 1450 1351.5 1367.5 c 128,-1,7
 1468 1285 1468 1285 1468 1129 c 0,8,9
 1468 1006 1468 1006 1430 909 c 128,-1,10
 1392 812 1392 812 1330 751.5 c 128,-1,11
 1268 691 1268 691 1183 651.5 c 128,-1,12
 1098 612 1098 612 1011.5 596 c 128,-1,13
 925 580 925 580 830 580 c 2,0,-1
1221 1064 m 3,14,15
 1221 1157 1221 1157 1140.5 1193.5 c 128,-1,16
 1060 1230 1060 1230 904 1230 c 2,17,-1
 615 1230 l 1,18,-1
 539 800 l 1,19,-1
 832 800 l 2,20,21
 1035 800 1035 800 1128 867 c 128,-1,22
 1221 934 1221 934 1221 1064 c 3,14,15
EndSplineSet
EndChar

StartChar: Q
Encoding: 81 81 53
Width: 1659
Flags: W
HStem: -13 220<778.95 1054.82 1362.19 1566.93> 341 220<844.045 1072.2> 1262 220<801.672 1227.01>
VStem: 216 243<414.888 858.261> 1400 242<621.596 1094.09>
LayerCount: 3
Fore
SplineSet
1244 435 m 1
 1325 482 1400 703 1400 887 c 3
 1400 1124 1273 1262 1025 1262 c 3
 635 1262 459 940 459 596 c 3
 459 425 535 338 617 323 c 1
 680 467 846 561 993 561 c 3
 1157 561 1229 455 1244 435 c 1
1062 1482 m 3
 1434 1482 1642 1259 1642 912 c 3
 1642 590 1516 360 1361 247 c 1
 1375 228 1395 207 1428 207 c 3
 1467 207 1529 224 1579 260 c 1
 1675 90 l 1
 1589 21 1496 -13 1397 -13 c 3
 1289 -13 1213 27 1172 88 c 1
 1041 11 932 -13 798 -13 c 3
 429 -13 216 216 216 557 c 3
 216 1022 520 1482 1062 1482 c 3
1097 269 m 1
 1065 316 1025 341 974 341 c 3
 916 341 825 315 776 217 c 1
 799 210 827 207 858 207 c 3
 969 207 1057 242 1097 269 c 1
EndSplineSet
Validated: 1
Layer: 2
SplineSet
1244 435 m 1,0,1
 1304 470 1304 470 1352 609 c 128,-1,2
 1400 748 1400 748 1400 887 c 0,3,4
 1400 1067 1400 1067 1304.5 1164.5 c 128,-1,5
 1209 1262 1209 1262 1025 1262 c 0,6,7
 911 1262 911 1262 816.5 1225.5 c 128,-1,8
 722 1189 722 1189 657 1126.5 c 128,-1,9
 592 1064 592 1064 546.5 979 c 128,-1,10
 501 894 501 894 480 797.5 c 128,-1,11
 459 701 459 701 459 596 c 0,12,13
 459 475 459 475 504.5 405 c 128,-1,14
 550 335 550 335 617 323 c 1,15,16
 663 428 663 428 771.5 494.5 c 128,-1,17
 880 561 880 561 993 561 c 0,18,19
 1150 561 1150 561 1244 435 c 1,0,1
1062 1482 m 3,20,21
 1338 1482 1338 1482 1490 1329 c 128,-1,22
 1642 1176 1642 1176 1642 912 c 0,23,24
 1642 682 1642 682 1563.5 510 c 128,-1,25
 1485 338 1485 338 1361 247 c 1,26,27
 1390 207 1390 207 1428 207 c 0,28,29
 1505 207 1505 207 1579 260 c 1,30,-1
 1675 90 l 1,31,32
 1547 -13 1547 -13 1397 -13 c 0,33,34
 1240 -13 1240 -13 1172 88 c 1,35,36
 1077 32 1077 32 990 9.5 c 128,-1,37
 903 -13 903 -13 798 -13 c 0,38,39
 525 -13 525 -13 370.5 142.5 c 128,-1,40
 216 298 216 298 216 557 c 0,41,42
 216 697 216 697 251.5 831.5 c 128,-1,43
 287 966 287 966 358.5 1083.5 c 128,-1,44
 430 1201 430 1201 529.5 1290 c 128,-1,45
 629 1379 629 1379 766.5 1430.5 c 128,-1,46
 904 1482 904 1482 1062 1482 c 3,20,21
1097 269 m 1,47,48
 1048 341 1048 341 974 341 c 0,49,50
 920 341 920 341 864.5 312 c 128,-1,51
 809 283 809 283 776 217 c 1,52,53
 809 207 809 207 858 207 c 0,54,55
 934 207 934 207 997.5 226 c 128,-1,56
 1061 245 1061 245 1097 269 c 1,47,48
EndSplineSet
EndChar

StartChar: R
Encoding: 82 82 54
Width: 1400
Flags: W
HStem: 0 21G<158 401.517 1061.41 1387> 580 220<539 765> 1230 220<615 1149.3>
VStem: 1222 245<922.766 1164.16>
DStem2: 158 0 398 0 0.173648 0.984808<41.6756 630.576 854.006 1290.67>
LayerCount: 3
Fore
SplineSet
1029 596 m 1
 1387 0 l 1
 1072 0 l 1
 765 580 l 1
 500 580 l 1
 398 0 l 1
 158 0 l 1
 414 1450 l 1
 967 1450 l 2
 1337 1450 1467 1324 1467 1126 c 3
 1467 717 1127 613 1029 596 c 1
1222 1065 m 3
 1222 1191 1094 1230 904 1230 c 2
 615 1230 l 1
 539 800 l 1
 832 800 l 2
 1103 800 1222 899 1222 1065 c 3
EndSplineSet
Validated: 1
Layer: 2
SplineSet
1029 596 m 1,0,-1
 1387 0 l 1,1,-1
 1072 0 l 1,2,-1
 765 580 l 1,3,-1
 500 580 l 1,4,-1
 398 0 l 1,5,-1
 158 0 l 1,6,-1
 414 1450 l 1,7,-1
 967 1450 l 2,8,9
 1233 1450 1233 1450 1350 1366.5 c 128,-1,10
 1467 1283 1467 1283 1467 1126 c 0,11,12
 1467 1042 1467 1042 1447.5 969 c 128,-1,13
 1428 896 1428 896 1397.5 845 c 128,-1,14
 1367 794 1367 794 1325 751.5 c 128,-1,15
 1283 709 1283 709 1242.5 683 c 128,-1,16
 1202 657 1202 657 1158 637.5 c 128,-1,17
 1114 618 1114 618 1084.5 609 c 128,-1,18
 1055 600 1055 600 1029 596 c 1,0,-1
1222 1065 m 3,19,20
 1222 1155 1222 1155 1139.5 1192.5 c 128,-1,21
 1057 1230 1057 1230 904 1230 c 2,22,-1
 615 1230 l 1,23,-1
 539 800 l 1,24,-1
 832 800 l 2,25,26
 1222 800 1222 800 1222 1065 c 3,19,20
EndSplineSet
EndChar

StartChar: S
Encoding: 83 83 55
Width: 1366
Flags: W
HStem: -13 220<546.105 957.592> 1262 220<687.349 1066.2>
VStem: 173 247<322.311 502> 329 246<969.679 1167.17> 1096 247<326.199 538.288> 1155 240<1019 1169.42>
LayerCount: 3
Fore
SplineSet
895 1262 m 3xd4
 744 1262 575 1206 575 1046 c 3xd4
 575 956 666 928 1017 816 c 0
 1196 759 1343 703 1343 512 c 3
 1343 179 1031 -13 715 -13 c 3
 274 -13 173 209 173 405 c 3
 173 439 176 471 181 502 c 1
 421 502 l 1
 420 491 420 481 420 471 c 3
 420 234 642 207 744 207 c 3
 955 207 1096 307 1096 451 c 3xe8
 1096 547 1008 580 716 667 c 0
 550 717 329 766 329 994 c 3
 329 1307 621 1482 925 1482 c 3
 1257 1482 1395 1309 1395 1019 c 1
 1155 1019 l 1
 1155 1174 1074 1262 895 1262 c 3xd4
EndSplineSet
Validated: 1
Layer: 2
SplineSet
895 1262 m 3,0,1
 835 1262 835 1262 780.5 1250.5 c 128,-1,2
 726 1239 726 1239 678.5 1214.5 c 128,-1,3
 631 1190 631 1190 603 1146.5 c 128,-1,4
 575 1103 575 1103 575 1046 c 0,5,6
 575 983 575 983 650.5 946 c 128,-1,7
 726 909 726 909 1005.14047294 819.783970119 c 0,8,9
 1013 817 1013 817 1017 816 c 0,10,11
 1082 795 1082 795 1121 780.5 c 128,-1,12
 1160 766 1160 766 1207.5 740 c 128,-1,13
 1255 714 1255 714 1281 685 c 128,-1,14
 1307 656 1307 656 1325 612 c 128,-1,15
 1343 568 1343 568 1343 512 c 0,16,17
 1343 391 1343 391 1289.5 290 c 128,-1,18
 1236 189 1236 189 1147.5 124 c 128,-1,19
 1059 59 1059 59 947 23 c 128,-1,20
 835 -13 835 -13 715 -13 c 0,21,22
 588 -13 588 -13 490 12 c 128,-1,23
 392 37 392 37 333 77 c 128,-1,24
 274 117 274 117 237 173.5 c 128,-1,25
 200 230 200 230 186.5 285.5 c 128,-1,26
 173 341 173 341 173 405 c 0,27,28
 173 452 173 452 181 502 c 1,29,-1
 421 502 l 1,30,31
 420 491 420 491 420 471 c 0,32,33
 420 414 420 414 436.5 369.5 c 128,-1,34
 453 325 453 325 482 297 c 128,-1,35
 511 269 511 269 543.5 250 c 128,-1,36
 576 231 576 231 615 222.5 c 128,-1,37
 654 214 654 214 684 210.5 c 128,-1,38
 714 207 714 207 744 207 c 0,39,40
 902 207 902 207 999 275 c 128,-1,41
 1096 343 1096 343 1096 451 c 0,42,43
 1096 520 1096 520 1023 558.5 c 128,-1,44
 950 597 950 597 716 667 c 0,45,46
 570.745624718 710.751317856 570.745624718 710.751317856 527.318238356 729.392611754 c 0,47,48
 371.919347649 796.097901566 371.919347649 796.097901566 338.885502994 916.301393093 c 0,49,50
 329 952.272742713 329 952.272742713 329 994 c 0,51,52
 329 1085 329 1085 361.5 1164.5 c 128,-1,53
 394 1244 394 1244 451 1301.5 c 128,-1,54
 508 1359 508 1359 583.5 1400 c 128,-1,55
 659 1441 659 1441 746 1461.5 c 128,-1,56
 833 1482 833 1482 925 1482 c 0,57,58
 1395 1482 1395 1482 1395 1019 c 1,59,-1
 1155 1019 l 1,60,61
 1155 1262 1155 1262 895 1262 c 3,0,1
EndSplineSet
EndChar

StartChar: T
Encoding: 84 84 56
Width: 1251
Flags: W
HStem: 0 21G<508 751.528> 1230 220<304 725 965 1427>
DStem2: 508 0 748 0 0.173648 0.984808<41.6756 1249>
LayerCount: 3
Fore
SplineSet
508 0 m 1
 725 1230 l 1
 265 1230 l 1
 304 1450 l 1
 1466 1450 l 1
 1427 1230 l 1
 965 1230 l 1
 748 0 l 1
 508 0 l 1
EndSplineSet
Validated: 1
Layer: 2
SplineSet
508 0 m 1,0,-1
 725 1230 l 1,1,-1
 265 1230 l 1,2,-1
 304 1450 l 1,3,-1
 1466 1450 l 1,4,-1
 1427 1230 l 1,5,-1
 965 1230 l 1,6,-1
 748 0 l 1,7,-1
 508 0 l 1,0,-1
EndSplineSet
EndChar

StartChar: U
Encoding: 85 85 57
Width: 1479
Flags: W
HStem: -13 220<594.613 970.222> 1430 20G<413.456 657 1326.46 1570>
VStem: 244 247<306.9 716.281>
DStem2: 158.259 -13 398.259 -13 0.173648 0.984808<530.89 1485.7> 1071.26 -13 1311.26 -13 0.173648 0.984808<367.361 1485.7>
LayerCount: 3
Fore
SplineSet
774 207 m 3
 999 207 1132 332 1173 564 c 2
 1330 1450 l 1
 1570 1450 l 1
 1413 564 l 2
 1345 179 1121 -13 739 -13 c 3
 360 -13 244 169 244 402 c 3
 244 454 250 508 260 564 c 2
 417 1450 l 1
 657 1450 l 1
 500 564 l 2
 494 529 491 496 491 466 c 3
 491 290 595 207 774 207 c 3
EndSplineSet
Validated: 1
Layer: 2
SplineSet
774 207 m 3,0,1
 942 207 942 207 1042 298 c 128,-1,2
 1142 389 1142 389 1173 564 c 2,3,-1
 1330 1450 l 1,4,-1
 1570 1450 l 1,5,-1
 1413 564 l 2,6,7
 1311 -13 1311 -13 739 -13 c 0,8,9
 244 -13 244 -13 244 402 c 0,10,11
 244 474 244 474 260 564 c 2,12,-1
 417 1450 l 1,13,-1
 657 1450 l 1,14,-1
 500 564 l 2,15,16
 491 512 491 512 491 466 c 0,17,18
 491 336 491 336 564 271.5 c 128,-1,19
 637 207 637 207 774 207 c 3,0,1
EndSplineSet
EndChar

StartChar: V
Encoding: 86 86 58
Width: 1366
Flags: W
HStem: 0 21G<572.697 787.448> 1430 20G<265 603.269 1268.4 1606>
LayerCount: 3
Fore
SplineSet
577 0 m 1
 265 1450 l 1
 600 1450 l 1
 760 471 l 1
 1279 1450 l 1
 1606 1450 l 1
 776 0 l 1
 577 0 l 1
EndSplineSet
Validated: 1
Layer: 2
SplineSet
577 0 m 1,0,-1
 265 1450 l 1,1,-1
 600 1450 l 1,2,-1
 760 471 l 1,3,-1
 1279 1450 l 1,4,-1
 1606 1450 l 1,5,-1
 776 0 l 1,6,-1
 577 0 l 1,0,-1
EndSplineSet
EndChar

StartChar: W
Encoding: 87 87 59
Width: 1933
Flags: W
HStem: 0 21G<364.828 628.39 1295.76 1574.1> 1430 20G<281 536.504 1067.84 1351.29 1873.82 2153>
DStem2: 535 1450 281 1450 0.0585202 -0.998286<0 933.501> 605 519 618 0 0.461017 0.887391<0 671.209> 1348 1450 1137 999 0.160071 -0.987105<411.41 943.486> 1501 519 1566 0 0.375245 0.926926<0 1005.94>
LayerCount: 3
Fore
SplineSet
366 0 m 1
 281 1450 l 1
 535 1450 l 1
 605 519 l 1
 1078 1450 l 1
 1348 1450 l 1
 1501 519 l 1
 1882 1450 l 1
 2153 1450 l 1
 1566 0 l 1
 1299 0 l 1
 1137 999 l 1
 618 0 l 1
 366 0 l 1
EndSplineSet
Validated: 1
Layer: 2
SplineSet
366 0 m 1,0,-1
 281 1450 l 1,1,-1
 535 1450 l 1,2,-1
 605 519 l 1,3,-1
 1078 1450 l 1,4,-1
 1348 1450 l 1,5,-1
 1501 519 l 1,6,-1
 1882 1450 l 1,7,-1
 2153 1450 l 1,8,-1
 1566 0 l 1,9,-1
 1299 0 l 1,10,-1
 1137 999 l 1,11,-1
 618 0 l 1,12,-1
 366 0 l 1,0,-1
EndSplineSet
EndChar

StartChar: X
Encoding: 88 88 60
Width: 1366
Flags: W
HStem: 0 21G<9 335.838 1033.22 1353> 1430 20G<332 650.787 1241.97 1569>
DStem2: 9 0 319 0 0.632903 0.774231<196.2 907.251> 642 1450 332 1450 0.391197 -0.920307<0 522.058> 1001 756 777 544 0.422098 -0.90655<97.6388 703.08> 852 972 1001 756 0.633359 0.773858<0 627.681>
LayerCount: 3
Fore
SplineSet
9 0 m 1
 627 756 l 1
 332 1450 l 1
 642 1450 l 1
 852 972 l 1
 1259 1450 l 1
 1569 1450 l 1
 1001 756 l 1
 1353 0 l 1
 1043 0 l 1
 777 544 l 1
 319 0 l 1
 9 0 l 1
EndSplineSet
Validated: 1
Layer: 2
SplineSet
9 0 m 1,0,-1
 627 756 l 1,1,-1
 332 1450 l 1,2,-1
 642 1450 l 1,3,-1
 852 972 l 1,4,-1
 1259 1450 l 1,5,-1
 1569 1450 l 1,6,-1
 1001 756 l 1,7,-1
 1353 0 l 1,8,-1
 1043 0 l 1,9,-1
 777 544 l 1,10,-1
 319 0 l 1,11,-1
 9 0 l 1,0,-1
EndSplineSet
EndChar

StartChar: Y
Encoding: 89 89 61
Width: 1366
Flags: W
HStem: 0 21G<548 791.51> 1431 20G<262 569.362 1290.84 1606>
DStem2: 560 1451 262 1451 0.429722 -0.902961<0 622.717> 548 0 788 0 0.173648 0.984808<41.6756 630.493> 824 887 897 621 0.649508 0.760355<0 743.202>
LayerCount: 3
Fore
SplineSet
548 0 m 1
 657 621 l 1
 262 1451 l 1
 560 1451 l 1
 824 887 l 1
 1308 1451 l 1
 1606 1451 l 1
 897 621 l 1
 788 0 l 1
 548 0 l 1
EndSplineSet
Validated: 1
Layer: 2
SplineSet
548 0 m 1,0,-1
 657 621 l 1,1,-1
 262 1451 l 1,2,-1
 560 1451 l 1,3,-1
 824 887 l 1,4,-1
 1308 1451 l 1,5,-1
 1606 1451 l 1,6,-1
 897 621 l 1,7,-1
 788 0 l 1,8,-1
 548 0 l 1,0,-1
EndSplineSet
EndChar

StartChar: Z
Encoding: 90 90 62
Width: 1251
Flags: W
HStem: 0 220<414 1200> 1230 220<301 1102>
DStem2: 81 227 414 220 0.709198 0.70501<231.228 1431.22>
LayerCount: 3
Fore
SplineSet
41 0 m 1
 81 227 l 1
 1102 1230 l 1
 262 1230 l 1
 301 1450 l 1
 1469 1450 l 1
 1430 1230 l 1
 414 220 l 1
 1239 220 l 1
 1200 0 l 1
 41 0 l 1
EndSplineSet
Validated: 1
Layer: 2
SplineSet
41 0 m 1,0,-1
 81 227 l 1,1,-1
 1102 1230 l 1,2,-1
 262 1230 l 1,3,-1
 301 1450 l 1,4,-1
 1469 1450 l 1,5,-1
 1430 1230 l 1,6,-1
 414 220 l 1,7,-1
 1239 220 l 1,8,-1
 1200 0 l 1,9,-1
 41 0 l 1,0,-1
EndSplineSet
EndChar

StartChar: bracketleft
Encoding: 91 91 63
Width: 569
Flags: W
HStem: -407 200<322 464> 1266 200<582 759>
DStem2: 67 -407 286.735 -407 0.173648 0.984808<241.242 1737.01>
LayerCount: 3
Fore
SplineSet
67 -407 m 1
 397 1466 l 1
 794 1466 l 1
 759 1266 l 1
 582 1266 l 1
 322 -207 l 1
 500 -207 l 1
 464 -407 l 1
 67 -407 l 1
EndSplineSet
Validated: 1
Layer: 2
SplineSet
67 -407 m 1,0,-1
 397 1466 l 1,1,-1
 794 1466 l 1,2,-1
 759 1266 l 1,3,-1
 582 1266 l 1,4,-1
 322 -207 l 1,5,-1
 500 -207 l 1,6,-1
 464 -407 l 1,7,-1
 67 -407 l 1,0,-1
EndSplineSet
EndChar

StartChar: backslash
Encoding: 92 92 64
Width: 569
Flags: W
VStem: 224 381
DStem2: 448 1491 224 1491 0.10366 -0.994613<0 1500.99>
LayerCount: 3
Fore
SplineSet
382 -25 m 1
 224 1491 l 1
 448 1491 l 1
 605 -25 l 1
 382 -25 l 1
EndSplineSet
Validated: 1
Layer: 2
SplineSet
382 -25 m 1,0,-1
 224 1491 l 1,1,-1
 448 1491 l 1,2,-1
 605 -25 l 1,3,-1
 382 -25 l 1,0,-1
EndSplineSet
EndChar

StartChar: bracketright
Encoding: 93 93 65
Width: 569
Flags: W
HStem: -407 200<-4 174> 1266 200<291 433>
DStem2: 138.735 -407 358 -407 0.173648 0.984808<203.085 1698.68>
LayerCount: 3
Fore
SplineSet
358 -407 m 1
 -39 -407 l 1
 -4 -207 l 1
 174 -207 l 1
 433 1266 l 1
 256 1266 l 1
 291 1466 l 1
 688 1466 l 1
 358 -407 l 1
EndSplineSet
Validated: 1
Layer: 2
SplineSet
358 -407 m 1,0,-1
 -39 -407 l 1,1,-1
 -4 -207 l 1,2,-1
 174 -207 l 1,3,-1
 433 1266 l 1,4,-1
 256 1266 l 1,5,-1
 291 1466 l 1,6,-1
 688 1466 l 1,7,-1
 358 -407 l 1,0,-1
EndSplineSet
EndChar

StartChar: asciicircum
Encoding: 94 94 66
Width: 961
Flags: W
DStem2: 176 690 410 690 0.509272 0.860606<119.17 709.439>
LayerCount: 3
Fore
SplineSet
410 690 m 1
 176 690 l 1
 650 1491 l 1
 835 1491 l 1
 1029 690 l 1
 798 690 l 1
 692 1209 l 1
 410 690 l 1
EndSplineSet
Validated: 1
Layer: 2
SplineSet
410 690 m 1,0,-1
 176 690 l 1,1,-1
 650 1491 l 1,2,-1
 835 1491 l 1,3,-1
 1029 690 l 1,4,-1
 798 690 l 1,5,-1
 692 1209 l 1,6,-1
 410 690 l 1,0,-1
EndSplineSet
EndChar

StartChar: underscore
Encoding: 95 95 67
Width: 1139
Flags: W
HStem: -427 200<-71 1087>
LayerCount: 3
Fore
SplineSet
-106 -427 m 1
 -71 -227 l 1
 1122 -227 l 1
 1087 -427 l 1
 -106 -427 l 1
EndSplineSet
Validated: 1
Layer: 2
SplineSet
-106 -427 m 1,0,-1
 -71 -227 l 1,1,-1
 1122 -227 l 1,2,-1
 1087 -427 l 1,3,-1
 -106 -427 l 1,0,-1
EndSplineSet
EndChar

StartChar: grave
Encoding: 96 96 68
Width: 682
Flags: W
HStem: 1194 280<502 620>
VStem: 320 386
LayerCount: 3
Fore
SplineSet
706 1194 m 1
 502 1194 l 1
 320 1474 l 1
 620 1474 l 1
 706 1194 l 1
EndSplineSet
Validated: 1
Layer: 2
SplineSet
706 1194 m 1,0,-1
 502 1194 l 1,1,-1
 320 1474 l 1,2,-1
 620 1474 l 1,3,-1
 706 1194 l 1,0,-1
EndSplineSet
EndChar

StartChar: a
Encoding: 97 97 69
Width: 1139
Flags: W
HStem: 0 187<369.908 718.041> 895 200<554.847 868.934>
VStem: 120 226<217.489 380.585> 808 221<1.40518 152.5> 903 228<689.086 856.374>
LayerCount: 3
Fore
SplineSet
1073 445 m 2xe8
 1044 276 1029 185 1029 120 c 3
 1029 73 1037 39 1052 0 c 1
 814 0 l 1
 810 21 808 44 808 66 c 3xf0
 808 76 808 86 809 96 c 1
 686 6 577 -13 435 -13 c 3
 187 -13 120 118 120 234 c 3
 120 479 329 599 604 633 c 0
 714 646 813 666 899 695 c 1
 901 713 903 730 903 746 c 3
 903 851 846 895 716 895 c 3
 580 895 486 818 448 738 c 1
 240 768 l 1
 326 991 497 1095 777 1095 c 3
 1011 1095 1131 1040 1131 834 c 3
 1131 793 1126 747 1117 694 c 2
 1073 445 l 2xe8
346 289 m 3
 346 208 450 187 520 187 c 3
 708 187 821 262 853 444 c 2
 862 495 l 1
 631 416 346 474 346 289 c 3
EndSplineSet
Validated: 1
Layer: 2
SplineSet
1073 445 m 1,0,1
 1029 189 1029 189 1029 120 c 0,2,3
 1029 60 1029 60 1052 0 c 1,4,-1
 814 0 l 1,5,6
 808 32 808 32 808 66 c 0,7,8
 808 86 808 86 809 96 c 1,9,10
 722 32 722 32 636.5 9.5 c 128,-1,11
 551 -13 551 -13 435 -13 c 0,12,13
 363 -13 363 -13 307 2 c 128,-1,14
 251 17 251 17 216.5 40.5 c 128,-1,15
 182 64 182 64 159.5 97 c 128,-1,16
 137 130 137 130 128.5 163.5 c 128,-1,17
 120 197 120 197 120 234 c 0,18,19
 120 323 120 323 156.5 394 c 128,-1,20
 193 465 193 465 259.5 513 c 128,-1,21
 326 561 326 561 412 590.5 c 128,-1,22
 498 620 498 620 604 633 c 0,23,24
 775 653 775 653 899 695 c 1,25,26
 903 731 903 731 903 746 c 0,27,28
 903 824 903 824 858.5 859.5 c 128,-1,29
 814 895 814 895 716 895 c 0,30,31
 620 895 620 895 549.5 849.5 c 128,-1,32
 479 804 479 804 448 738 c 1,33,-1
 240 768 l 1,34,35
 304 935 304 935 435.5 1015 c 128,-1,36
 567 1095 567 1095 777 1095 c 0,37,38
 962 1095 962 1095 1046.5 1038.5 c 128,-1,39
 1131 982 1131 982 1131 834 c 0,40,41
 1131 776 1131 776 1117 694 c 2,42,-1
 1073 445 l 1,0,1
346 289 m 3,43,44
 346 251 346 251 376.5 227 c 128,-1,45
 407 203 407 203 443 195 c 128,-1,46
 479 187 479 187 520 187 c 0,47,48
 664 187 664 187 746.5 248.5 c 128,-1,49
 829 310 829 310 853 444 c 2,50,-1
 862 495 l 1,51,52
 803 475 803 475 721.5 462 c 128,-1,53
 640 449 640 449 579.5 441.5 c 128,-1,54
 519 434 519 434 462.5 419.5 c 128,-1,55
 406 405 406 405 376 373.5 c 128,-1,56
 346 342 346 342 346 289 c 3,43,44
EndSplineSet
EndChar

StartChar: b
Encoding: 98 98 70
Width: 1139
Flags: W
HStem: -13 200<504.743 754.078> 895 200<630.035 877.511> 1446 20G<388.48 612>
VStem: 943 222<425.616 826.884>
DStem2: 131.708 -13 338.708 -13 0.173648 0.984808<49.1457 134.474 484.404 800.157 1056.75 1501.73>
LayerCount: 3
Fore
SplineSet
594 -13 m 3
 443 -13 370 67 356 84 c 1
 341 0 l 1
 134 0 l 1
 392 1466 l 1
 612 1466 l 1
 529 990 l 1
 618 1054 711 1095 798 1095 c 3
 1040 1095 1165 928 1165 689 c 3
 1165 289 921 -13 594 -13 c 3
749 895 m 3
 607 895 486 748 451 549 c 0
 443 501 439 459 439 423 c 3
 439 231 543 187 617 187 c 3
 803 187 943 395 943 666 c 3
 943 805 887 895 749 895 c 3
EndSplineSet
Validated: 1
Layer: 2
SplineSet
594 -13 m 3,0,1
 542 -13 542 -13 496.5 -1 c 128,-1,2
 451 11 451 11 422 30 c 128,-1,3
 393 49 393 49 379 61 c 128,-1,4
 365 73 365 73 356 84 c 1,5,-1
 341 0 l 1,6,-1
 134 0 l 1,7,-1
 392 1466 l 1,8,-1
 612 1466 l 1,9,-1
 529 990 l 1,10,11
 675 1095 675 1095 798 1095 c 0,12,13
 975 1095 975 1095 1070 984.5 c 128,-1,14
 1165 874 1165 874 1165 689 c 0,15,16
 1165 492 1165 492 1091 331 c 128,-1,17
 1017 170 1017 170 886 78.5 c 128,-1,18
 755 -13 755 -13 594 -13 c 3,0,1
749 895 m 3,19,20
 643 895 643 895 560.5 797.5 c 128,-1,21
 478 700 478 700 451 549 c 0,22,23
 439 477 439 477 439 423 c 0,24,25
 439 355 439 355 456 306 c 128,-1,26
 473 257 473 257 501 232.5 c 128,-1,27
 529 208 529 208 557.5 197.5 c 128,-1,28
 586 187 586 187 617 187 c 0,29,30
 756 187 756 187 849.5 324.5 c 128,-1,31
 943 462 943 462 943 666 c 0,32,33
 943 895 943 895 749 895 c 3,19,20
EndSplineSet
EndChar

StartChar: c
Encoding: 99 99 71
Width: 1024
Flags: W
HStem: -13 200<460.983 753.99> 895 200<574.447 852.127>
VStem: 161 223<267.175 658.953> 856 220<300.406 403> 911 222<696 840.391>
LayerCount: 3
Fore
SplineSet
594 187 m 3xe8
 734 187 827 256 856 403 c 1
 1076 403 l 1xf0
 1005 62 738 -13 561 -13 c 3
 310 -13 161 146 161 399 c 3
 161 787 414 1095 757 1095 c 3
 989 1095 1133 964 1133 771 c 3
 1133 747 1131 722 1126 696 c 1
 908 696 l 1
 910 707 911 718 911 728 c 3
 911 828 830 895 729 895 c 3
 490 895 384 644 384 432 c 3
 384 286 451 187 594 187 c 3xe8
EndSplineSet
Validated: 1
Layer: 2
SplineSet
594 187 m 3,0,1
 813 187 813 187 856 403 c 1,2,-1
 1076 403 l 1,3,4
 1056 305 1056 305 1012 229 c 128,-1,5
 968 153 968 153 915.5 108.5 c 128,-1,6
 863 64 863 64 798 35.5 c 128,-1,7
 733 7 733 7 676 -3 c 128,-1,8
 619 -13 619 -13 561 -13 c 0,9,10
 374 -13 374 -13 267.5 97.5 c 128,-1,11
 161 208 161 208 161 399 c 0,12,13
 161 543 161 543 206.5 671.5 c 128,-1,14
 252 800 252 800 330 893 c 128,-1,15
 408 986 408 986 519.5 1040.5 c 128,-1,16
 631 1095 631 1095 757 1095 c 0,17,18
 930 1095 930 1095 1031.5 1006 c 128,-1,19
 1133 917 1133 917 1133 771 c 0,20,21
 1133 732 1133 732 1126 696 c 1,22,-1
 908 696 l 1,23,24
 911 712 911 712 911 728 c 0,25,26
 911 802 911 802 858.5 848.5 c 128,-1,27
 806 895 806 895 729 895 c 0,28,29
 643 895 643 895 575 853 c 128,-1,30
 507 811 507 811 466.5 742.5 c 128,-1,31
 426 674 426 674 405 594.5 c 128,-1,32
 384 515 384 515 384 432 c 0,33,34
 384 319 384 319 437 253 c 128,-1,35
 490 187 490 187 594 187 c 3,0,1
EndSplineSet
EndChar

StartChar: d
Encoding: 100 100 72
Width: 1139
Flags: W
HStem: -13 200<443.026 700.747> 895 200<566.378 802.577> 1446 20G<1023.51 1247>
VStem: 151 221<257.695 659.016>
DStem2: 779.708 -13 986.708 -13 0.173648 0.984808<49.1457 98.5291 349.287 659.991 1016.29 1499.47>
LayerCount: 3
Fore
SplineSet
711 1095 m 3
 798 1095 877 1054 944 990 c 1
 1027 1466 l 1
 1247 1466 l 1
 989 0 l 1
 782 0 l 1
 797 84 l 1
 777 67 676 -13 525 -13 c 3
 275 -13 151 151 151 397 c 3
 151 796 391 1095 711 1095 c 3
572 187 m 3
 660 187 813 249 865 545 c 0
 871 579 874 611 874 642 c 0
 874 789 808 895 690 895 c 3
 575 895 372 756 372 424 c 3
 372 275 438 187 572 187 c 3
EndSplineSet
Validated: 1
Layer: 2
SplineSet
711 1095 m 3,0,1
 834 1095 834 1095 944 990 c 1,2,-1
 1027 1466 l 1,3,-1
 1247 1466 l 1,4,-1
 989 0 l 1,5,-1
 782 0 l 1,6,-1
 797 84 l 1,7,8
 784 73 784 73 765.5 61 c 128,-1,9
 747 49 747 49 711.5 30 c 128,-1,10
 676 11 676 11 626.5 -1 c 128,-1,11
 577 -13 577 -13 525 -13 c 0,12,13
 342 -13 342 -13 246.5 97 c 128,-1,14
 151 207 151 207 151 397 c 0,15,16
 151 594 151 594 224 754 c 128,-1,17
 297 914 297 914 425 1004.5 c 128,-1,18
 553 1095 553 1095 711 1095 c 3,0,1
572 187 m 3,19,20
 601 187 601 187 631.5 195.5 c 128,-1,21
 662 204 662 204 698 228.5 c 128,-1,22
 734 253 734 253 765 291 c 128,-1,23
 796 329 796 329 823 394.5 c 128,-1,24
 850 460 850 460 865 545 c 0,25,26
 874 596 874 596 874 642 c 0,27,28
 874 755 874 755 825.5 825 c 128,-1,29
 777 895 777 895 690 895 c 0,30,31
 654 895 654 895 613 878.5 c 128,-1,32
 572 862 572 862 528.5 824.5 c 128,-1,33
 485 787 485 787 450.5 734 c 128,-1,34
 416 681 416 681 394 600 c 128,-1,35
 372 519 372 519 372 424 c 0,36,37
 372 310 372 310 422.5 248.5 c 128,-1,38
 473 187 473 187 572 187 c 3,19,20
EndSplineSet
EndChar

StartChar: e
Encoding: 101 101 73
Width: 1139
Flags: W
HStem: -13 200<468.287 791.514> 475 200<426 949> 895 200<562.354 887.876>
VStem: 155 227<273.051 467.395> 949 215<677.77 836.532>
LayerCount: 3
Fore
SplineSet
1164 684 m 3
 1164 618 1151 537 1137 475 c 1
 385 475 l 1
 383 459 382 444 382 429 c 3
 382 290 459 187 615 187 c 3
 808 187 864 293 879 333 c 1
 1107 333 l 1
 1027 118 837 -13 579 -13 c 3
 297 -13 155 132 155 383 c 3
 155 805 414 1095 764 1095 c 3
 1023 1095 1164 938 1164 684 c 3
948 675 m 1
 949 685 949 695 949 704 c 3
 949 829 880 895 730 895 c 3
 573 895 455 795 426 675 c 1
 948 675 l 1
EndSplineSet
Validated: 1
Layer: 2
SplineSet
1164 684 m 3,0,1
 1164 595 1164 595 1137 475 c 1,2,-1
 385 475 l 1,3,4
 382 451 382 451 382 429 c 0,5,6
 382 320 382 320 442 253.5 c 128,-1,7
 502 187 502 187 615 187 c 0,8,9
 670 187 670 187 715 198.5 c 128,-1,10
 760 210 760 210 787 226.5 c 128,-1,11
 814 243 814 243 835 265 c 128,-1,12
 856 287 856 287 864.5 302 c 128,-1,13
 873 317 873 317 879 333 c 1,14,-1
 1107 333 l 1,15,16
 1046 170 1046 170 908.5 78.5 c 128,-1,17
 771 -13 771 -13 579 -13 c 0,18,19
 370 -13 370 -13 262.5 89.5 c 128,-1,20
 155 192 155 192 155 383 c 0,21,22
 155 697 155 697 327.5 896 c 128,-1,23
 500 1095 500 1095 764 1095 c 0,24,25
 956 1095 956 1095 1060 986 c 128,-1,26
 1164 877 1164 877 1164 684 c 3,0,1
948 675 m 1,27,28
 949 685 949 685 949 704 c 0,29,30
 949 895 949 895 730 895 c 0,31,32
 616 895 616 895 532.5 831.5 c 128,-1,33
 449 768 449 768 426 675 c 1,34,-1
 948 675 l 1,27,28
EndSplineSet
EndChar

StartChar: f
Encoding: 102 102 74
Width: 569
Flags: W
HStem: 0 21G<157 380.527> 862 200<206 309 564 688> 1315 200<640.76 871.564>
DStem2: 157 0 377 0 0.173648 0.984808<38.2026 875.299 1116.54 1340.33>
LayerCount: 3
Fore
SplineSet
756 1315 m 3
 670 1315 602 1271 577 1132 c 2
 564 1062 l 1
 723 1062 l 1
 688 862 l 1
 529 862 l 1
 377 0 l 1
 157 0 l 1
 309 862 l 1
 171 862 l 1
 206 1062 l 1
 344 1062 l 1
 364 1175 l 2
 412 1447 597 1515 729 1515 c 3
 796 1515 854 1506 902 1488 c 1
 867 1288 l 1
 810 1307 791 1315 756 1315 c 3
EndSplineSet
Validated: 1
Layer: 2
SplineSet
756 1315 m 3,0,1
 610 1315 610 1315 577 1132 c 2,2,-1
 564 1062 l 1,3,-1
 723 1062 l 1,4,-1
 688 862 l 1,5,-1
 529 862 l 1,6,-1
 377 0 l 1,7,-1
 157 0 l 1,8,-1
 309 862 l 1,9,-1
 171 862 l 1,10,-1
 206 1062 l 1,11,-1
 344 1062 l 1,12,-1
 364 1175 l 2,13,14
 378 1253 378 1253 408 1314.5 c 128,-1,15
 438 1376 438 1376 475 1412.5 c 128,-1,16
 512 1449 512 1449 557.5 1473 c 128,-1,17
 603 1497 603 1497 644.5 1506 c 128,-1,18
 686 1515 686 1515 729 1515 c 0,19,20
 830 1515 830 1515 902 1488 c 1,21,-1
 867 1288 l 1,22,23
 861 1290 861 1290 845.5 1295.5 c 128,-1,24
 830 1301 830 1301 826 1302 c 128,-1,25
 822 1303 822 1303 811 1306.5 c 128,-1,26
 800 1310 800 1310 796 1310.5 c 128,-1,27
 792 1311 792 1311 784 1312.5 c 128,-1,28
 776 1314 776 1314 769.5 1314.5 c 128,-1,29
 763 1315 763 1315 756 1315 c 3,0,1
EndSplineSet
EndChar

StartChar: g
Encoding: 103 103 75
Width: 1139
Flags: W
HStem: -428 200<344.638 647.274> -13 200<427.155 716.322> 895 200<541.597 831.767> 1042 20G<965.667 1189>
VStem: 73 228<-183.394 -74> 147 221<248.671 664.072>
DStem2: 706.307 -428 926.141 -428 0.173648 0.984808<304.875 510.76 726.535 1114.41 1433.91 1512.98>
LayerCount: 3
Fore
SplineSet
447 -428 m 3xd4
 145 -428 73 -299 73 -163 c 3
 73 -133 77 -103 82 -74 c 1
 302 -74 l 1
 301 -79 301 -84 301 -90 c 3xd8
 301 -145 344 -228 481 -228 c 3
 658 -228 760 -121 795 75 c 1
 723 25 626 -13 523 -13 c 3
 279 -13 147 155 147 398 c 3
 147 806 416 1095 719 1095 c 3xe4
 832 1095 928 1049 956 984 c 1
 969 1062 l 1
 1189 1062 l 1
 1027 144 l 2
 943 -330 759 -428 447 -428 c 3xd4
696 895 m 3xe4
 454 895 368 644 368 405 c 3
 368 256 432 187 573 187 c 3
 743 187 834 296 877 539 c 0
 886 590 890 635 890 673 c 0
 890 861 790 895 696 895 c 3xe4
EndSplineSet
Validated: 1
Layer: 2
SplineSet
447 -428 m 3,0,1
 73 -428 73 -428 73 -163 c 0,2,3
 73 -126 73 -126 82 -74 c 1,4,-1
 302 -74 l 1,5,6
 301 -79 301 -79 301 -90 c 0,7,8
 301 -141 301 -141 344.5 -184.5 c 128,-1,9
 388 -228 388 -228 481 -228 c 0,10,11
 741 -228 741 -228 795 75 c 1,12,13
 668 -13 668 -13 523 -13 c 0,14,15
 344 -13 344 -13 245.5 99 c 128,-1,16
 147 211 147 211 147 398 c 0,17,18
 147 547 147 547 194 678.5 c 128,-1,19
 241 810 241 810 319.5 900.5 c 128,-1,20
 398 991 398 991 502 1043 c 128,-1,21
 606 1095 606 1095 719 1095 c 0,22,23
 803 1095 803 1095 869 1064 c 128,-1,24
 935 1033 935 1033 956 984 c 1,25,-1
 969 1062 l 1,26,-1
 1189 1062 l 1,27,-1
 1027 144 l 2,28,29
 996 -31 996 -31 946 -145 c 128,-1,30
 896 -259 896 -259 821 -320.5 c 128,-1,31
 746 -382 746 -382 659 -405 c 128,-1,32
 572 -428 572 -428 447 -428 c 3,0,1
696 895 m 3,33,34
 609 895 609 895 543.5 853 c 128,-1,35
 478 811 478 811 441 739 c 128,-1,36
 404 667 404 667 386 583 c 128,-1,37
 368 499 368 499 368 405 c 0,38,39
 368 293 368 293 417.5 240 c 128,-1,40
 467 187 467 187 573 187 c 0,41,42
 700 187 700 187 772.5 271.5 c 128,-1,43
 845 356 845 356 877 539 c 0,44,45
 890 613 890 613 890 673 c 0,46,47
 890 740 890 740 873.5 786.5 c 128,-1,48
 857 833 857 833 827.5 855 c 128,-1,49
 798 877 798 877 767 886 c 128,-1,50
 736 895 736 895 696 895 c 3,33,34
EndSplineSet
EndChar

StartChar: h
Encoding: 104 104 76
Width: 1139
Flags: W
HStem: 0 21G<135 358.529 780 1003.54> 895 200<616.946 877.367> 1446 20G<389.48 613>
VStem: 908 221<610.056 865.389>
DStem2: 135 0 355 0 0.173648 0.984808<38.2026 826.897 1061.8 1488.53> 780 0 1000 0 0.173648 0.984808<38.2026 767.74>
LayerCount: 3
Fore
SplineSet
754 895 m 3
 593 895 485 735 460 595 c 2
 355 0 l 1
 135 0 l 1
 393 1466 l 1
 613 1466 l 1
 533 1008 l 1
 594 1066 688 1095 793 1095 c 3
 1055 1095 1129 936 1129 777 c 3
 1129 742 1125 707 1119 673 c 2
 1000 0 l 1
 780 0 l 1
 901 687 l 2
 906 714 908 737 908 758 c 3
 908 863 849 895 754 895 c 3
EndSplineSet
Validated: 1
Layer: 2
SplineSet
754 895 m 131,-1,1
 678 895 678 895 613 848.5 c 128,-1,2
 548 802 548 802 510.5 735 c 128,-1,3
 473 668 473 668 460 595 c 2,4,-1
 355 0 l 1,5,-1
 135 0 l 1,6,-1
 393 1466 l 1,7,-1
 613 1466 l 1,8,-1
 533 1008 l 1,9,10
 624 1095 624 1095 793 1095 c 0,11,12
 887 1095 887 1095 955 1068.5 c 128,-1,13
 1023 1042 1023 1042 1059.5 995 c 128,-1,14
 1096 948 1096 948 1112.5 894.5 c 128,-1,15
 1129 841 1129 841 1129 777 c 0,16,17
 1129 730 1129 730 1119 673 c 2,18,-1
 1000 0 l 1,19,-1
 780 0 l 1,20,-1
 901 687 l 2,21,22
 908 725 908 725 908 758 c 0,23,24
 908 833 908 833 869 864 c 128,-1,0
 830 895 830 895 754 895 c 131,-1,1
EndSplineSet
EndChar

StartChar: i
Encoding: 105 105 77
Width: 455
Flags: W
HStem: 0 21G<116 339.522> 1042 20G<299.478 523> 1220 246<379 547>
VStem: 116 474
DStem2: 116 0 336 0 0.173648 0.984808<38.2026 1078.34 1276.31 1489.4>
LayerCount: 3
Fore
SplineSet
336 1220 m 1
 379 1466 l 1
 590 1466 l 1
 547 1220 l 1
 336 1220 l 1
116 0 m 1
 303 1062 l 1
 523 1062 l 1
 336 0 l 1
 116 0 l 1
EndSplineSet
Validated: 1
Layer: 2
SplineSet
336 1220 m 1,0,-1
 379 1466 l 1,1,-1
 590 1466 l 1,2,-1
 547 1220 l 1,3,-1
 336 1220 l 1,0,-1
116 0 m 1,4,-1
 303 1062 l 1,5,-1
 523 1062 l 1,6,-1
 336 0 l 1,7,-1
 116 0 l 1,4,-1
EndSplineSet
EndChar

StartChar: j
Encoding: 106 106 78
Width: 455
Flags: W
HStem: -428 200<-136.83 45.0456> 1042 20G<299.481 523> 1220 246<374 551>
DStem2: 40.7035 -428 260.759 -428 0.173648 0.984808<232.809 1512.91 1711.58 1923.1>
LayerCount: 3
Fore
SplineSet
331 1220 m 1
 374 1466 l 1
 594 1466 l 1
 551 1220 l 1
 331 1220 l 1
326 -58 m 2
 277 -336 155 -428 -10 -428 c 3
 -67 -428 -120 -423 -167 -412 c 1
 -133 -220 l 1
 -99 -225 -78 -228 -69 -228 c 3
 16 -228 82 -191 110 -35 c 2
 303 1062 l 1
 523 1062 l 1
 326 -58 l 2
EndSplineSet
Validated: 1
Layer: 2
SplineSet
331 1220 m 1,0,-1
 374 1466 l 1,1,-1
 594 1466 l 1,2,-1
 551 1220 l 1,3,-1
 331 1220 l 1,0,-1
326 -58 m 2,4,5
 291 -257 291 -257 206 -342.5 c 128,-1,6
 121 -428 121 -428 -10 -428 c 0,7,8
 -99 -428 -99 -428 -167 -412 c 1,9,-1
 -133 -220 l 1,10,11
 -79 -228 -79 -228 -69 -228 c 0,12,13
 1 -228 1 -228 45.5 -186 c 128,-1,14
 90 -144 90 -144 110 -35 c 2,15,-1
 303 1062 l 1,16,-1
 523 1062 l 1,17,-1
 326 -58 l 2,4,5
EndSplineSet
EndChar

StartChar: k
Encoding: 107 107 79
Width: 1024
Flags: W
HStem: 0 21G<136 359.538 731.24 1016> 1042 20G<861.518 1162> 1446 20G<390.48 614>
DStem2: 136 0 356 0 0.173648 0.984808<38.2026 434.259 732.823 1488.53> 477 684 704 636 0.738941 0.67377<135.399 554.695>
LayerCount: 3
Fore
SplineSet
136 0 m 1
 394 1466 l 1
 614 1466 l 1
 477 684 l 1
 883 1062 l 1
 1162 1062 l 1
 704 636 l 1
 1016 0 l 1
 740 0 l 1
 528 484 l 1
 425 390 l 1
 356 0 l 1
 136 0 l 1
EndSplineSet
Validated: 1
Layer: 2
SplineSet
136 0 m 1,0,-1
 394 1466 l 1,1,-1
 614 1466 l 1,2,-1
 477 684 l 1,3,-1
 883 1062 l 1,4,-1
 1162 1062 l 1,5,-1
 704 636 l 1,6,-1
 1016 0 l 1,7,-1
 740 0 l 1,8,-1
 528 484 l 1,9,-1
 425 390 l 1,10,-1
 356 0 l 1,11,-1
 136 0 l 1,0,-1
EndSplineSet
EndChar

StartChar: l
Encoding: 108 108 80
Width: 455
Flags: W
HStem: 0 21G<112 335.52> 1446 20G<366.48 590>
VStem: 112 478
DStem2: 112 0 332 0 0.173648 0.984808<38.2026 1488.53>
LayerCount: 3
Fore
SplineSet
112 0 m 1
 370 1466 l 1
 590 1466 l 1
 332 0 l 1
 112 0 l 1
EndSplineSet
Validated: 1
Layer: 2
SplineSet
112 0 m 1,0,-1
 370 1466 l 1,1,-1
 590 1466 l 1,2,-1
 332 0 l 1,3,-1
 112 0 l 1,0,-1
EndSplineSet
EndChar

StartChar: m
Encoding: 109 109 81
Width: 1706
Flags: W
HStem: 0 21G<135 358.529 744 967.54 1353 1576.54> 895 200<621.402 854.302 1205.98 1458.66> 1042 20G<318.478 542>
VStem: 1484 228<653.813 867.797>
DStem2: 135 0 355 0 0.173648 0.984808<38.2026 858.34 1043.55 1078.34> 744 0 964 0 0.173648 0.984808<38.2026 785.721> 1353 0 1573 0 0.173648 0.984808<38.2026 774.401>
LayerCount: 3
Fore
SplineSet
736 895 m 3xd0
 556 895 486 742 460 595 c 2
 355 0 l 1
 135 0 l 1
 322 1062 l 1
 542 1062 l 1xb0
 530 990 l 1
 597 1050 696 1095 811 1095 c 3
 1007 1095 1055 1003 1069 957 c 1
 1147 1056 1318 1095 1438 1095 c 3
 1649 1095 1712 977 1712 835 c 3
 1712 801 1708 765 1702 729 c 2
 1573 0 l 1
 1353 0 l 1
 1479 713 l 2
 1482 731 1484 748 1484 764 c 3
 1484 846 1441 895 1363 895 c 3
 1247 895 1113 841 1081 661 c 2
 964 0 l 1
 744 0 l 1
 873 734 l 2
 876 749 877 762 877 775 c 3
 877 865 812 895 736 895 c 3xd0
EndSplineSet
Validated: 1
Layer: 2
SplineSet
736 895 m 3,0,1
 671 895 671 895 621 869.5 c 128,-1,2
 571 844 571 844 539.5 799 c 128,-1,3
 508 754 508 754 489.5 704.5 c 128,-1,4
 471 655 471 655 460 595 c 2,5,-1
 355 0 l 1,6,-1
 135 0 l 1,7,-1
 322 1062 l 1,8,-1
 542 1062 l 1,9,-1
 530 990 l 1,10,11
 647 1095 647 1095 811 1095 c 0,12,13
 867 1095 867 1095 911.5 1084.5 c 128,-1,14
 956 1074 956 1074 982.5 1060 c 128,-1,15
 1009 1046 1009 1046 1028.5 1025.5 c 128,-1,16
 1048 1005 1048 1005 1056 989.5 c 128,-1,17
 1064 974 1064 974 1069 957 c 1,18,19
 1123 1026 1123 1026 1229 1060.5 c 128,-1,20
 1335 1095 1335 1095 1438 1095 c 0,21,22
 1712 1095 1712 1095 1712 835 c 0,23,24
 1712 789 1712 789 1702 729 c 2,25,-1
 1573 0 l 1,26,-1
 1353 0 l 1,27,-1
 1479 713 l 2,28,29
 1484 743 1484 743 1484 764 c 0,30,31
 1484 826 1484 826 1452.5 860.5 c 128,-1,32
 1421 895 1421 895 1363 895 c 0,33,34
 1316 895 1316 895 1273.5 883.5 c 128,-1,35
 1231 872 1231 872 1191 846 c 128,-1,36
 1151 820 1151 820 1121.5 773 c 128,-1,37
 1092 726 1092 726 1081 661 c 2,38,-1
 964 0 l 1,39,-1
 744 0 l 1,40,-1
 873 734 l 2,41,42
 877 754 877 754 877 775 c 0,43,44
 877 838 877 838 838 866.5 c 128,-1,45
 799 895 799 895 736 895 c 3,0,1
EndSplineSet
EndChar

StartChar: n
Encoding: 110 110 82
Width: 1139
Flags: W
HStem: 0 21G<135 358.539 780 1003.54> 895 200<597.717 876.069> 1044 20G<319.466 543>
VStem: 908 221<613.608 865.389>
DStem2: 135 0 355 0 0.173648 0.984808<38.2026 851.425 1065.74 1080.48> 780 0 1000 0 0.173648 0.984808<38.2026 765.862>
LayerCount: 3
Fore
SplineSet
750 895 m 3xd0
 559 895 485 737 461 599 c 2
 355 0 l 1
 135 0 l 1
 323 1064 l 1
 543 1064 l 1xb0
 533 1012 l 1
 611 1074 681 1095 793 1095 c 3
 1055 1095 1129 936 1129 777 c 3
 1129 742 1125 707 1119 673 c 2
 1000 0 l 1
 780 0 l 1
 902 691 l 2
 906 715 908 737 908 756 c 3
 908 860 848 895 750 895 c 3xd0
EndSplineSet
Validated: 1
Layer: 2
SplineSet
750 895 m 3,0,1
 682 895 682 895 628.5 869 c 128,-1,2
 575 843 575 843 542 798 c 128,-1,3
 509 753 509 753 490 704.5 c 128,-1,4
 471 656 471 656 461 599 c 2,5,-1
 355 0 l 1,6,-1
 135 0 l 1,7,-1
 323 1064 l 1,8,-1
 543 1064 l 1,9,-1
 533 1012 l 1,10,11
 591 1058 591 1058 649.5 1076.5 c 128,-1,12
 708 1095 708 1095 793 1095 c 0,13,14
 887 1095 887 1095 955 1068.5 c 128,-1,15
 1023 1042 1023 1042 1059.5 995 c 128,-1,16
 1096 948 1096 948 1112.5 894.5 c 128,-1,17
 1129 841 1129 841 1129 777 c 0,18,19
 1129 730 1129 730 1119 673 c 2,20,-1
 1000 0 l 1,21,-1
 780 0 l 1,22,-1
 902 691 l 2,23,24
 908 727 908 727 908 756 c 0,25,26
 908 831 908 831 868 863 c 128,-1,27
 828 895 828 895 750 895 c 3,0,1
EndSplineSet
EndChar

StartChar: o
Encoding: 111 111 83
Width: 1139
Flags: W
HStem: -13 200<445.829 764.738> 895 200<554.034 876.549>
VStem: 149 222<264.594 671.89> 950 222<411.449 820.704>
LayerCount: 3
Fore
SplineSet
564 -13 m 3
 292 -13 149 131 149 389 c 3
 149 824 402 1095 759 1095 c 3
 1031 1095 1172 953 1172 695 c 3
 1172 259 921 -13 564 -13 c 3
724 895 m 3
 468 895 371 663 371 421 c 3
 371 290 424 187 599 187 c 3
 856 187 950 421 950 663 c 3
 950 793 898 895 724 895 c 3
EndSplineSet
Validated: 1
Layer: 2
SplineSet
564 -13 m 3,0,1
 361 -13 361 -13 255 90.5 c 128,-1,2
 149 194 149 194 149 389 c 0,3,4
 149 711 149 711 318.5 903 c 128,-1,5
 488 1095 488 1095 759 1095 c 0,6,7
 962 1095 962 1095 1067 992.5 c 128,-1,8
 1172 890 1172 890 1172 695 c 0,9,10
 1172 372 1172 372 1003.5 179.5 c 128,-1,11
 835 -13 835 -13 564 -13 c 3,0,1
724 895 m 3,12,13
 650 895 650 895 589.5 869 c 128,-1,14
 529 843 529 843 489 798.5 c 128,-1,15
 449 754 449 754 422 692.5 c 128,-1,16
 395 631 395 631 383 563.5 c 128,-1,17
 371 496 371 496 371 421 c 0,18,19
 371 187 371 187 599 187 c 0,20,21
 674 187 674 187 734 213.5 c 128,-1,22
 794 240 794 240 834 284.5 c 128,-1,23
 874 329 874 329 900.5 391 c 128,-1,24
 927 453 927 453 938.5 520.5 c 128,-1,25
 950 588 950 588 950 663 c 0,26,27
 950 895 950 895 724 895 c 3,12,13
EndSplineSet
EndChar

StartChar: p
Encoding: 112 112 84
Width: 1139
Flags: W
HStem: -13 200<496.718 731.358> 895 200<599.828 853.577> 1042 20G<303.474 527>
VStem: 927 222<421.596 816.508>
DStem2: 51 -390 271 -390 0.173648 0.984808<38.2026 521.558 882.957 1219.3 1448.64 1474.39>
LayerCount: 3
Fore
SplineSet
589 -13 m 3xd0
 502 -13 422 22 355 86 c 1
 271 -390 l 1
 51 -390 l 1
 307 1062 l 1
 527 1062 l 1xb0
 516 999 l 1
 585 1048 670 1095 775 1095 c 3
 1025 1095 1149 931 1149 685 c 3
 1149 288 911 -13 589 -13 c 3xd0
725 895 m 3xd0
 640 895 487 832 435 537 c 0
 429 503 426 470 426 439 c 3
 426 292 491 187 607 187 c 3
 716 187 927 322 927 653 c 3
 927 805 857 895 725 895 c 3xd0
EndSplineSet
Validated: 1
Layer: 2
SplineSet
589 -13 m 3,0,1
 459 -13 459 -13 355 86 c 1,2,-1
 271 -390 l 1,3,-1
 51 -390 l 1,4,-1
 307 1062 l 1,5,-1
 527 1062 l 1,6,-1
 516 999 l 1,7,8
 651 1095 651 1095 775 1095 c 0,9,10
 958 1095 958 1095 1053.5 985 c 128,-1,11
 1149 875 1149 875 1149 685 c 0,12,13
 1149 489 1149 489 1076.5 329 c 128,-1,14
 1004 169 1004 169 876 78 c 128,-1,15
 748 -13 748 -13 589 -13 c 3,0,1
725 895 m 3,16,17
 688 895 688 895 650 879.5 c 128,-1,18
 612 864 612 864 568.5 827.5 c 128,-1,19
 525 791 525 791 489 716 c 128,-1,20
 453 641 453 641 435 537 c 0,21,22
 426 486 426 486 426 439 c 0,23,24
 426 326 426 326 474 256.5 c 128,-1,25
 522 187 522 187 607 187 c 0,26,27
 642 187 642 187 682.5 203 c 128,-1,28
 723 219 723 219 766.5 256 c 128,-1,29
 810 293 810 293 845.5 345.5 c 128,-1,30
 881 398 881 398 904 478 c 128,-1,31
 927 558 927 558 927 653 c 0,32,33
 927 768 927 768 875 831.5 c 128,-1,34
 823 895 823 895 725 895 c 3,16,17
EndSplineSet
EndChar

StartChar: q
Encoding: 113 113 85
Width: 1139
Flags: W
HStem: -13 200<467.397 710.601> 895 200<579.926 831.297> 1042 20G<971.508 1195>
VStem: 168 224<260.295 665.517>
DStem2: 719 -390 939 -390 0.173648 0.984808<38.2026 483.355 720.461 1062.94 1410.44 1474.39>
LayerCount: 3
Fore
SplineSet
739 1095 m 3xd0
 890 1095 958 1009 964 999 c 1
 975 1062 l 1
 1195 1062 l 1xb0
 939 -390 l 1
 719 -390 l 1
 803 86 l 1
 714 22 622 -13 535 -13 c 3
 296 -13 168 146 168 389 c 3
 168 790 411 1095 739 1095 c 3xd0
588 187 m 3
 726 187 849 342 883 537 c 0
 891 584 895 624 895 660 c 3
 895 851 791 895 720 895 c 3xd0
 531 895 392 692 392 426 c 3
 392 228 509 187 588 187 c 3
EndSplineSet
Validated: 1
Layer: 2
SplineSet
739 1095 m 3,0,1
 781 1095 781 1095 819.5 1086 c 128,-1,2
 858 1077 858 1077 882 1064.5 c 128,-1,3
 906 1052 906 1052 925.5 1037 c 128,-1,4
 945 1022 945 1022 953 1013 c 128,-1,5
 961 1004 961 1004 964 999 c 2,6,-1
 975 1062 l 1,7,-1
 1195 1062 l 1,8,-1
 939 -390 l 1,9,-1
 719 -390 l 1,10,-1
 803 86 l 1,11,12
 665 -13 665 -13 535 -13 c 0,13,14
 359 -13 359 -13 263.5 95 c 128,-1,15
 168 203 168 203 168 389 c 0,16,17
 168 587 168 587 242 748.5 c 128,-1,18
 316 910 316 910 447 1002.5 c 128,-1,19
 578 1095 578 1095 739 1095 c 3,0,1
588 187 m 3,20,21
 690 187 690 187 773.5 288 c 128,-1,22
 857 389 857 389 883 537 c 0,23,24
 895 607 895 607 895 660 c 0,25,26
 895 728 895 728 878 777 c 128,-1,27
 861 826 861 826 833.5 850 c 128,-1,28
 806 874 806 874 778 884.5 c 128,-1,29
 750 895 750 895 720 895 c 0,30,31
 579 895 579 895 485.5 760.5 c 128,-1,32
 392 626 392 626 392 426 c 0,33,34
 392 356 392 356 411 306 c 128,-1,35
 430 256 430 256 461 231.5 c 128,-1,36
 492 207 492 207 523 197 c 128,-1,37
 554 187 554 187 588 187 c 3,20,21
EndSplineSet
EndChar

StartChar: r
Encoding: 114 114 86
Width: 682
Flags: W
HStem: 0 21G<133 356.525> 895 200<624.524 818.545> 1042 20G<316.478 540>
DStem2: 133 0 353 0 0.173648 0.984808<38.2026 874.518 999.815 1078.34>
LayerCount: 3
Fore
SplineSet
133 0 m 1xc0
 320 1062 l 1
 540 1062 l 1xa0
 520 947 l 1
 614 1068 679 1095 773 1095 c 3
 829 1095 863 1069 894 1046 c 1
 799 856 l 1
 775 870 765 895 723 895 c 3
 520 895 479 713 457 590 c 2
 353 0 l 1
 133 0 l 1xc0
EndSplineSet
Validated: 1
Layer: 2
SplineSet
133 0 m 1,0,-1
 320 1062 l 1,1,-1
 540 1062 l 1,2,-1
 520 947 l 1,3,4
 588 1034 588 1034 643.5 1064.5 c 128,-1,5
 699 1095 699 1095 773 1095 c 0,6,7
 799 1095 799 1095 823.5 1086.5 c 128,-1,8
 848 1078 848 1078 860 1070 c 128,-1,9
 872 1062 872 1062 894 1046 c 1,10,-1
 799 856 l 1,11,12
 792 860 792 860 779.5 871.5 c 128,-1,13
 767 883 767 883 754.5 889 c 128,-1,14
 742 895 742 895 723 895 c 0,15,16
 665 895 665 895 619.5 874 c 128,-1,17
 574 853 574 853 548 824.5 c 128,-1,18
 522 796 522 796 502 749.5 c 128,-1,19
 482 703 482 703 473.5 670 c 128,-1,20
 465 637 465 637 457 590 c 2,21,-1
 353 0 l 1,22,-1
 133 0 l 1,0,-1
EndSplineSet
EndChar

StartChar: s
Encoding: 115 115 87
Width: 1024
Flags: W
HStem: -14 200<394.519 723.414> 895 200<492.105 793.916>
VStem: 123 223<238.218 358> 225 225<690.343 851.78> 782 226<243.71 410.814> 821 224<767 863.987>
LayerCount: 3
Fore
SplineSet
225 715 m 3xd8
 225 960 434 1095 677 1095 c 3
 979 1095 1045 952 1045 829 c 3
 1045 807 1043 786 1040 767 c 1
 820 767 l 1
 820 772 821 777 821 782 c 3
 821 858 763 895 655 895 c 3
 505 895 450 833 450 764 c 3xd4
 450 689 526 668 631 648 c 0
 894 598 1008 540 1008 391 c 3
 1008 130 772 -14 515 -14 c 3
 192 -14 123 164 123 307 c 3
 123 325 124 342 126 358 c 1
 346 358 l 1xe8
 346 243 411 186 549 186 c 3
 707 186 782 254 782 335 c 3
 782 413 712 428 602 449 c 0
 384 490 225 533 225 715 c 3xd8
EndSplineSet
Validated: 1
Layer: 2
SplineSet
225 715 m 3,0,1
 225 833 225 833 288 921 c 128,-1,2
 351 1009 351 1009 452 1052 c 128,-1,3
 553 1095 553 1095 677 1095 c 0,4,5
 764 1095 764 1095 831 1079 c 128,-1,6
 898 1063 898 1063 937.5 1037.5 c 128,-1,7
 977 1012 977 1012 1002 975.5 c 128,-1,8
 1027 939 1027 939 1036 904 c 128,-1,9
 1045 869 1045 869 1045 829 c 0,10,11
 1045 799 1045 799 1040 767 c 1,12,-1
 820 767 l 2,13,14
 820 770 820 770 820.5 775 c 128,-1,15
 821 780 821 780 821 782 c 0,16,17
 821 895 821 895 655 895 c 0,18,19
 550 895 550 895 500 858 c 128,-1,20
 450 821 450 821 450 764 c 0,21,22
 450 713 450 713 494 689.5 c 128,-1,23
 538 666 538 666 631 648 c 0,24,25
 837 609 837 609 922.5 554 c 128,-1,26
 1008 499 1008 499 1008 391 c 0,27,28
 1008 296 1008 296 967.5 218 c 128,-1,29
 927 140 927 140 858 90 c 128,-1,30
 789 40 789 40 700.5 13 c 128,-1,31
 612 -14 612 -14 515 -14 c 0,32,33
 422 -14 422 -14 350.5 6 c 128,-1,34
 279 26 279 26 237 57.5 c 128,-1,35
 195 89 195 89 168.5 133 c 128,-1,36
 142 177 142 177 132.5 218.5 c 128,-1,37
 123 260 123 260 123 307 c 0,38,39
 123 334 123 334 126 358 c 1,40,-1
 346 358 l 1,41,42
 346 186 346 186 549 186 c 0,43,44
 662 186 662 186 722 228 c 128,-1,45
 782 270 782 270 782 335 c 0,46,47
 782 358 782 358 773 375 c 128,-1,48
 764 392 764 392 751.5 402.5 c 128,-1,49
 739 413 739 413 712 422.5 c 128,-1,50
 685 432 685 432 664 436.5 c 128,-1,51
 643 441 643 441 602 449 c 0,52,53
 526 463 526 463 478 475 c 128,-1,54
 430 487 430 487 376.5 508 c 128,-1,55
 323 529 323 529 293.5 555 c 128,-1,56
 264 581 264 581 244.5 621.5 c 128,-1,57
 225 662 225 662 225 715 c 3,0,1
EndSplineSet
EndChar

StartChar: t
Encoding: 116 116 88
Width: 569
Flags: W
HStem: -13 200<315 552.774> 862 200<205 298 553 649>
VStem: 182 233<104 456.633>
DStem2: 143.87 -13 363.339 -13 0.173648 0.984808<321.32 888.471 1129.71 1468.33>
LayerCount: 3
Fore
SplineSet
562 195 m 1
 554 2 l 1
 504 -8 454 -13 404 -13 c 3
 226 -13 182 54 182 154 c 3
 182 200 191 254 201 311 c 2
 298 862 l 1
 170 862 l 1
 205 1062 l 1
 333 1062 l 1
 399 1433 l 1
 619 1433 l 1
 553 1062 l 1
 684 1062 l 1
 649 862 l 1
 518 862 l 1
 418 297 l 2
 416 286 415 275 415 265 c 3
 415 218 439 187 507 187 c 3
 508 187 526 190 562 195 c 1
EndSplineSet
Validated: 1
Layer: 2
SplineSet
562 195 m 1,0,-1
 554 2 l 1,1,2
 479 -13 479 -13 404 -13 c 0,3,4
 279 -13 279 -13 230.5 29.5 c 128,-1,5
 182 72 182 72 182 154 c 0,6,7
 182 203 182 203 201 311 c 2,8,-1
 298 862 l 1,9,-1
 170 862 l 1,10,-1
 205 1062 l 1,11,-1
 333 1062 l 1,12,-1
 399 1433 l 1,13,-1
 619 1433 l 1,14,-1
 553 1062 l 1,15,-1
 684 1062 l 1,16,-1
 649 862 l 1,17,-1
 518 862 l 1,18,-1
 418 297 l 2,19,20
 415 280 415 280 415 265 c 0,21,22
 415 187 415 187 507 187 c 1,23,-1
 513 188 l 2,24,25
 519 189 519 189 532.5 191 c 128,-1,26
 546 193 546 193 562 195 c 1,0,-1
EndSplineSet
EndChar

StartChar: u
Encoding: 117 117 89
Width: 1139
Flags: W
HStem: -13 200<437.377 717.767> 1042 20G<287.492 511 932.479 1156>
VStem: 167 224<235.872 486.131>
DStem2: 102.061 -13 321.766 -13 0.173648 0.984808<411.399 1091.48> 746.708 -13 966.708 -13 0.173648 0.984808<269.525 1091.54>
LayerCount: 3
Fore
SplineSet
567 187 m 3
 721 187 800 289 820 403 c 2
 936 1062 l 1
 1156 1062 l 1
 969 0 l 1
 749 0 l 1
 755 34 l 1
 688 -2 574 -13 535 -13 c 3
 250 -13 167 138 167 305 c 3
 167 340 171 377 177 412 c 2
 291 1062 l 1
 511 1062 l 1
 396 408 l 2
 392 388 391 370 391 353 c 3
 391 224 489 187 567 187 c 3
EndSplineSet
Validated: 1
Layer: 2
SplineSet
567 187 m 3,0,1
 676 187 676 187 740 248.5 c 128,-1,2
 804 310 804 310 820 403 c 2,3,-1
 936 1062 l 1,4,-1
 1156 1062 l 1,5,-1
 969 0 l 1,6,-1
 749 0 l 1,7,-1
 755 34 l 1,8,9
 711 10 711 10 644 -1.5 c 128,-1,10
 577 -13 577 -13 535 -13 c 0,11,12
 432 -13 432 -13 358 12.5 c 128,-1,13
 284 38 284 38 243.5 84 c 128,-1,14
 203 130 203 130 185 184 c 128,-1,15
 167 238 167 238 167 305 c 0,16,17
 167 354 167 354 177 412 c 2,18,-1
 291 1062 l 1,19,-1
 511 1062 l 1,20,-1
 396 408 l 2,21,22
 391 383 391 383 391 353 c 0,23,24
 391 307 391 307 407 273 c 128,-1,25
 423 239 423 239 450 221 c 128,-1,26
 477 203 477 203 506 195 c 128,-1,27
 535 187 535 187 567 187 c 3,0,1
EndSplineSet
EndChar

StartChar: v
Encoding: 118 118 90
Width: 1024
Flags: W
HStem: 0 21G<424.932 610.073> 1042 20G<213 458.647 936.63 1187>
DStem2: 455 1062 213 1062 0.199309 -0.979937<0 713.427> 583 360 599 0 0.484383 0.874856<0 790.464>
LayerCount: 3
Fore
SplineSet
429 0 m 1
 213 1062 l 1
 455 1062 l 1
 583 360 l 1
 947 1062 l 1
 1187 1062 l 1
 599 0 l 1
 429 0 l 1
EndSplineSet
Validated: 1
Layer: 2
SplineSet
429 0 m 1,0,-1
 213 1062 l 1,1,-1
 455 1062 l 1,2,-1
 583 360 l 1,3,-1
 947 1062 l 1,4,-1
 1187 1062 l 1,5,-1
 599 0 l 1,6,-1
 429 0 l 1,0,-1
EndSplineSet
EndChar

StartChar: w
Encoding: 119 119 91
Width: 1479
Flags: W
HStem: 0 21G<294.06 553.32 948.5 1208.47> 1042 20G<193 444.289 825.057 1022.27 1414.69 1650>
DStem2: 443 1062 193 1062 0.0965339 -0.99533<0 699.084> 488 364 544 0 0.44516 0.895451<0 444.535> 1133 364 1200 0 0.390149 0.920752<0 755.828>
LayerCount: 3
Fore
SplineSet
296 0 m 1
 193 1062 l 1
 443 1062 l 1
 488 364 l 1
 835 1062 l 1
 1019 1062 l 1
 1133 364 l 1
 1423 1062 l 1
 1650 1062 l 1
 1200 0 l 1
 956 0 l 1
 941 149 909 374 859 676 c 1
 544 0 l 1
 296 0 l 1
EndSplineSet
Validated: 1
Layer: 2
SplineSet
296 0 m 1,0,-1
 193 1062 l 1,1,-1
 443 1062 l 1,2,-1
 488 364 l 1,3,-1
 835 1062 l 1,4,-1
 1019 1062 l 1,5,-1
 1133 364 l 1,6,-1
 1423 1062 l 1,7,-1
 1650 1062 l 1,8,-1
 1200 0 l 1,9,-1
 956 0 l 1,10,11
 933 230 933 230 859 676 c 1,12,-1
 544 0 l 1,13,-1
 296 0 l 1,0,-1
EndSplineSet
EndChar

StartChar: x
Encoding: 120 120 92
Width: 1024
Flags: W
HStem: 0 21G<15 299.501 723.219 1009> 1042 20G<231 518.484 870.836 1168>
DStem2: 15 0 284 0 0.639757 0.768577<172.095 172.095 965.272 1374.1> 756 562 570 369 0.4105 -0.911861<99.6362 502.614>
LayerCount: 3
Fore
SplineSet
15 0 m 1
 443 552 l 1
 231 1062 l 1
 511 1062 l 1
 630 744 l 1
 887 1062 l 1
 1168 1062 l 1
 756 562 l 1
 1009 0 l 1
 732 0 l 1
 570 369 l 1
 284 0 l 1
 15 0 l 1
EndSplineSet
Validated: 1
Layer: 2
SplineSet
15 0 m 1,0,-1
 443 552 l 1,1,-1
 231 1062 l 1,2,-1
 511 1062 l 1,3,-1
 630 744 l 1,4,-1
 887 1062 l 1,5,-1
 1168 1062 l 1,6,-1
 756 562 l 1,7,-1
 1009 0 l 1,8,-1
 732 0 l 1,9,-1
 570 369 l 1,10,-1
 284 0 l 1,11,-1
 15 0 l 1,0,-1
EndSplineSet
EndChar

StartChar: y
Encoding: 121 121 93
Width: 1024
Flags: W
HStem: -428 200<68.973 317.343> 1042 20G<220 482.246 921.145 1193>
DStem2: 479 1062 220 1062 0.174314 -0.98469<0 698.959> 591 372 642 0 0.460537 0.887641<0 769.055>
LayerCount: 3
Fore
SplineSet
174 -228 m 3
 298 -228 410 -135 410 -23 c 3
 410 -15 409 -8 408 0 c 2
 220 1062 l 1
 479 1062 l 1
 591 372 l 1
 931 1062 l 1
 1193 1062 l 1
 642 0 l 1
 572 -253 397 -428 164 -428 c 3
 122 -428 82 -427 54 -415 c 1
 69 -214 l 1
 101 -223 137 -228 174 -228 c 3
EndSplineSet
Validated: 1
Layer: 2
SplineSet
174 -228 m 3,0,1
 268 -228 268 -228 339 -167 c 128,-1,2
 410 -106 410 -106 410 -23 c 0,3,4
 410 -16 410 -16 408 0 c 2,5,-1
 220 1062 l 1,6,-1
 479 1062 l 1,7,-1
 591 372 l 1,8,-1
 931 1062 l 1,9,-1
 1193 1062 l 1,10,-1
 642 0 l 1,11,12
 588 -194 588 -194 461.5 -311 c 128,-1,13
 335 -428 335 -428 164 -428 c 0,14,15
 84 -428 84 -428 54 -415 c 1,16,-1
 69 -214 l 1,17,18
 119 -228 119 -228 174 -228 c 3,0,1
EndSplineSet
EndChar

StartChar: z
Encoding: 122 122 94
Width: 1024
Flags: W
HStem: 0 200<379 980> 862 200<247 816>
DStem2: 75 200 379 200 0.745741 0.666236<226.705 993.642>
LayerCount: 3
Fore
SplineSet
40 0 m 1
 75 200 l 1
 816 862 l 1
 212 862 l 1
 247 1062 l 1
 1135 1062 l 1
 1100 862 l 1
 379 200 l 1
 1015 200 l 1
 980 0 l 1
 40 0 l 1
EndSplineSet
Validated: 1
Layer: 2
SplineSet
40 0 m 1,0,-1
 75 200 l 1,1,-1
 816 862 l 1,2,-1
 212 862 l 1,3,-1
 247 1062 l 1,4,-1
 1135 1062 l 1,5,-1
 1100 862 l 1,6,-1
 379 200 l 1,7,-1
 1015 200 l 1,8,-1
 980 0 l 1,9,-1
 40 0 l 1,0,-1
EndSplineSet
EndChar

StartChar: braceleft
Encoding: 123 123 95
Width: 684
Flags: W
HStem: -422 200<487.746 562> 448 164<165 252.719> 1282 200<741.031 862>
VStem: 246 228<-214.399 147.118> 300 220<-82.6444 404.991>
CounterMasks: 1 e0
LayerCount: 3
Fore
SplineSet
520 280 m 3xe8
 520 186 474 -36 474 -119 c 3
 474 -200 500 -222 556 -222 c 2
 597 -222 l 1
 562 -422 l 1
 506 -422 l 2
 307 -422 246 -345 246 -191 c 3xf0
 246 -77 300 131 300 265 c 3
 300 370 264 445 136 448 c 9
 165 612 l 17
 360 616 402 785 435 971 c 0
 495 1312 545 1482 841 1482 c 2
 897 1482 l 1
 862 1282 l 1
 821 1282 l 2
 734 1282 701 1228 657 981 c 0
 613 729 555 618 401 530 c 1
 484 470 520 399 520 280 c 3xe8
EndSplineSet
Validated: 1
Layer: 2
SplineSet
520 280 m 3,0,1
 520 232 520 232 497 76.5 c 128,-1,2
 474 -79 474 -79 474 -119 c 0,3,4
 474 -178 474 -178 493 -200 c 128,-1,5
 512 -222 512 -222 556 -222 c 2,6,-1
 597 -222 l 1,7,-1
 562 -422 l 1,8,-1
 506 -422 l 2,9,10
 362 -422 362 -422 304 -366.5 c 128,-1,11
 246 -311 246 -311 246 -191 c 0,12,13
 246 -136 246 -136 273 30 c 128,-1,14
 300 196 300 196 300 265 c 0,15,16
 300 351 300 351 263 398.5 c 128,-1,17
 226 446 226 446 136 448 c 1,18,-1
 165 612 l 1,19,20
 222 613 222 613 265 634 c 128,-1,21
 308 655 308 655 334.5 685 c 128,-1,22
 361 715 361 715 382 766.5 c 128,-1,23
 403 818 403 818 413 861 c 128,-1,24
 423 904 423 904 435 971 c 0,25,26
 446 1035 446 1035 455 1079 c 128,-1,27
 464 1123 464 1123 476.5 1172.5 c 128,-1,28
 489 1222 489 1222 501.5 1255.5 c 128,-1,29
 514 1289 514 1289 531.5 1324 c 128,-1,30
 549 1359 549 1359 569.5 1381.5 c 128,-1,31
 590 1404 590 1404 617.5 1425 c 128,-1,32
 645 1446 645 1446 677.5 1457.5 c 128,-1,33
 710 1469 710 1469 751 1475.5 c 128,-1,34
 792 1482 792 1482 841 1482 c 2,35,-1
 897 1482 l 1,36,-1
 862 1282 l 1,37,-1
 821 1282 l 2,38,39
 776 1282 776 1282 749 1257.5 c 128,-1,40
 722 1233 722 1233 700.5 1170 c 128,-1,41
 679 1107 679 1107 657 981 c 0,42,43
 624 789 624 789 569.5 692 c 128,-1,44
 515 595 515 595 401 530 c 1,45,46
 464 485 464 485 492 426.5 c 128,-1,47
 520 368 520 368 520 280 c 3,0,1
EndSplineSet
EndChar

StartChar: bar
Encoding: 124 124 96
Width: 532
Flags: W
VStem: 80 559
DStem2: 80 -431 300 -431 0.173648 0.984808<38.2026 1951.67>
LayerCount: 3
Fore
SplineSet
80 -431 m 1
 419 1491 l 1
 639 1491 l 1
 300 -431 l 1
 80 -431 l 1
EndSplineSet
Validated: 1
Layer: 2
SplineSet
80 -431 m 1,0,-1
 419 1491 l 1,1,-1
 639 1491 l 1,2,-1
 300 -431 l 1,3,-1
 80 -431 l 1,0,-1
EndSplineSet
EndChar

StartChar: braceright
Encoding: 125 125 97
Width: 684
Flags: W
HStem: -422 200<9 129.969> 448 164<618.281 706> 1282 200<309 383.254>
VStem: 351 220<654.585 1142.6> 397 228<915.715 1274.4>
CounterMasks: 1 e0
LayerCount: 3
Fore
SplineSet
351 778 m 3xf0
 351 872 397 1096 397 1179 c 3
 397 1260 371 1282 315 1282 c 2
 274 1282 l 1
 309 1482 l 1
 365 1482 l 2
 564 1482 625 1405 625 1251 c 3xe8
 625 1137 571 929 571 795 c 3
 571 690 607 615 735 612 c 9
 706 448 l 17
 511 444 469 275 436 89 c 0
 376 -252 326 -422 30 -422 c 2
 -26 -422 l 1
 9 -222 l 1
 50 -222 l 2
 137 -222 170 -168 214 79 c 0
 258 331 315 442 469 530 c 1
 386 590 351 660 351 778 c 3xf0
EndSplineSet
Validated: 1
Layer: 2
SplineSet
351 778 m 3,0,1
 351 826 351 826 374 982.5 c 128,-1,2
 397 1139 397 1139 397 1179 c 0,3,4
 397 1238 397 1238 378 1260 c 128,-1,5
 359 1282 359 1282 315 1282 c 2,6,-1
 274 1282 l 1,7,-1
 309 1482 l 1,8,-1
 365 1482 l 2,9,10
 509 1482 509 1482 567 1426.5 c 128,-1,11
 625 1371 625 1371 625 1251 c 0,12,13
 625 1196 625 1196 598 1030 c 128,-1,14
 571 864 571 864 571 795 c 0,15,16
 571 709 571 709 608 661.5 c 128,-1,17
 645 614 645 614 735 612 c 1,18,-1
 706 448 l 1,19,20
 649 447 649 447 606 426 c 128,-1,21
 563 405 563 405 536.5 375 c 128,-1,22
 510 345 510 345 489 293.5 c 128,-1,23
 468 242 468 242 458 199 c 128,-1,24
 448 156 448 156 436 89 c 0,25,26
 425 25 425 25 416 -19 c 128,-1,27
 407 -63 407 -63 394.5 -112.5 c 128,-1,28
 382 -162 382 -162 369.5 -195.5 c 128,-1,29
 357 -229 357 -229 339.5 -264 c 128,-1,30
 322 -299 322 -299 301.5 -321.5 c 128,-1,31
 281 -344 281 -344 253.5 -365 c 128,-1,32
 226 -386 226 -386 193.5 -397.5 c 128,-1,33
 161 -409 161 -409 120 -415.5 c 128,-1,34
 79 -422 79 -422 30 -422 c 2,35,-1
 -26 -422 l 1,36,-1
 9 -222 l 1,37,-1
 50 -222 l 2,38,39
 95 -222 95 -222 122 -197.5 c 128,-1,40
 149 -173 149 -173 170.5 -110 c 128,-1,41
 192 -47 192 -47 214 79 c 0,42,43
 248 271 248 271 301.5 368 c 128,-1,44
 355 465 355 465 469 530 c 1,45,46
 406 575 406 575 378.5 632.5 c 128,-1,47
 351 690 351 690 351 778 c 3,0,1
EndSplineSet
EndChar

StartChar: asciitilde
Encoding: 126 126 98
Width: 1196
Flags: W
HStem: 540 220<828.352 1117.26> 674 220<330.04 633.026>
LayerCount: 3
Fore
SplineSet
467 674 m 3x40
 365 674 289 626 182 538 c 1
 223 774 l 1
 308 854 408 894 523 894 c 3x40
 717 894 850 760 986 760 c 3
 1089 760 1203 838 1268 897 c 1
 1225 654 l 1
 1126 575 1039 540 928 540 c 3x80
 730 540 629 674 467 674 c 3x40
EndSplineSet
Validated: 1
Layer: 2
SplineSet
467 674 m 3,0,1
 395 674 395 674 332.5 642 c 128,-1,2
 270 610 270 610 182 538 c 1,3,-1
 223 774 l 1,4,5
 350.5 894 350.5 894 523 894 c 0,6,7
 588 894 588 894 657.5 873 c 128,-1,8
 727 852 727 852 776 827 c 128,-1,9
 825 802 825 802 883 781 c 128,-1,10
 941 760 941 760 986 760 c 0,11,12
 1056 760 1056 760 1132 801.5 c 128,-1,13
 1208 843 1208 843 1268 897 c 1,14,-1
 1225 654 l 1,15,16
 1150 594 1150 594 1080 567 c 128,-1,17
 1010 540 1010 540 928 540 c 0,18,19
 862 540 862 540 795.5 561 c 128,-1,20
 729 582 729 582 684 607 c 128,-1,21
 639 632 639 632 580 653 c 128,-1,22
 521 674 521 674 467 674 c 3,0,1
EndSplineSet
EndChar

StartChar: exclamdown
Encoding: 161 161 100
Width: 569
Flags: W
HStem: 0 21G<168 411.548> 1065 20G<397.142 555> 1256 194<432 621>
VStem: 402 153<1025.98 1085>
DStem2: 168 0 408 0 0.173648 0.984808<41.6756 863.152 1315.58 1473.81>
LayerCount: 3
Fore
SplineSet
488 451 m 1
 408 0 l 1
 168 0 l 1
 248 451 l 1
 402 1085 l 1
 555 1085 l 1
 488 451 l 1
621 1256 m 1
 397 1256 l 1
 432 1450 l 1
 656 1450 l 1
 621 1256 l 1
EndSplineSet
Validated: 1
Layer: 2
SplineSet
488 451 m 1,0,-1
 408 0 l 1,1,-1
 168 0 l 1,2,-1
 248 451 l 1,3,-1
 402 1085 l 1,4,-1
 555 1085 l 1,5,-1
 488 451 l 1,0,-1
621 1256 m 1,6,-1
 397 1256 l 1,7,-1
 432 1450 l 1,8,-1
 656 1450 l 1,9,-1
 621 1256 l 1,6,-1
EndSplineSet
EndChar

StartChar: cent
Encoding: 162 162 101
Width: 1118
Flags: W
HStem: 925 202<923 1013.78> 1455 20G<760.457 984>
VStem: 183 222<273.227 680.052>
DStem2: 440 -361 660 -361 0.173648 0.984808<38.2026 359.604 599.819 1297.83 1549.27 1864.37>
LayerCount: 3
Fore
SplineSet
660 -361 m 1
 440 -361 l 1
 502 -9 l 1
 285 32 183 200 183 417 c 3
 183 791 406 1071 702 1125 c 1
 764 1475 l 1
 984 1475 l 1
 923 1127 l 1
 1025 1112 1111 1078 1176 1047 c 1
 1136 821 l 1
 1104 821 l 1
 1028 884 952 912 887 925 c 1
 758 192 l 1
 826 205 909 234 1011 297 c 1
 1043 297 l 1
 1004 73 l 1
 994 68 l 1
 871 15 797 -6 722 -14 c 1
 660 -361 l 1
539 201 m 1
 666 917 l 1
 549 876 405 711 405 444 c 3
 405 301 467 231 539 201 c 1
EndSplineSet
Validated: 1
Layer: 2
SplineSet
660 -361 m 1,0,-1
 440 -361 l 1,1,-1
 502 -9 l 1,2,3
 344 21 344 21 263.5 134.5 c 128,-1,4
 183 248 183 248 183 417 c 0,5,6
 183 693 183 693 329.5 888.5 c 128,-1,7
 476 1084 476 1084 702 1125 c 1,8,-1
 764 1475 l 1,9,-1
 984 1475 l 1,10,-1
 923 1127 l 1,11,12
 1046 1109 1046 1109 1176 1047 c 1,13,-1
 1136 821 l 1,14,-1
 1104 821 l 1,15,16
 1008 901 1008 901 887 925 c 1,17,-1
 758 192 l 1,18,19
 878 215 878 215 1011 297 c 1,20,-1
 1043 297 l 1,21,-1
 1004 73 l 1,22,-1
 994 68 l 1,23,24
 831 -2 831 -2 722 -14 c 1,25,-1
 660 -361 l 1,0,-1
539 201 m 1,26,-1
 666 917 l 1,27,28
 620 901 620 901 575.5 862.5 c 128,-1,29
 531 824 531 824 492 766 c 128,-1,30
 453 708 453 708 429 624 c 128,-1,31
 405 540 405 540 405 444 c 0,32,33
 405 257 405 257 539 201 c 1,26,-1
EndSplineSet
EndChar

StartChar: sterling
Encoding: 163 163 102
Width: 1118
Flags: W
HStem: 0 232<114 214.636> 0 200<334 1047> 597 200<255 382 638 968> 1231 235<1135.31 1234> 1318 200<805.89 1135.94>
DStem2: 276.733 0 496.733 0 0.173648 0.984808<403.167 606.21 847.625 1290.95>
LayerCount: 3
Fore
SplineSet
1203 1231 m 1x30
 1128 1290 1037 1318 959 1318 c 3
 796 1318 711 1212 680 1036 c 2
 638 797 l 1
 1004 797 l 1
 968 597 l 1
 602 597 l 1
 559 353 436 262 334 200 c 1
 1082 200 l 1
 1047 0 l 1
 73 0 l 1x68
 114 232 l 1
 280 279 342 384 382 597 c 1
 219 597 l 1
 255 797 l 1
 418 797 l 1
 463 1055 l 2
 512 1331 718 1518 976 1518 c 3xa8
 1055 1518 1125 1511 1275 1466 c 1
 1234 1231 l 1
 1203 1231 l 1x30
EndSplineSet
Validated: 1
Layer: 2
SplineSet
1203 1231 m 1,0,1
 1092 1318 1092 1318 959 1318 c 0,2,3
 730 1318 730 1318 680 1036 c 2,4,-1
 638 797 l 1,5,-1
 1004 797 l 1,6,-1
 968 597 l 1,7,-1
 602 597 l 1,8,9
 590 527 590 527 567 468 c 128,-1,10
 544 409 544 409 519 370 c 128,-1,11
 494 331 494 331 459 296 c 128,-1,12
 424 261 424 261 397.5 241.5 c 128,-1,13
 371 222 371 222 334 200 c 1,14,-1
 1082 200 l 1,15,-1
 1047 0 l 1,16,-1
 73 0 l 1,17,-1
 114 232 l 1,18,19
 235 266 235 266 293 349 c 128,-1,20
 351 432 351 432 382 597 c 1,21,-1
 219 597 l 1,22,-1
 255 797 l 1,23,-1
 418 797 l 1,24,-1
 463 1055 l 2,25,26
 500 1262 500 1262 641.5 1390 c 128,-1,27
 783 1518 783 1518 976 1518 c 0,28,29
 1102 1518 1102 1518 1275 1466 c 1,30,-1
 1234 1231 l 1,31,-1
 1203 1231 l 1,0,1
EndSplineSet
EndChar

StartChar: currency
Encoding: 164 164 103
Width: 1118
Flags: W
HStem: 310 200<565.647 751.651> 812 200<601.026 787.498>
VStem: 322 221<530.219 752.99> 811 223<570.487 790.676>
DStem2: 91 273 195 141 0.761412 0.648268<0 346.08 1048.62 1398.23> 380 1180 227 1051 0.636332 -0.771415<2.15368 290.429 889.564 1176.42>
LayerCount: 3
Fore
SplineSet
322 608 m 3
 322 706 362 776 405 833 c 1
 227 1051 l 1
 380 1180 l 1
 558 964 l 1
 624 1000 686 1012 738 1012 c 3
 806 1012 863 989 903 965 c 1
 1156 1179 l 1
 1265 1052 l 1
 1010 834 l 1
 1025 797 1034 762 1034 721 c 3
 1034 627 1005 562 949 488 c 1
 1128 272 l 1
 976 143 l 1
 798 358 l 1
 733 324 684 310 615 310 c 3
 547 310 488 334 450 359 c 1
 195 141 l 1
 91 273 l 1
 343 489 l 1
 328 529 322 571 322 608 c 3
703 812 m 3
 615 812 543 724 543 631 c 3
 543 567 580 510 650 510 c 3
 737 510 811 597 811 690 c 3
 811 754 773 812 703 812 c 3
EndSplineSet
Validated: 1
Layer: 2
SplineSet
322 608 m 3,0,1
 322 723 322 723 405 833 c 1,2,-1
 227 1051 l 1,3,-1
 380 1180 l 1,4,-1
 558 964 l 1,5,6
 646 1012 646 1012 738 1012 c 0,7,8
 825 1012 825 1012 903 965 c 1,9,-1
 1156 1179 l 1,10,-1
 1265 1052 l 1,11,-1
 1010 834 l 1,12,13
 1034 775 1034 775 1034 721 c 0,14,15
 1034 653 1034 653 1013.5 599.5 c 128,-1,16
 993 546 993 546 949 488 c 1,17,-1
 1128 272 l 1,18,-1
 976 143 l 1,19,-1
 798 358 l 1,20,21
 706 310 706 310 615 310 c 128,-1,22
 524 310 524 310 450 359 c 1,23,-1
 195 141 l 1,24,-1
 91 273 l 1,25,-1
 343 489 l 1,26,27
 322 545 322 545 322 608 c 3,0,1
703 812 m 3,28,29
 638 812 638 812 590.5 757 c 128,-1,30
 543 702 543 702 543 631 c 0,31,32
 543 580 543 580 571.5 545 c 128,-1,33
 600 510 600 510 650 510 c 0,34,35
 715 510 715 510 763 565 c 128,-1,36
 811 620 811 620 811 690 c 0,37,38
 811 741 811 741 782 776.5 c 128,-1,39
 753 812 753 812 703 812 c 3,28,29
EndSplineSet
EndChar

StartChar: yen
Encoding: 165 165 104
Width: 1118
Flags: W
HStem: 0 21G<439 682.5> 320 220<194 495 772 1075> 1431 20G<270 544.672 1084.16 1357>
DStem2: 539 1451 270 1451 0.303295 -0.952897<0 626.46> 710 848 784 608 0.562149 0.827036<0 716.254>
LayerCount: 3
Fore
SplineSet
1357 1451 m 1
 784 608 l 1
 772 540 l 1
 1114 540 l 1
 1075 320 l 1
 735 320 l 1
 679 0 l 1
 439 0 l 1
 495 320 l 1
 155 320 l 1
 194 540 l 1
 536 540 l 1
 545 587 l 1
 270 1451 l 1
 539 1451 l 1
 710 848 l 1
 1097 1451 l 1
 1357 1451 l 1
EndSplineSet
Validated: 1
Layer: 2
SplineSet
1357 1451 m 1,0,-1
 784 608 l 1,1,-1
 772 540 l 1,2,-1
 1114 540 l 1,3,-1
 1075 320 l 1,4,-1
 735 320 l 1,5,-1
 679 0 l 1,6,-1
 439 0 l 1,7,-1
 495 320 l 1,8,-1
 155 320 l 1,9,-1
 194 540 l 1,10,-1
 536 540 l 1,11,-1
 545 587 l 1,12,-1
 270 1451 l 1,13,-1
 539 1451 l 1,14,-1
 710 848 l 1,15,-1
 1097 1451 l 1,16,-1
 1357 1451 l 1,0,-1
EndSplineSet
EndChar

StartChar: brokenbar
Encoding: 166 166 105
Width: 783
Flags: W
VStem: 212 563
DStem2: 212 -392 432 -392 0.173648 0.984808<38.2026 810.361 1205.98 1977.97>
LayerCount: 3
Fore
SplineSet
635 758 m 1
 415 758 l 1
 555 1556 l 1
 775 1556 l 1
 635 758 l 1
432 -392 m 1
 212 -392 l 1
 353 406 l 1
 573 406 l 1
 432 -392 l 1
EndSplineSet
Validated: 1
Layer: 2
SplineSet
635 758 m 1,0,-1
 415 758 l 1,1,-1
 555 1556 l 1,2,-1
 775 1556 l 1,3,-1
 635 758 l 1,0,-1
432 -392 m 1,4,-1
 212 -392 l 1,5,-1
 353 406 l 1,6,-1
 573 406 l 1,7,-1
 432 -392 l 1,4,-1
EndSplineSet
EndChar

StartChar: section
Encoding: 167 167 106
Width: 1118
Flags: W
HStem: -404 200<252.16 663.447> -338 221<135 234.099> 1252 221<1085.15 1183> 1339 200<648.589 1062.62>
VStem: 190 231<434.807 658.016> 328 228<1045.75 1254.5> 762 227<-116.38 90.6179> 896 231<473.044 696.702>
DStem2: 565 384 487 177 0.950461 -0.310843<-152.459 198.011> 702 995 593 802 0.958647 -0.284598<-83.1595 253.82>
LayerCount: 3
Fore
SplineSet
724 332 m 1x09
 771 359 896 451 896 600 c 3
 896 705 813 730 681 773 c 2
 593 802 l 1
 448 717 421 618 421 532 c 3
 421 443 479 413 565 384 c 2
 724 332 l 1x09
473 -204 m 3x82
 592 -204 762 -160 762 1 c 3
 762 77 710 111 615 139 c 2
 487 177 l 2
 340 221 190 281 190 463 c 3x8a
 190 604 241 741 445 861 c 1
 391 897 328 961 328 1079 c 3
 328 1317 514 1539 899 1539 c 3x94
 1033 1539 1127 1510 1222 1473 c 1
 1183 1252 l 1
 1153 1252 l 1x24
 1001 1336 895 1339 843 1339 c 3
 697 1339 556 1282 556 1141 c 3
 556 1066 607 1024 702 995 c 2
 830 957 l 2
 1005 905 1127 834 1127 671 c 3x15
 1127 524 1077 392 873 274 c 1
 929 238 989 174 989 58 c 3
 989 -157 823 -404 419 -404 c 3x92
 290 -404 186 -373 96 -338 c 1
 135 -117 l 1
 165 -117 l 1x42
 222 -150 336 -204 473 -204 c 3x82
EndSplineSet
Validated: 1
Layer: 2
SplineSet
724 332 m 1,0,1
 741 342 741 342 760 356 c 128,-1,2
 779 370 779 370 804.5 395.5 c 128,-1,3
 830 421 830 421 849.5 449 c 128,-1,4
 869 477 869 477 882.5 517.5 c 128,-1,5
 896 558 896 558 896 600 c 0,6,7
 896 626 896 626 890.5 646 c 128,-1,8
 885 666 885 666 868.5 682.5 c 128,-1,9
 852 699 852 699 839.5 709.5 c 128,-1,10
 827 720 827 720 794.5 733 c 128,-1,11
 762 746 762 746 744 752 c 128,-1,12
 726 758 726 758 681 773 c 2,13,-1
 593 802 l 1,14,15
 541 771 541 771 505.5 736.5 c 128,-1,16
 470 702 470 702 452.5 666.5 c 128,-1,17
 435 631 435 631 428 599.5 c 128,-1,18
 421 568 421 568 421 532 c 0,19,20
 421 471 421 471 456 440 c 128,-1,21
 491 409 491 409 565 384 c 2,22,-1
 724 332 l 1,0,1
473 -204 m 3,23,24
 511 -204 511 -204 549 -198.5 c 128,-1,25
 587 -193 587 -193 626 -178 c 128,-1,26
 665 -163 665 -163 694.5 -141 c 128,-1,27
 724 -119 724 -119 743 -82 c 128,-1,28
 762 -45 762 -45 762 1 c 0,29,30
 762 55 762 55 726.5 86 c 128,-1,31
 691 117 691 117 615 139 c 2,32,-1
 487 177 l 2,33,34
 435 193 435 193 398.5 206.5 c 128,-1,35
 362 220 362 220 319.5 244 c 128,-1,36
 277 268 277 268 251 296.5 c 128,-1,37
 225 325 225 325 207.5 367.5 c 128,-1,38
 190 410 190 410 190 463 c 0,39,40
 190 539 190 539 210 603 c 128,-1,41
 230 667 230 667 288.5 735.5 c 128,-1,42
 347 804 347 804 445 861 c 1,43,44
 328 939 328 939 328 1079 c 0,45,46
 328 1170 328 1170 364 1251.5 c 128,-1,47
 400 1333 400 1333 468.5 1398 c 128,-1,48
 537 1463 537 1463 648 1501 c 128,-1,49
 759 1539 759 1539 899 1539 c 0,50,51
 1053 1539 1053 1539 1222 1473 c 1,52,-1
 1183 1252 l 1,53,-1
 1153 1252 l 1,54,55
 996 1339 996 1339 843 1339 c 0,56,57
 786 1339 786 1339 736 1327.5 c 128,-1,58
 686 1316 686 1316 645 1293 c 128,-1,59
 604 1270 604 1270 580 1231 c 128,-1,60
 556 1192 556 1192 556 1141 c 0,61,62
 556 1086 556 1086 592 1052 c 128,-1,63
 628 1018 628 1018 702 995 c 2,64,-1
 830 957 l 2,65,66
 976 914 976 914 1051.5 849.5 c 128,-1,67
 1127 785 1127 785 1127 671 c 0,68,69
 1127 550 1127 550 1071.5 453.5 c 128,-1,70
 1016 357 1016 357 873 274 c 1,71,72
 989 199 989 199 989 58 c 0,73,74
 989 -9 989 -9 969 -73 c 128,-1,75
 949 -137 949 -137 904 -197.5 c 128,-1,76
 859 -258 859 -258 794.5 -303.5 c 128,-1,77
 730 -349 730 -349 633 -376.5 c 128,-1,78
 536 -404 536 -404 419 -404 c 0,79,80
 266 -404 266 -404 96 -338 c 1,81,-1
 135 -117 l 1,82,-1
 165 -117 l 1,83,84
 315 -204 315 -204 473 -204 c 3,23,24
EndSplineSet
EndChar

StartChar: dieresis
Encoding: 168 168 107
Width: 1118
Flags: W
HStem: 1288 227<504 697 917 1110>
LayerCount: 3
Fore
SplineSet
1110 1288 m 1
 877 1288 l 1
 917 1515 l 1
 1150 1515 l 1
 1110 1288 l 1
697 1288 m 1
 464 1288 l 1
 504 1515 l 1
 737 1515 l 1
 697 1288 l 1
EndSplineSet
Validated: 1
Layer: 2
SplineSet
1110 1288 m 1,0,-1
 877 1288 l 1,1,-1
 917 1515 l 1,2,-1
 1150 1515 l 1,3,-1
 1110 1288 l 1,0,-1
697 1288 m 1,4,-1
 464 1288 l 1,5,-1
 504 1515 l 1,6,-1
 737 1515 l 1,7,-1
 697 1288 l 1,4,-1
EndSplineSet
EndChar

StartChar: copyright
Encoding: 169 169 108
Width: 1902
Flags: W
HStem: -226 142<701.221 1184.28> 164 200<906.967 1228.84> 959 200<1010.3 1316.47> 1393 142<949.068 1431.33>
VStem: 172 150<300.9 777.671> 619 224<430.809 781.902> 1811 149<532.723 1009.24>
LayerCount: 3
Fore
SplineSet
911 -226 m 3
 480 -226 172 93 172 505 c 3
 172 1086 713 1535 1222 1535 c 3
 1653 1535 1960 1216 1960 805 c 3
 1960 223 1420 -226 911 -226 c 3
1811 784 m 3
 1811 1129 1556 1393 1197 1393 c 3
 771 1393 322 1017 322 527 c 3
 322 182 575 -84 936 -84 c 3
 1364 -84 1811 295 1811 784 c 3
1402 852 m 1
 1356 899 1262 959 1155 959 c 3
 1039 959 843 864 843 572 c 3
 843 395 964 364 1050 364 c 3
 1186 364 1310 452 1335 471 c 1
 1373 471 l 1
 1333 245 l 1
 1185 185 1108 164 1011 164 c 3
 829 164 619 243 619 532 c 3
 619 925 885 1159 1186 1159 c 3
 1312 1159 1410 1118 1480 1080 c 1
 1440 852 l 1
 1402 852 l 1
EndSplineSet
Validated: 1
Layer: 2
SplineSet
911 -226 m 3,0,1
 699 -226 699 -226 529.5 -129.5 c 128,-1,2
 360 -33 360 -33 266 134 c 128,-1,3
 172 301 172 301 172 505 c 0,4,5
 172 647 172 647 214.5 783 c 128,-1,6
 257 919 257 919 331 1031 c 128,-1,7
 405 1143 405 1143 506.5 1237.5 c 128,-1,8
 608 1332 608 1332 723.5 1397 c 128,-1,9
 839 1462 839 1462 967.5 1498.5 c 128,-1,10
 1096 1535 1096 1535 1222 1535 c 0,11,12
 1381 1535 1381 1535 1519 1478.5 c 128,-1,13
 1657 1422 1657 1422 1753.5 1324.5 c 128,-1,14
 1850 1227 1850 1227 1905 1092 c 128,-1,15
 1960 957 1960 957 1960 805 c 0,16,17
 1960 663 1960 663 1917.5 527 c 128,-1,18
 1875 391 1875 391 1801.5 279 c 128,-1,19
 1728 167 1728 167 1626.5 72 c 128,-1,20
 1525 -23 1525 -23 1409.5 -88 c 128,-1,21
 1294 -153 1294 -153 1165.5 -189.5 c 128,-1,22
 1037 -226 1037 -226 911 -226 c 3,0,1
1811 784 m 3,23,24
 1811 955 1811 955 1733 1094 c 128,-1,25
 1655 1233 1655 1233 1514 1313 c 128,-1,26
 1373 1393 1373 1393 1197 1393 c 0,27,28
 1038 1393 1038 1393 880.5 1325.5 c 128,-1,29
 723 1258 723 1258 599.5 1144.5 c 128,-1,30
 476 1031 476 1031 399 868 c 128,-1,31
 322 705 322 705 322 527 c 0,32,33
 322 356 322 356 399.5 216.5 c 128,-1,34
 477 77 477 77 618 -3.5 c 128,-1,35
 759 -84 759 -84 936 -84 c 0,36,37
 1095 -84 1095 -84 1253 -16 c 128,-1,38
 1411 52 1411 52 1534 166 c 128,-1,39
 1657 280 1657 280 1734 443 c 128,-1,40
 1811 606 1811 606 1811 784 c 3,23,24
1402 852 m 1,41,42
 1361 894 1361 894 1294.5 926.5 c 128,-1,43
 1228 959 1228 959 1155 959 c 0,44,45
 1118 959 1118 959 1078 947 c 128,-1,46
 1038 935 1038 935 995.5 906 c 128,-1,47
 953 877 953 877 919.5 834.5 c 128,-1,48
 886 792 886 792 864.5 724 c 128,-1,49
 843 656 843 656 843 572 c 0,50,51
 843 509 843 509 862.5 465.5 c 128,-1,52
 882 422 882 422 915 401 c 128,-1,53
 948 380 948 380 980.5 372 c 128,-1,54
 1013 364 1013 364 1050 364 c 0,55,56
 1111 364 1111 364 1179.5 389 c 128,-1,57
 1248 414 1248 414 1279.5 433.5 c 128,-1,58
 1311 453 1311 453 1335 471 c 1,59,-1
 1373 471 l 1,60,-1
 1333 245 l 1,61,62
 1220 199 1220 199 1151 181.5 c 128,-1,63
 1082 164 1082 164 1011 164 c 0,64,65
 953 164 953 164 900 174 c 128,-1,66
 847 184 847 184 794.5 210.5 c 128,-1,67
 742 237 742 237 704 277.5 c 128,-1,68
 666 318 666 318 642.5 383.5 c 128,-1,69
 619 449 619 449 619 532 c 0,70,71
 619 675 619 675 665 795 c 128,-1,72
 711 915 711 915 789.5 993.5 c 128,-1,73
 868 1072 868 1072 970.5 1115.5 c 128,-1,74
 1073 1159 1073 1159 1186 1159 c 0,75,76
 1334 1159 1334 1159 1480 1080 c 1,77,-1
 1440 852 l 1,78,-1
 1402 852 l 1,41,42
EndSplineSet
EndChar

StartChar: ordfeminine
Encoding: 170 170 109
Width: 1010
Flags: W
HStem: 525 200<481.159 692.055> 999 200<557.056 846> 1335 200<449.881 866.792>
VStem: 240 226<740.976 927.378> 885 224<1198.19 1314.47>
DStem2: 762.592 525 982.592 525 0.173648 0.984808<63.5883 101.504 257.269 481.283 676.538 720.945>
LayerCount: 3
Fore
SplineSet
435 1486 m 1
 480 1499 623 1535 754 1535 c 3
 1012 1535 1109 1434 1109 1278 c 3
 1109 1252 1106 1223 1101 1194 c 2
 987 550 l 1
 767 550 l 1
 780 625 l 1
 694 549 574 525 497 525 c 3
 343 525 240 625 240 775 c 3
 240 1117 516 1180 881 1199 c 1
 883 1213 885 1225 885 1236 c 3
 885 1312 829 1335 717 1335 c 3
 662 1335 604 1330 434 1286 c 1
 400 1286 l 1
 435 1486 l 1
846 999 m 1
 644 985 466 981 466 822 c 3
 466 772 493 725 589 725 c 3
 634 725 706 730 815 823 c 1
 846 999 l 1
EndSplineSet
Validated: 1
Layer: 2
SplineSet
435 1486 m 1,0,1
 605 1535 605 1535 754 1535 c 0,2,3
 1109 1535 1109 1535 1109 1278 c 0,4,5
 1109 1240 1109 1240 1101 1194 c 2,6,-1
 987 550 l 1,7,-1
 767 550 l 1,8,-1
 780 625 l 1,9,10
 721 573 721 573 643 549 c 128,-1,11
 565 525 565 525 497 525 c 0,12,13
 381 525 381 525 310.5 594 c 128,-1,14
 240 663 240 663 240 775 c 0,15,16
 240 847 240 847 257 905 c 128,-1,17
 274 963 274 963 303 1005 c 128,-1,18
 332 1047 332 1047 378 1079 c 128,-1,19
 424 1111 424 1111 475 1131.5 c 128,-1,20
 526 1152 526 1152 595 1166 c 128,-1,21
 664 1180 664 1180 730 1187.5 c 128,-1,22
 796 1195 796 1195 881 1199 c 1,23,24
 885 1227 885 1227 885 1236 c 0,25,26
 885 1291 885 1291 844.5 1313 c 128,-1,27
 804 1335 804 1335 717 1335 c 0,28,29
 623 1335 623 1335 434 1286 c 1,30,-1
 400 1286 l 1,31,-1
 435 1486 l 1,0,1
846 999 m 1,32,33
 836 998 836 998 817.2087828 997.042537909 c 0,34,35
 775 994 775 994 754.5 992.5 c 128,-1,36
 734 991 734 991 697 987 c 128,-1,37
 660 983 660 983 641 979.5 c 128,-1,38
 622 976 622 976 593 969 c 128,-1,39
 564 962 564 962 549 953.5 c 128,-1,40
 534 945 534 945 515.5 932 c 128,-1,41
 497 919 497 919 488 903.5 c 128,-1,42
 479 888 479 888 472.5 867.5 c 128,-1,43
 466 847 466 847 466 822 c 0,44,45
 466 725 466 725 589 725 c 0,46,47
 700 725 700 725 815 823 c 1,48,-1
 846 999 l 1,32,33
EndSplineSet
EndChar

StartChar: guillemotleft
Encoding: 171 171 110
Width: 1174
Flags: W
DStem2: 421 652 193 601 0.694865 -0.71914<0 395.397> 211 704 421 652 0.797854 0.602851<136.201 607.617> 866 652 645 603 0.703119 -0.711073<0 372.659> 663 702 866 652 0.801606 0.597853<132.833 576.432>
LayerCount: 3
Fore
SplineSet
1087 156 m 1
 645 603 l 1
 663 702 l 1
 1261 1148 l 1
 1221 918 l 1
 866 652 l 1
 1127 386 l 1
 1087 156 l 1
651 127 m 1
 193 601 l 1
 211 704 l 1
 837 1177 l 1
 795 939 l 1
 421 652 l 1
 693 365 l 1
 651 127 l 1
EndSplineSet
Validated: 1
Layer: 2
SplineSet
1087 156 m 1,0,-1
 645 603 l 1,1,-1
 663 702 l 1,2,-1
 1261 1148 l 1,3,-1
 1221 918 l 1,4,-1
 866 652 l 1,5,-1
 1127 386 l 1,6,-1
 1087 156 l 1,0,-1
651 127 m 1,7,-1
 193 601 l 1,8,-1
 211 704 l 1,9,-1
 837 1177 l 1,10,-1
 795 939 l 1,11,-1
 421 652 l 1,12,-1
 693 365 l 1,13,-1
 651 127 l 1,7,-1
EndSplineSet
EndChar

StartChar: logicalnot
Encoding: 172 172 111
Width: 1490
Flags: W
HStem: 578 200<278 1221>
DStem2: 1126 41 1346 41 0.173648 0.984808<38.2026 545.338>
LayerCount: 3
Fore
SplineSet
1346 41 m 1
 1126 41 l 1
 1221 578 l 1
 243 578 l 1
 278 778 l 1
 1476 778 l 1
 1346 41 l 1
EndSplineSet
Validated: 1
Layer: 2
SplineSet
1346 41 m 1,0,-1
 1126 41 l 1,1,-1
 1221 578 l 1,2,-1
 243 578 l 1,3,-1
 278 778 l 1,4,-1
 1476 778 l 1,5,-1
 1346 41 l 1,0,-1
EndSplineSet
EndChar

StartChar: registered
Encoding: 174 174 113
Width: 1902
Flags: W
HStem: -226 142<701.221 1184.28> 946 200<1021 1245.83> 1393 142<949.068 1431.33>
VStem: 172 150<300.9 777.671> 1252 226<795.162 1006.12> 1811 149<532.723 1009.24>
DStem2: 594.061 -226 814.061 -226 0.173648 0.984808<469.759 830.306 1033.34 1228.33> 1258 619 1028 554 0.526355 -0.850265<0 351.848>
LayerCount: 3
Fore
SplineSet
911 -226 m 3
 480 -226 172 93 172 505 c 3
 172 1086 713 1535 1222 1535 c 3
 1653 1535 1960 1216 1960 805 c 3
 1960 223 1420 -226 911 -226 c 3
1811 784 m 3
 1811 1129 1556 1393 1197 1393 c 3
 771 1393 322 1017 322 527 c 3
 322 182 575 -84 936 -84 c 3
 1364 -84 1811 295 1811 784 c 3
1258 619 m 1
 1518 199 l 1
 1248 199 l 1
 1028 554 l 1
 952 554 l 1
 889 199 l 1
 669 199 l 1
 836 1146 l 1
 1131 1146 l 2
 1354 1146 1478 1078 1478 932 c 3
 1478 786 1401 687 1258 619 c 1
1046 754 m 2
 1203 754 1252 815 1252 882 c 3
 1252 936 1185 946 1097 946 c 2
 1021 946 l 1
 987 754 l 1
 1046 754 l 2
EndSplineSet
Validated: 1
Layer: 2
SplineSet
911 -226 m 3,0,1
 699 -226 699 -226 529.5 -129.5 c 128,-1,2
 360 -33 360 -33 266 134 c 128,-1,3
 172 301 172 301 172 505 c 0,4,5
 172 647 172 647 214.5 783 c 128,-1,6
 257 919 257 919 331 1031 c 128,-1,7
 405 1143 405 1143 506.5 1237.5 c 128,-1,8
 608 1332 608 1332 723.5 1397 c 128,-1,9
 839 1462 839 1462 967.5 1498.5 c 128,-1,10
 1096 1535 1096 1535 1222 1535 c 0,11,12
 1381 1535 1381 1535 1519 1478.5 c 128,-1,13
 1657 1422 1657 1422 1753.5 1324.5 c 128,-1,14
 1850 1227 1850 1227 1905 1092 c 128,-1,15
 1960 957 1960 957 1960 805 c 0,16,17
 1960 663 1960 663 1917.5 527 c 128,-1,18
 1875 391 1875 391 1801.5 279 c 128,-1,19
 1728 167 1728 167 1626.5 72 c 128,-1,20
 1525 -23 1525 -23 1409.5 -88 c 128,-1,21
 1294 -153 1294 -153 1165.5 -189.5 c 128,-1,22
 1037 -226 1037 -226 911 -226 c 3,0,1
1811 784 m 3,23,24
 1811 955 1811 955 1733 1094 c 128,-1,25
 1655 1233 1655 1233 1514 1313 c 128,-1,26
 1373 1393 1373 1393 1197 1393 c 0,27,28
 1038 1393 1038 1393 880.5 1325.5 c 128,-1,29
 723 1258 723 1258 599.5 1144.5 c 128,-1,30
 476 1031 476 1031 399 868 c 128,-1,31
 322 705 322 705 322 527 c 0,32,33
 322 356 322 356 399.5 216.5 c 128,-1,34
 477 77 477 77 618 -3.5 c 128,-1,35
 759 -84 759 -84 936 -84 c 0,36,37
 1095 -84 1095 -84 1253 -16 c 128,-1,38
 1411 52 1411 52 1534 166 c 128,-1,39
 1657 280 1657 280 1734 443 c 128,-1,40
 1811 606 1811 606 1811 784 c 3,23,24
1258 619 m 1,41,-1
 1518 199 l 1,42,-1
 1248 199 l 1,43,-1
 1028 554 l 1,44,-1
 952 554 l 1,45,-1
 889 199 l 1,46,-1
 669 199 l 1,47,-1
 836 1146 l 1,48,-1
 1131 1146 l 2,49,50
 1478 1146 1478 1146 1478 932 c 0,51,52
 1478 724 1478 724 1258 619 c 1,41,-1
1046 754 m 2,53,54
 1155 754 1155 754 1203.5 790 c 128,-1,55
 1252 826 1252 826 1252 882 c 0,56,57
 1252 919 1252 919 1212 932.5 c 128,-1,58
 1172 946 1172 946 1097 946 c 2,59,-1
 1021 946 l 1,60,-1
 987 754 l 1,61,-1
 1046 754 l 2,53,54
EndSplineSet
EndChar

StartChar: macron
Encoding: 175 175 114
Width: 1118
Flags: W
HStem: 1643 162<302 1424>
LayerCount: 3
Fore
SplineSet
1424 1643 m 1
 274 1643 l 1
 302 1805 l 1
 1452 1805 l 1
 1424 1643 l 1
EndSplineSet
Validated: 1
Layer: 2
SplineSet
1424 1643 m 1,0,-1
 274 1643 l 1,1,-1
 302 1805 l 1,2,-1
 1452 1805 l 1,3,-1
 1424 1643 l 1,0,-1
EndSplineSet
EndChar

StartChar: degree
Encoding: 176 176 115
Width: 964
Flags: W
HStem: 739 200<550.176 764.526> 1331 200<605.782 814.795>
VStem: 278 224<989.568 1228.08> 862 224<1040.28 1285.19>
LayerCount: 3
Fore
SplineSet
752 1531 m 3
 948 1531 1086 1399 1086 1209 c 3
 1086 934 848 739 612 739 c 3
 417 739 278 870 278 1060 c 3
 278 1335 515 1531 752 1531 c 3
717 1331 m 3
 620 1331 502 1225 502 1101 c 3
 502 1007 575 939 648 939 c 3
 749 939 862 1050 862 1169 c 3
 862 1262 793 1331 717 1331 c 3
EndSplineSet
Validated: 1
Layer: 2
SplineSet
752 1531 m 3,0,1
 899 1531 899 1531 992.5 1441 c 128,-1,2
 1086 1351 1086 1351 1086 1209 c 0,3,4
 1086 1109 1086 1109 1045 1020 c 128,-1,5
 1004 931 1004 931 937.5 870.5 c 128,-1,6
 871 810 871 810 785.5 774.5 c 128,-1,7
 700 739 700 739 612 739 c 0,8,9
 465 739 465 739 371.5 828.5 c 128,-1,10
 278 918 278 918 278 1060 c 0,11,12
 278 1193 278 1193 347.5 1302.5 c 128,-1,13
 417 1412 417 1412 525 1471.5 c 128,-1,14
 633 1531 633 1531 752 1531 c 3,0,1
717 1331 m 3,15,16
 641 1331 641 1331 571.5 1261 c 128,-1,17
 502 1191 502 1191 502 1101 c 0,18,19
 502 1033 502 1033 546.5 986 c 128,-1,20
 591 939 591 939 648 939 c 0,21,22
 725 939 725 939 793.5 1010 c 128,-1,23
 862 1081 862 1081 862 1169 c 0,24,25
 862 1237 862 1237 818.5 1284 c 128,-1,26
 775 1331 775 1331 717 1331 c 3,15,16
EndSplineSet
EndChar

StartChar: plusminus
Encoding: 177 177 116
Width: 1490
Flags: W
HStem: 143 220<210 689 929 1369> 723 220<312 752 1031 1471>
DStem2: 650.208 143 890.208 143 0.173648 0.984808<265.069 588.865 853.97 1294.66>
LayerCount: 3
Fore
SplineSet
1369 143 m 1
 171 143 l 1
 210 363 l 1
 689 363 l 1
 752 723 l 1
 273 723 l 1
 312 943 l 1
 791 943 l 1
 875 1418 l 1
 1115 1418 l 1
 1031 943 l 1
 1510 943 l 1
 1471 723 l 1
 992 723 l 1
 929 363 l 1
 1408 363 l 1
 1369 143 l 1
EndSplineSet
Validated: 1
Layer: 2
SplineSet
1369 143 m 1,0,-1
 171 143 l 1,1,-1
 210 363 l 1,2,-1
 689 363 l 1,3,-1
 752 723 l 1,4,-1
 273 723 l 1,5,-1
 312 943 l 1,6,-1
 791 943 l 1,7,-1
 875 1418 l 1,8,-1
 1115 1418 l 1,9,-1
 1031 943 l 1,10,-1
 1510 943 l 1,11,-1
 1471 723 l 1,12,-1
 992 723 l 1,13,-1
 929 363 l 1,14,-1
 1408 363 l 1,15,-1
 1369 143 l 1,0,-1
EndSplineSet
EndChar

StartChar: uni00B2
Encoding: 178 178 117
Width: 1010
Flags: W
HStem: 534 200<579 913> 1318 200<640.062 809.188>
VStem: 383 220<1179 1278.44> 818 222<1145.85 1307.42>
LayerCount: 3
Fore
SplineSet
770 1518 m 3
 936 1518 1040 1425 1040 1287 c 3
 1040 1020 724 866 579 734 c 1
 948 734 l 1
 913 534 l 1
 244 534 l 1
 283 681 364 794 451 868 c 0
 610 1004 818 1125 818 1246 c 3
 818 1287 775 1318 733 1318 c 3
 653 1318 621 1266 603 1179 c 1
 383 1179 l 1
 419 1385 556 1518 770 1518 c 3
EndSplineSet
Validated: 1
Layer: 2
SplineSet
770 1518 m 3,0,1
 894 1518 894 1518 967 1454.5 c 128,-1,2
 1040 1391 1040 1391 1040 1287 c 0,3,4
 1040 1223 1040 1223 1015 1162 c 128,-1,5
 990 1101 990 1101 953 1054.5 c 128,-1,6
 916 1008 916 1008 863 959.5 c 128,-1,7
 810 911 810 911 763.5 877 c 128,-1,8
 717 843 717 843 663 802 c 128,-1,9
 609 761 609 761 579 734 c 1,10,-1
 948 734 l 1,11,-1
 913 534 l 1,12,-1
 244 534 l 1,13,14
 298 738 298 738 451 868 c 0,15,16
 488 900 488 900 549 947 c 128,-1,17
 610 994 610 994 650.5 1026.5 c 128,-1,18
 691 1059 691 1059 733 1098.5 c 128,-1,19
 775 1138 775 1138 796.5 1174.5 c 128,-1,20
 818 1211 818 1211 818 1246 c 0,21,22
 818 1276 818 1276 792 1297 c 128,-1,23
 766 1318 766 1318 733 1318 c 0,24,25
 676 1318 676 1318 646.5 1283.5 c 128,-1,26
 617 1249 617 1249 603 1179 c 1,27,-1
 383 1179 l 1,28,29
 410 1336 410 1336 511 1427 c 128,-1,30
 612 1518 612 1518 770 1518 c 3,0,1
EndSplineSet
EndChar

StartChar: uni00B3
Encoding: 179 179 118
Width: 1010
Flags: W
HStem: 528 200<558.079 726.123> 946 200<591 746.556> 1318 200<642.738 780.456>
VStem: 313 227<737.445 863> 391 220<1198 1289.59> 758 226<760.953 930.358> 785 223<1169.19 1312.03>
LayerCount: 3
Fore
SplineSet
1008 1298 m 3xea
 1008 1197 969 1113 914 1068 c 1
 964 1038 984 985 984 920 c 3
 984 687 795 528 583 528 c 3
 417 528 313 627 313 788 c 3
 313 812 315 837 320 863 c 1
 540 863 l 1
 540 785 563 728 618 728 c 3
 702 728 758 785 758 859 c 3xf4
 758 909 718 946 647 946 c 0
 613 946 581 936 553 928 c 1
 591 1146 l 1
 725 1146 785 1166 785 1257 c 3
 785 1284 748 1318 722 1318 c 3
 660 1318 632 1273 611 1198 c 1
 391 1198 l 1
 424 1386 562 1518 753 1518 c 3
 900 1518 1008 1433 1008 1298 c 3xea
EndSplineSet
Validated: 1
Layer: 2
SplineSet
1008 1298 m 3,0,1
 1008 1224 1008 1224 982.5 1163.5 c 128,-1,2
 957 1103 957 1103 914 1068 c 1,3,4
 984 1026 984 1026 984 920 c 0,5,6
 984 750 984 750 865.5 639 c 128,-1,7
 747 528 747 528 583 528 c 0,8,9
 458 528 458 528 385.5 597.5 c 128,-1,10
 313 667 313 667 313 788 c 0,11,12
 313 827 313 827 320 863 c 1,13,-1
 540 863 l 1,14,15
 540 801 540 801 559 764.5 c 128,-1,16
 578 728 578 728 618 728 c 0,17,18
 680 728 680 728 719 765.5 c 128,-1,19
 758 803 758 803 758 859 c 0,20,21
 758 898 758 898 728.5 922 c 128,-1,22
 699 946 699 946 647 946 c 0,23,24
 616 946 616 946 553 928 c 1,25,-1
 591 1146 l 1,26,27
 697 1146 697 1146 741 1168.5 c 128,-1,28
 785 1191 785 1191 785 1257 c 0,29,30
 785 1277 785 1277 763.5 1297.5 c 128,-1,31
 742 1318 742 1318 722 1318 c 0,32,33
 678 1318 678 1318 653 1288.5 c 128,-1,34
 628 1259 628 1259 611 1198 c 1,35,-1
 391 1198 l 1,36,37
 416 1341 416 1341 514 1429.5 c 128,-1,38
 612 1518 612 1518 753 1518 c 0,39,40
 865 1518 865 1518 936.5 1458 c 128,-1,41
 1008 1398 1008 1398 1008 1298 c 3,0,1
EndSplineSet
EndChar

StartChar: acute
Encoding: 180 180 119
Width: 1118
Flags: W
HStem: 1286 406
VStem: 651 549
LayerCount: 3
Fore
SplineSet
1200 1692 m 1
 833 1286 l 1
 651 1286 l 1
 916 1692 l 1
 1200 1692 l 1
EndSplineSet
Validated: 1
Layer: 2
SplineSet
1200 1692 m 1,0,-1
 833 1286 l 1,1,-1
 651 1286 l 1,2,-1
 916 1692 l 1,3,-1
 1200 1692 l 1,0,-1
EndSplineSet
EndChar

StartChar: micro
Encoding: 181 181 120
Width: 1163
Flags: W
HStem: -13 200<457.696 745.722>
DStem2: 47 -412 267 -412 0.173648 0.984808<38.2026 549.016 723.405 1552.66> 750.353 -412 970.353 -412 0.173648 0.984808<456.558 518.804 670.39 1552.59>
LayerCount: 3
Fore
SplineSet
611 187 m 3
 717 187 797 228 875 297 c 1
 1020 1117 l 1
 1240 1117 l 1
 1043 0 l 1
 823 0 l 1
 840 99 l 1
 720 -1 656 -13 576 -13 c 3
 481 -13 422 10 356 91 c 1
 267 -412 l 1
 47 -412 l 1
 317 1117 l 1
 537 1117 l 1
 392 297 l 1
 441 227 513 187 611 187 c 3
EndSplineSet
Validated: 1
Layer: 2
SplineSet
611 187 m 3,0,1
 751 187 751 187 875 297 c 1,2,-1
 1020 1117 l 1,3,-1
 1240 1117 l 1,4,-1
 1043 0 l 1,5,-1
 823 0 l 1,6,-1
 840 99 l 1,7,8
 757 30 757 30 700.5 8.5 c 128,-1,9
 644 -13 644 -13 576 -13 c 0,10,11
 503 -13 503 -13 453.5 9.5 c 128,-1,12
 404 32 404 32 356 91 c 1,13,-1
 267 -412 l 1,14,-1
 47 -412 l 1,15,-1
 317 1117 l 1,16,-1
 537 1117 l 1,17,-1
 392 297 l 1,18,19
 469 187 469 187 611 187 c 3,0,1
EndSplineSet
EndChar

StartChar: paragraph
Encoding: 182 182 121
Width: 1118
Flags: W
HStem: 1289 200<898 1005>
DStem2: 387 -363 607 -363 0.173648 0.984808<38.2026 939.252> 714 -363 934 -363 0.173648 0.984808<38.2026 1677.43>
LayerCount: 3
Fore
SplineSet
775 1489 m 2
 1261 1489 l 1
 934 -363 l 1
 714 -363 l 1
 1005 1289 l 1
 898 1289 l 1
 607 -363 l 1
 387 -363 l 1
 550 562 l 1
 354 573 214 713 214 933 c 3
 214 1296 486 1489 775 1489 c 2
EndSplineSet
Validated: 1
Layer: 2
SplineSet
775 1489 m 2,0,-1
 1261 1489 l 1,1,-1
 934 -363 l 1,2,-1
 714 -363 l 1,3,-1
 1005 1289 l 1,4,-1
 898 1289 l 1,5,-1
 607 -363 l 1,6,-1
 387 -363 l 1,7,-1
 550 562 l 1,8,9
 400 570 400 570 307 670.5 c 128,-1,10
 214 771 214 771 214 933 c 0,11,12
 214 1065 214 1065 261 1172.5 c 128,-1,13
 308 1280 308 1280 386.5 1348 c 128,-1,14
 465 1416 465 1416 565 1452.5 c 128,-1,15
 665 1489 665 1489 775 1489 c 2,0,-1
EndSplineSet
EndChar

StartChar: periodcentered
Encoding: 183 183 122
Width: 724
Flags: W
HStem: 816 317<427 642>
VStem: 371 327
LayerCount: 3
Fore
SplineSet
642 816 m 1
 371 816 l 1
 427 1133 l 1
 698 1133 l 1
 642 816 l 1
EndSplineSet
Validated: 1
Layer: 2
SplineSet
642 816 m 1,0,-1
 371 816 l 1,1,-1
 427 1133 l 1,2,-1
 698 1133 l 1,3,-1
 642 816 l 1,0,-1
EndSplineSet
EndChar

StartChar: cedilla
Encoding: 184 184 123
Width: 1118
Flags: W
HStem: -428 200<247.908 514.442> -400 206<239 389.183>
VStem: 572 218<-161.48 47>
LayerCount: 3
Fore
SplineSet
267 -194 m 1x60
 307 -214 352 -228 400 -228 c 3
 486 -228 535 -190 552 -96 c 0
 560 -51 560 -40 572 47 c 1
 790 47 l 1
 787 11 781 -44 775 -78 c 0
 726 -354 522 -428 391 -428 c 3xa0
 353 -428 266 -420 202 -400 c 1
 239 -194 l 1
 267 -194 l 1x60
EndSplineSet
Validated: 1
Layer: 2
SplineSet
267 -194 m 1,0,1
 335 -228 335 -228 400 -228 c 0,2,3
 466 -228 466 -228 502.5 -196.5 c 128,-1,4
 539 -165 539 -165 552 -96 c 0,5,6
 553 -89 553 -89 572 47 c 1,7,-1
 790 47 l 1,8,9
 784 -29 784 -29 775 -78 c 0,10,11
 761 -157 761 -157 728.5 -220 c 128,-1,12
 696 -283 696 -283 656.5 -321 c 128,-1,13
 617 -359 617 -359 568.5 -384 c 128,-1,14
 520 -409 520 -409 476.5 -418.5 c 128,-1,15
 433 -428 433 -428 391 -428 c 0,16,17
 292 -428 292 -428 202 -400 c 1,18,-1
 239 -194 l 1,19,-1
 267 -194 l 1,0,1
EndSplineSet
EndChar

StartChar: uni0E01
Encoding: 3585 3585 124
Width: 1417
VWidth: 2045
Flags: W
HStem: 0 21G<260 483.538 1042 1265.53> 701 220<604 715> 1064 220<694.866 1032.99>
VStem: 1171 224<503.844 923.931>
DStem2: 260 0 480 0 0.173648 0.984808<38.2026 711.883> 1042 0 1262 0 0.173648 0.984808<38.2026 775.793>
LayerCount: 3
Fore
SplineSet
1165 700 m 2
 1169 723 1171 745 1171 766 c 0
 1171 941 1042 1064 868 1064 c 0
 697 1064 584 951 557 921 c 1
 753 921 l 1
 715 701 l 1
 604 701 l 1
 480 0 l 1
 260 0 l 1
 384 701 l 1
 224 701 l 1
 281 1022 581 1284 908 1284 c 0
 1183 1284 1395 1092 1395 809 c 0
 1395 775 1392 739 1386 702 c 2
 1262 0 l 1
 1042 0 l 1
 1165 700 l 2
EndSplineSet
Validated: 1
Layer: 2
SplineSet
1165 700 m 2,0,1
 1171 734.5 1171 734.5 1171 766 c 0,2,3
 1171 897 1171 897 1085 980.5 c 128,-1,4
 999 1064 999 1064 868 1064 c 0,5,6
 809 1064 809 1064 753 1047 c 128,-1,7
 697 1030 697 1030 657 1003 c 128,-1,8
 617 976 617 976 595 957 c 128,-1,9
 573 938 573 938 557 921 c 1,10,-1
 753 921 l 1,11,-1
 715 701 l 1,12,-1
 604 701 l 1,13,-1
 480 0 l 1,14,-1
 260 0 l 1,15,-1
 384 701 l 1,16,-1
 224 701 l 1,17,18
 252 859 252 859 352 993 c 128,-1,19
 452 1127 452 1127 600 1205.5 c 128,-1,20
 748 1284 748 1284 908 1284 c 0,21,22
 1117 1284 1117 1284 1256 1151.5 c 128,-1,23
 1395 1019 1395 1019 1395 809 c 0,24,25
 1395 758 1395 758 1386 702 c 2,26,-1
 1262 0 l 1,27,-1
 1042 0 l 1,28,-1
 1165 700 l 2,0,1
EndSplineSet
EndChar

StartChar: uni0E02
Encoding: 3586 3586 125
Width: 1410
VWidth: 2045
Flags: W
HStem: 0 220<450 560 780 1074> 633 188<421.753 578.461> 997 287<522.734 828.5> 1234 20G<1252.48 1476>
VStem: 230 186<828.077 972.815> 599 187<843.571 990.475> 846 222<780.766 1047.74>
DStem2: 521.208 0 741.208 0 0.173648 0.984808<261.596 633.6> 1035.21 0 1255 0 0.173648 0.984808<223.394 1273.29>
LayerCount: 3
Fore
SplineSet
715 1284 m 0xee
 942 1284 1068 1144 1068 965 c 0
 1068 693 850 618 819 440 c 2
 780 220 l 1
 1074 220 l 1
 1256 1254 l 1
 1476 1254 l 1xde
 1255 0 l 1
 411 0 l 1
 450 220 l 1
 560 220 l 1
 599 441 l 2
 644 699 846 708 846 932 c 0
 846 993 824 1055 744 1089 c 1
 772 1046 786 1000 786 952 c 0
 786 767 617 633 460 633 c 0
 322 633 230 731 230 858 c 0
 230 1112 519 1284 715 1284 c 0xee
496 821 m 0
 552 821 599 870 599 925 c 0
 599 968 565 997 524 997 c 0xee
 470 997 416 951 416 892 c 0
 416 849 448 821 496 821 c 0
EndSplineSet
Validated: 1
Layer: 2
SplineSet
715 1284 m 0,0,1
 880 1284 880 1284 974 1194 c 128,-1,2
 1068 1104 1068 1104 1068 965 c 0,3,4
 1068 889 1068 889 1045.5 824 c 128,-1,5
 1023 759 1023 759 989 712.5 c 128,-1,6
 955 666 955 666 920.5 624.5 c 128,-1,7
 886 583 886 583 856.5 535.5 c 128,-1,8
 827 488 827 488 819 440 c 2,9,-1
 780 220 l 1,10,-1
 1074 220 l 1,11,-1
 1256 1254 l 1,12,-1
 1476 1254 l 1,13,-1
 1255 0 l 1,14,-1
 411 0 l 1,15,-1
 450 220 l 1,16,-1
 560 220 l 1,17,-1
 599 441 l 2,18,19
 611 512 611 512 641.5 568.5 c 128,-1,20
 672 625 672 625 705.5 662 c 128,-1,21
 739 699 739 699 771.5 735.5 c 128,-1,22
 804 772 804 772 825 821 c 128,-1,23
 846 870 846 870 846 932 c 0,24,25
 846 1046 846 1046 744 1089 c 1,26,27
 786 1025 786 1025 786 952 c 0,28,29
 786 863 786 863 737 788.5 c 128,-1,30
 688 714 688 714 613.5 673.5 c 128,-1,31
 539 633 539 633 460 633 c 0,32,33
 358 633 358 633 294 697 c 128,-1,34
 230 761 230 761 230 858 c 0,35,36
 230 931 230 931 261.5 999.5 c 128,-1,37
 293 1068 293 1068 344.5 1118.5 c 128,-1,38
 396 1169 396 1169 459.5 1207 c 128,-1,39
 523 1245 523 1245 589.5 1264.5 c 128,-1,40
 656 1284 656 1284 715 1284 c 0,0,1
496 821 m 0,41,42
 538 821 538 821 568.5 852 c 128,-1,43
 599 883 599 883 599 925 c 0,44,45
 599 957 599 957 577 977 c 128,-1,46
 555 997 555 997 524 997 c 0,47,48
 482 997 482 997 449 966 c 128,-1,49
 416 935 416 935 416 892 c 0,50,51
 416 860 416 860 438 840.5 c 128,-1,52
 460 821 460 821 496 821 c 0,41,42
EndSplineSet
EndChar

StartChar: uni0E03
Encoding: 3587 3587 126
Width: 1542
VWidth: 2045
Flags: W
HStem: 0 220<570 680 900 1204> 488 190<434.802 589.888> 854 184<502.128 602.575> 1254 10G<504 638.545 892 1003.5 1382.48 1606>
VStem: 199 230<685.957 829.462> 611 191<699.65 847.224> 978 214<774.955 1060.74>
DStem2: 641.208 0 861.208 0 0.173648 0.984808<261.596 579.922> 1165.21 0 1385 0 0.173648 0.984808<223.394 1273.29>
LayerCount: 3
Fore
SplineSet
802 818 m 0
 802 628 622 488 474 488 c 0
 398 488 199 546 199 788 c 0
 199 1071 404 1234 604 1284 c 1
 756 1196 l 1
 932 1284 l 1
 1075 1239 1192 1125 1192 945 c 0
 1192 619 965 596 925 365 c 2
 900 220 l 1
 1204 220 l 1
 1386 1254 l 1
 1606 1254 l 1
 1385 0 l 1
 531 0 l 1
 570 220 l 1
 680 220 l 1
 709 385 l 2
 751 623 978 704 978 939 c 0
 978 1010 951 1057 889 1096 c 1
 721 1020 l 1
 578 1093 l 1
 531 1084 506 1066 500 1038 c 1
 748 1038 802 917 802 818 c 0
509 678 m 0
 565 678 611 727 611 782 c 0
 611 825 578 854 537 854 c 0
 483 854 429 808 429 749 c 0
 429 706 461 678 509 678 c 0
EndSplineSet
Validated: 1
Layer: 2
SplineSet
802 818 m 0,0,1
 802 727 802 727 750.5 649.5 c 128,-1,2
 699 572 699 572 624 530 c 128,-1,3
 549 488 549 488 474 488 c 0,4,5
 448 488 448 488 416 495.5 c 128,-1,6
 384 503 384 503 344.5 524.5 c 128,-1,7
 305 546 305 546 273.5 577.5 c 128,-1,8
 242 609 242 609 220.5 664 c 128,-1,9
 199 719 199 719 199 788 c 0,10,11
 199 890 199 890 233.5 977 c 128,-1,12
 268 1064 268 1064 327 1124 c 128,-1,13
 386 1184 386 1184 456 1224 c 128,-1,14
 526 1264 526 1264 604 1284 c 1,15,-1
 756 1196 l 1,16,-1
 932 1284 l 1,17,18
 1047 1248 1047 1248 1119.5 1160.5 c 128,-1,19
 1192 1073 1192 1073 1192 945 c 0,20,21
 1192 854 1192 854 1168.5 783 c 128,-1,22
 1145 712 1145 712 1109 665 c 128,-1,23
 1073 618 1073 618 1036.5 576.5 c 128,-1,24
 1000 535 1000 535 968 481 c 128,-1,25
 936 427 936 427 925 365 c 2,26,-1
 900 220 l 1,27,-1
 1204 220 l 1,28,-1
 1386 1254 l 1,29,-1
 1606 1254 l 1,30,-1
 1385 0 l 1,31,-1
 531 0 l 1,32,-1
 570 220 l 1,33,-1
 680 220 l 1,34,-1
 709 385 l 2,35,36
 720 450 720 450 752.5 510 c 128,-1,37
 785 570 785 570 822 616.5 c 128,-1,38
 859 663 859 663 895 710 c 128,-1,39
 931 757 931 757 954.5 815.5 c 128,-1,40
 978 874 978 874 978 939 c 0,41,42
 978 1040 978 1040 889 1096 c 1,43,-1
 721 1020 l 1,44,-1
 578 1093 l 1,45,46
 509 1080 509 1080 500 1038 c 1,47,48
 588 1038 588 1038 651 1018 c 128,-1,49
 714 998 714 998 745 964 c 128,-1,50
 776 930 776 930 789 894.5 c 128,-1,51
 802 859 802 859 802 818 c 0,0,1
509 678 m 0,52,53
 551 678 551 678 581 709 c 128,-1,54
 611 740 611 740 611 782 c 0,55,56
 611 814 611 814 589.5 834 c 128,-1,57
 568 854 568 854 537 854 c 0,58,59
 495 854 495 854 462 823 c 128,-1,60
 429 792 429 792 429 749 c 0,61,62
 429 717 429 717 451 697.5 c 128,-1,63
 473 678 473 678 509 678 c 0,52,53
EndSplineSet
EndChar

StartChar: uni0E04
Encoding: 3588 3588 127
Width: 1460
VWidth: 2045
Flags: W
HStem: 0 21G<141 372.561 1083 1306.53> 330 185<740.227 896.124> 693 185<756.073 909.115> 1064 220<730.425 1073.99>
VStem: 917 188<536.849 684.71> 1212 224<626.332 922.711>
DStem2: 141.218 0 361.3 0 0.173648 0.984808<497.19 928.692> 1083 0 1303 0 0.173648 0.984808<38.2026 775.793>
LayerCount: 3
Fore
SplineSet
811 515 m 0
 870 515 917 565 917 620 c 0
 917 660 888 693 842 693 c 0
 788 693 734 648 734 590 c 0
 734 550 762 515 811 515 c 0
1105 653 m 0
 1105 466 937 330 778 330 c 0
 703 330 643 357 598 410 c 9
 361 0 l 17
 141 0 l 1
 265 702 l 2
 324 1039 640 1284 949 1284 c 0
 1224 1284 1436 1092 1436 809 c 0
 1436 775 1433 739 1427 702 c 2
 1303 0 l 1
 1083 0 l 1
 1206 700 l 2
 1210 723 1212 745 1212 766 c 0
 1212 941 1083 1064 909 1064 c 0
 704 1064 520 899 485 702 c 2
 441 452 l 1
 602 726 l 2
 622 760 720 878 875 878 c 0
 1013 878 1105 780 1105 653 c 0
EndSplineSet
Validated: 1
Layer: 2
SplineSet
811 515 m 0,0,1
 855 515 855 515 886 546.5 c 128,-1,2
 917 578 917 578 917 620 c 0,3,4
 917 651 917 651 896.5 672 c 128,-1,5
 876 693 876 693 842 693 c 0,6,7
 800 693 800 693 767 662.5 c 128,-1,8
 734 632 734 632 734 590 c 0,9,10
 734 559 734 559 755 537 c 128,-1,11
 776 515 776 515 811 515 c 0,0,1
1105 653 m 0,12,13
 1105 518 1105 518 1004 424 c 128,-1,14
 903 330 903 330 778 330 c 0,15,16
 666 330 666 330 598 410 c 1,17,-1
 361 0 l 1,18,-1
 141 0 l 1,19,-1
 265 702 l 2,20,21
 294 866 294 866 398.5 1001 c 128,-1,22
 503 1136 503 1136 649 1210 c 128,-1,23
 795 1284 795 1284 949 1284 c 0,24,25
 1158 1284 1158 1284 1297 1151.5 c 128,-1,26
 1436 1019 1436 1019 1436 809 c 0,27,28
 1436 758 1436 758 1427 702 c 2,29,-1
 1303 0 l 1,30,-1
 1083 0 l 1,31,-1
 1206 700 l 2,32,33
 1212 734.5 1212 734.5 1212 766 c 0,34,35
 1212 897 1212 897 1126 980.5 c 128,-1,36
 1040 1064 1040 1064 909 1064 c 0,37,38
 757 1064 757 1064 634.5 957.5 c 128,-1,39
 512 851 512 851 485 702 c 2,40,-1
 441 452 l 1,41,-1
 602 726 l 2,42,43
 612 743 612 743 632.5 765 c 128,-1,44
 653 787 653 787 687 814 c 128,-1,45
 721 841 721 841 771 859.5 c 128,-1,46
 821 878 821 878 875 878 c 0,47,48
 977 878 977 878 1041 814 c 128,-1,49
 1105 750 1105 750 1105 653 c 0,12,13
EndSplineSet
EndChar

StartChar: uni0E05
Encoding: 3589 3589 128
Width: 1452
VWidth: 2045
Flags: W
HStem: 0 21G<141 372.561 1083 1306.53> 330 185<740.382 895.683> 693 185<756.996 909.112> 1264 20G<570.5 728.6 1176.67 1298>
VStem: 917 188<537.649 684.672> 1229 228<622.359 1003.62>
DStem2: 141.112 0 361.3 0 0.173648 0.984808<497.208 1031.26> 1083 0 1303 0 0.173648 0.984808<38.2026 879.902>
LayerCount: 3
Fore
SplineSet
811 515 m 0
 867 515 917 565 917 621 c 0
 917 664 883 693 842 693 c 0
 789 693 734 647 734 589 c 0
 734 548 764 515 811 515 c 0
1105 653 m 0
 1105 466 937 330 778 330 c 0
 703 330 643 357 598 410 c 9
 361 0 l 17
 141 0 l 1
 279 782 l 2
 319 1010 444 1239 697 1284 c 1
 934 1134 l 1
 1214 1284 l 1
 1382 1221 1457 1125 1457 947 c 0
 1457 898 1452 844 1441 782 c 2
 1303 0 l 1
 1083 0 l 1
 1221 780 l 2
 1227 813 1229 842 1229 869 c 0
 1229 960 1196 1016 1129 1036 c 1
 886 917 l 1
 689 1036 l 1
 588 1013 525 929 499 782 c 2
 441 452 l 1
 602 726 l 2
 622 760 720 878 875 878 c 0
 1013 878 1105 780 1105 653 c 0
EndSplineSet
Validated: 1
Layer: 2
SplineSet
811 515 m 0,0,1
 853 515 853 515 885 547 c 128,-1,2
 917 579 917 579 917 621 c 0,3,4
 917 653 917 653 895 673 c 128,-1,5
 873 693 873 693 842 693 c 0,6,7
 801 693 801 693 767.5 662 c 128,-1,8
 734 631 734 631 734 589 c 0,9,10
 734 558 734 558 755 536.5 c 128,-1,11
 776 515 776 515 811 515 c 0,0,1
1105 653 m 0,12,13
 1105 518 1105 518 1004 424 c 128,-1,14
 903 330 903 330 778 330 c 0,15,16
 666 330 666 330 598 410 c 1,17,-1
 361 0 l 1,18,-1
 141 0 l 1,19,-1
 279 782 l 2,20,21
 295 872 295 872 326.5 951.5 c 128,-1,22
 358 1031 358 1031 407.5 1101 c 128,-1,23
 457 1171 457 1171 531.5 1219.5 c 128,-1,24
 606 1268 606 1268 697 1284 c 1,25,-1
 934 1134 l 1,26,-1
 1214 1284 l 1,27,28
 1342 1236 1342 1236 1399.5 1157.5 c 128,-1,29
 1457 1079 1457 1079 1457 947 c 0,30,31
 1457 872 1457 872 1441 782 c 2,32,-1
 1303 0 l 1,33,-1
 1083 0 l 1,34,-1
 1221 780 l 2,35,36
 1229 824 1229 824 1229 869 c 0,37,38
 1229 1006 1229 1006 1129 1036 c 1,39,-1
 886 917 l 1,40,-1
 689 1036 l 1,41,42
 538 1002 538 1002 499 782 c 2,43,-1
 441 452 l 1,44,-1
 602 726 l 2,45,46
 612 743 612 743 632.5 765 c 128,-1,47
 653 787 653 787 687 814 c 128,-1,48
 721 841 721 841 771 859.5 c 128,-1,49
 821 878 821 878 875 878 c 0,50,51
 977 878 977 878 1041 814 c 128,-1,52
 1105 750 1105 750 1105 653 c 0,12,13
EndSplineSet
EndChar

StartChar: uni0E06
Encoding: 3590 3590 129
Width: 1623
VWidth: 2045
Flags: W
HStem: -20 186<542.006 694.731> 0 21G<1222.94 1473.52> 344 188<555.078 712.131> 559 159<403.49 558.76> 894 150<488.443 571.781> 1254 10G<514 648.545 902 1011.5 1467.48 1691>
VStem: 199 197<726.405 867.956> 348 187<174.444 322.009> 579 171<737.608 886.935> 993 217<817.436 1075.54>
DStem2: 970 448 932 235 0.804229 -0.59432<96.0295 389.292> 1246.62 -20 1466.47 -20 0.173648 0.984808<249.795 1293.61>
LayerCount: 3
Fore
SplineSet
611 166 m 0xbdc0
 670 166 718 216 718 271 c 0
 718 311 689 344 643 344 c 0
 589 344 535 299 535 241 c 0
 535 201 562 166 611 166 c 0xbdc0
348 205 m 0
 348 416 544 532 676 532 c 0
 720 532 750 529 767 522 c 1
 797 688 993 775 993 955 c 0
 993 1082 903 1105 901 1106 c 1
 733 1030 l 1
 589 1103 l 1
 535 1088 502 1066 487 1036 c 1
 509 1042 529 1044 549 1044 c 0
 636 1044 750 981 750 858 c 0
 750 728 656 559 442 559 c 0
 282 559 199 664 199 792 c 0
 199 1056 414 1236 614 1284 c 1
 766 1196 l 1
 942 1284 l 1
 1081 1254 1210 1121 1210 946 c 0
 1210 666 999 614 970 448 c 9
 1290 226 l 1
 1471 1254 l 1
 1691 1254 l 1
 1470 0 l 25
 1250 0 l 25x7ec0
 932 235 l 17
 910 112 781 -20 594 -20 c 0
 431 -20 348 83 348 205 c 0
476 718 m 0
 532 718 579 767 579 822 c 0
 579 865 545 894 504 894 c 0
 450 894 396 848 396 789 c 0
 396 746 428 718 476 718 c 0
EndSplineSet
Validated: 1
Layer: 2
SplineSet
611 166 m 0,0,1
 655 166 655 166 686.5 197.5 c 128,-1,2
 718 229 718 229 718 271 c 0,3,4
 718 302 718 302 697.5 323 c 128,-1,5
 677 344 677 344 643 344 c 0,6,7
 601 344 601 344 568 313.5 c 128,-1,8
 535 283 535 283 535 241 c 0,9,10
 535 209 535 209 555.5 187.5 c 128,-1,11
 576 166 576 166 611 166 c 0,0,1
348 205 m 0,12,13
 348 280 348 280 380.5 344.5 c 128,-1,14
 413 409 413 409 463 448.5 c 128,-1,15
 513 488 513 488 569 510 c 128,-1,16
 625 532 625 532 676 532 c 0,17,18
 743 532 743 532 767 522 c 1,19,20
 777 576 777 576 815 634 c 128,-1,21
 853 692 853 692 891.5 733.5 c 128,-1,22
 930 775 930 775 961.5 834.5 c 128,-1,23
 993 894 993 894 993 955 c 0,24,25
 992.874629642 1071.87382563 992.874629642 1071.87382563 901 1106 c 1,26,-1
 733 1030 l 1,27,-1
 589 1103 l 1,28,29
 509 1081 509 1081 487 1036 c 1,30,31
 516 1044 516 1044 549 1044 c 0,32,33
 623 1044 623 1044 686.5 993.5 c 128,-1,34
 750 943 750 943 750 858 c 0,35,36
 750 807 750 807 731.5 756 c 128,-1,37
 713 705 713 705 677 660 c 128,-1,38
 641 615 641 615 580 587 c 128,-1,39
 519 559 519 559 442 559 c 0,40,41
 327 559 327 559 263 625 c 128,-1,42
 199 691 199 691 199 792 c 0,43,44
 199 887 199 887 235.5 972.5 c 128,-1,45
 272 1058 272 1058 332 1119.5 c 128,-1,46
 392 1181 392 1181 464.5 1223.5 c 128,-1,47
 537 1266 537 1266 614 1284 c 1,48,-1
 766 1196 l 1,49,-1
 942 1284 l 1,50,51
 1051 1260 1051 1260 1130.5 1166 c 128,-1,52
 1210 1072 1210 1072 1210 946 c 0,53,54
 1210 868 1210 868 1188 804 c 128,-1,55
 1166 740 1166 740 1133.5 696.5 c 128,-1,56
 1101 653 1101 653 1067.5 615.5 c 128,-1,57
 1034 578 1034 578 1006 535.5 c 128,-1,58
 978 493 978 493 970 448 c 1,59,-1
 1290 226 l 1,60,-1
 1471 1254 l 1,61,-1
 1691 1254 l 1,62,-1
 1470 0 l 1,63,-1
 1250 0 l 1,64,-1
 932 235 l 1,65,66
 914 135 914 135 820.5 57.5 c 128,-1,67
 727 -20 727 -20 594 -20 c 0,68,69
 477 -20 477 -20 412.5 44 c 128,-1,70
 348 108 348 108 348 205 c 0,12,13
476 718 m 0,71,72
 518 718 518 718 548.5 749 c 128,-1,73
 579 780 579 780 579 822 c 0,74,75
 579 854 579 854 557 874 c 128,-1,76
 535 894 535 894 504 894 c 0,77,78
 462 894 462 894 429 863 c 128,-1,79
 396 832 396 832 396 789 c 0,80,81
 396 757 396 757 418 737.5 c 128,-1,82
 440 718 440 718 476 718 c 0,71,72
EndSplineSet
EndChar

StartChar: uni0E07
Encoding: 3591 3591 130
Width: 1081
VWidth: 2045
Flags: W
HStem: 0 21G<687.523 927.525> 736 185<742.185 832.676> 1099 185<757.882 913.653>
VStem: 550 186<929.298 1076.25> 919 187<944.84 1090.67>
DStem2: 368 728 213 596 0.635843 -0.771818<3.32426 602.559> 703.802 0 924 0 0.173648 0.984808<266.042 752.525>
LayerCount: 3
Fore
SplineSet
550 961 m 0
 550 1148 717 1284 876 1284 c 0
 1014 1284 1106 1186 1106 1059 c 0
 1106 1043 1105 1027 1102 1010 c 10
 924 0 l 1
 704 0 l 9
 213 596 l 1
 368 728 l 1
 750 262 l 25
 835 741 l 1
 817 738 799 736 780 736 c 0
 642 736 550 834 550 961 c 0
812 921 m 0
 868 921 919 971 919 1027 c 0
 919 1070 885 1099 844 1099 c 0
 791 1099 736 1053 736 995 c 0
 736 954 765 921 812 921 c 0
EndSplineSet
Validated: 1
Layer: 2
SplineSet
550 961 m 0,0,1
 550 1096 550 1096 651 1190 c 128,-1,2
 752 1284 752 1284 876 1284 c 0,3,4
 978 1284 978 1284 1042 1220 c 128,-1,5
 1106 1156 1106 1156 1106 1059 c 0,6,7
 1106 1033 1106 1033 1102 1010 c 2,8,-1
 924 0 l 1,9,-1
 704 0 l 1,10,-1
 213 596 l 1,11,-1
 368 728 l 1,12,-1
 750 262 l 1,13,-1
 835 741 l 1,14,15
 805 736 805 736 780 736 c 0,16,17
 678 736 678 736 614 800 c 128,-1,18
 550 864 550 864 550 961 c 0,0,1
812 921 m 0,19,20
 854 921 854 921 886.5 953 c 128,-1,21
 919 985 919 985 919 1027 c 0,22,23
 919 1059 919 1059 897 1079 c 128,-1,24
 875 1099 875 1099 844 1099 c 0,25,26
 803 1099 803 1099 769.5 1068 c 128,-1,27
 736 1037 736 1037 736 995 c 0,28,29
 736 963 736 963 757 942 c 128,-1,30
 778 921 778 921 812 921 c 0,19,20
EndSplineSet
EndChar

StartChar: uni0E08
Encoding: 3592 3592 131
Width: 1368
VWidth: 2045
Flags: W
HStem: 0 21G<847.794 1075.75> 352 185<664.117 820.345> 715 185<679.381 834.193> 1064 220<676.336 999.106>
VStem: 235 220<732 847.881> 472 186<545.446 692.442> 841 188<557.206 709.219> 1124 224<610.385 943.807>
DStem2: 1032 485 1305 612 0.361122 0.932518<0 316.433>
LayerCount: 3
Fore
SplineSet
472 577 m 0
 472 764 640 900 799 900 c 0
 948 900 1027 790 1029 678 c 10
 1032 485 l 1
 1100 661 l 18
 1115 698 1124 742 1124 791 c 0
 1124 947 1010 1064 846 1064 c 0
 661 1064 487 916 455 732 c 9
 235 732 l 17
 292 1053 592 1284 884 1284 c 0
 1169 1284 1348 1079 1348 828 c 0
 1348 746 1330 676 1305 612 c 10
 1068 0 l 1
 848 0 l 1
 844 388 l 17
 799 364 752 352 702 352 c 0
 564 352 472 450 472 577 c 0
735 537 m 0
 794 537 841 587 841 642 c 0
 841 682 812 715 766 715 c 0
 712 715 658 670 658 612 c 0
 658 572 686 537 735 537 c 0
EndSplineSet
Validated: 1
Layer: 2
SplineSet
472 577 m 0,0,1
 472 712 472 712 573 806 c 128,-1,2
 674 900 674 900 799 900 c 0,3,4
 905 900 905 900 966 834 c 128,-1,5
 1027 768 1027 768 1029 678 c 2,6,-1
 1032 485 l 1,7,-1
 1100 661 l 2,8,9
 1124 720 1124 720 1124 791 c 0,10,11
 1124 909 1124 909 1046 986.5 c 128,-1,12
 968 1064 968 1064 846 1064 c 0,13,14
 707 1064 707 1064 593 967 c 128,-1,15
 479 870 479 870 455 732 c 1,16,-1
 235 732 l 1,17,18
 263 888 263 888 362.5 1016 c 128,-1,19
 462 1144 462 1144 600 1214 c 128,-1,20
 738 1284 738 1284 884 1284 c 0,21,22
 1023 1284 1023 1284 1130 1222 c 128,-1,23
 1237 1160 1237 1160 1292.5 1057 c 128,-1,24
 1348 954 1348 954 1348 828 c 0,25,26
 1348 722 1348 722 1305 612 c 2,27,-1
 1068 0 l 1,28,-1
 848 0 l 1,29,-1
 844 388 l 1,30,31
 776 352 776 352 702 352 c 0,32,33
 600 352 600 352 536 416 c 128,-1,34
 472 480 472 480 472 577 c 0,0,1
735 537 m 0,35,36
 779 537 779 537 810 568.5 c 128,-1,37
 841 600 841 600 841 642 c 0,38,39
 841 673 841 673 820.5 694 c 128,-1,40
 800 715 800 715 766 715 c 0,41,42
 724 715 724 715 691 684.5 c 128,-1,43
 658 654 658 654 658 612 c 0,44,45
 658 581 658 581 679 559 c 128,-1,46
 700 537 700 537 735 537 c 0,35,36
EndSplineSet
EndChar

StartChar: uni0E09
Encoding: 3593 3593 132
Width: 1466
VWidth: 2045
Flags: W
HStem: -20 186<1060.13 1214.65> 0 21G<405 655.465> 254 185<357.185 450.2> 617 185<372.882 528.653> 1064 220<672.133 999.976>
VStem: 165 186<447.298 594.25> 534 187<460.653 608.672> 1126 224<528.82 943.044> 1236 187<188.793 337.331>
LayerCount: 3
Fore
SplineSet
165 479 m 0x7e80
 165 666 332 802 491 802 c 0
 629 802 721 704 721 577 c 0
 721 561 720 545 717 528 c 2
 666 240 l 17
 1081 507 l 9
 1121 729 l 2
 1125 750 1126 770 1126 790 c 0
 1126 952 1006 1064 846 1064 c 0
 661 1064 541 925 501 859 c 9
 313 942 l 17
 420 1124 632 1284 884 1284 c 0
 1160 1284 1350 1085 1350 828 c 0x7f
 1350 797 1347 765 1341 732 c 2
 1301 505 l 17
 1345 483 1423 422 1423 305 c 0
 1423 117 1256 -20 1096 -20 c 0xbe80
 942 -20 884 94 871 157 c 9
 624 0 l 9
 405 0 l 25
 451 259 l 1
 433 256 414 254 395 254 c 0
 257 254 165 352 165 479 c 0x7e80
1129 166 m 0xbe80
 1188 166 1236 216 1236 271 c 0
 1236 311 1207 344 1161 344 c 0
 1107 344 1053 299 1053 241 c 0
 1053 201 1080 166 1129 166 c 0xbe80
427 439 m 0
 483 439 534 489 534 545 c 0
 534 588 500 617 459 617 c 0
 406 617 351 571 351 513 c 0
 351 472 380 439 427 439 c 0
EndSplineSet
Validated: 1
Layer: 2
SplineSet
165 479 m 0,0,1
 165 614 165 614 266 708 c 128,-1,2
 367 802 367 802 491 802 c 0,3,4
 593 802 593 802 657 738 c 128,-1,5
 721 674 721 674 721 577 c 0,6,7
 721 551 721 551 717 528 c 2,8,-1
 666 240 l 1,9,-1
 1081 507 l 1,10,-1
 1121 729 l 2,11,12
 1126 755 1126 755 1126 790 c 0,13,14
 1126 911 1126 911 1046.5 987.5 c 128,-1,15
 967 1064 967 1064 846 1064 c 0,16,17
 781 1064 781 1064 721 1042 c 128,-1,18
 661 1020 661 1020 618 985.5 c 128,-1,19
 575 951 575 951 547 920 c 128,-1,20
 519 889 519 889 501 859 c 1,21,-1
 313 942 l 1,22,23
 399 1088 399 1088 551.5 1186 c 128,-1,24
 704 1284 704 1284 884 1284 c 0,25,26
 1089 1284 1089 1284 1219.5 1153.5 c 128,-1,27
 1350 1023 1350 1023 1350 828 c 0,28,29
 1350 781.5 1350 781.5 1341 732 c 2,30,-1
 1301 505 l 1,31,32
 1347 482 1347 482 1385 432.5 c 128,-1,33
 1423 383 1423 383 1423 305 c 0,34,35
 1423 169 1423 169 1322 74.5 c 128,-1,36
 1221 -20 1221 -20 1096 -20 c 0,37,38
 1042 -20 1042 -20 998.5 -2 c 128,-1,39
 955 16 955 16 930 45.5 c 128,-1,40
 905 75 905 75 891 102.5 c 128,-1,41
 877 130 877 130 871 157 c 1,42,-1
 624 0 l 1,43,-1
 405 0 l 1,44,-1
 451 259 l 1,45,46
 421 254 421 254 395 254 c 0,47,48
 293 254 293 254 229 318 c 128,-1,49
 165 382 165 382 165 479 c 0,0,1
1129 166 m 0,50,51
 1173 166 1173 166 1204.5 197.5 c 128,-1,52
 1236 229 1236 229 1236 271 c 0,53,54
 1236 302 1236 302 1215.5 323 c 128,-1,55
 1195 344 1195 344 1161 344 c 0,56,57
 1119 344 1119 344 1086 313.5 c 128,-1,58
 1053 283 1053 283 1053 241 c 0,59,60
 1053 209 1053 209 1073.5 187.5 c 128,-1,61
 1094 166 1094 166 1129 166 c 0,50,51
427 439 m 0,62,63
 469 439 469 439 501.5 471 c 128,-1,64
 534 503 534 503 534 545 c 0,65,66
 534 577 534 577 512 597 c 128,-1,67
 490 617 490 617 459 617 c 0,68,69
 418 617 418 617 384.5 586 c 128,-1,70
 351 555 351 555 351 513 c 0,71,72
 351 481 351 481 372 460 c 128,-1,73
 393 439 393 439 427 439 c 0,62,63
EndSplineSet
EndChar

StartChar: uni0E0A
Encoding: 3594 3594 133
Width: 1435
VWidth: 2045
Flags: W
HStem: 0 220<450 560 780 1074> 633 188<421.753 578.461> 997 287<516.369 829>
VStem: 230 186<828.077 974.333> 599 187<843.571 990.475> 846 224<777.158 1047.9> 1160 223<474.391 753.931> 1383 220<1226.34 1368>
DStem2: 521.208 0 741.208 0 0.173648 0.984808<261.596 635.6> 1035.21 0 1255 0 0.173648 0.984808<223.394 725.668>
LayerCount: 3
Fore
SplineSet
715 1284 m 0xfe
 943 1284 1070 1145 1070 965 c 0
 1070 696 851 621 819 440 c 2
 780 220 l 1
 1074 220 l 1
 1159 704 l 18
 1160 708 1160 712 1160 715 c 0xfe
 1160 743 1138 756 1093 756 c 1
 1132 976 l 1
 1235 1025 1351 1189 1383 1368 c 1
 1603 1368 l 1xfd
 1568 1172 1465 1003 1343 879 c 1
 1370 841 1383 799 1383 751 c 0
 1383 735 1382 719 1379 702 c 2
 1255 0 l 1
 411 0 l 1
 450 220 l 1
 560 220 l 1
 599 441 l 2
 642 688 846 712 846 932 c 0
 846 993 824 1055 744 1089 c 1
 772 1046 786 1000 786 952 c 0
 786 767 617 633 460 633 c 0
 322 633 230 731 230 858 c 0
 230 1156 549 1284 715 1284 c 0xfe
496 821 m 0
 552 821 599 870 599 925 c 0
 599 968 565 997 524 997 c 0
 470 997 416 951 416 892 c 0
 416 849 448 821 496 821 c 0
EndSplineSet
Validated: 1
Layer: 2
SplineSet
715 1284 m 0,0,1
 881 1284 881 1284 975.5 1194.5 c 128,-1,2
 1070 1105 1070 1105 1070 965 c 0,3,4
 1070 890 1070 890 1047.5 825.5 c 128,-1,5
 1025 761 1025 761 990.5 714.5 c 128,-1,6
 956 668 956 668 921.5 626.5 c 128,-1,7
 887 585 887 585 857.5 537 c 128,-1,8
 828 489 828 489 819 440 c 2,9,-1
 780 220 l 1,10,-1
 1074 220 l 1,11,-1
 1159 704 l 2,12,13
 1160 708 1160 708 1160 715 c 0,14,15
 1160 756 1160 756 1093 756 c 1,16,-1
 1132 976 l 1,17,18
 1212 1014 1212 1014 1286 1126 c 128,-1,19
 1360 1238 1360 1238 1383 1368 c 1,20,-1
 1603 1368 l 1,21,22
 1578 1228 1578 1228 1509 1103 c 128,-1,23
 1440 978 1440 978 1343 879 c 1,24,25
 1383 823 1383 823 1383 751 c 0,26,27
 1383 725 1383 725 1379 702 c 2,28,-1
 1255 0 l 1,29,-1
 411 0 l 1,30,-1
 450 220 l 1,31,-1
 560 220 l 1,32,-1
 599 441 l 2,33,34
 611 509 611 509 641 565 c 128,-1,35
 671 621 671 621 705 658.5 c 128,-1,36
 739 696 739 696 771.5 734 c 128,-1,37
 804 772 804 772 825 821.5 c 128,-1,38
 846 871 846 871 846 932 c 0,39,40
 846 1046 846 1046 744 1089 c 1,41,42
 786 1025 786 1025 786 952 c 0,43,44
 786 863 786 863 737 788.5 c 128,-1,45
 688 714 688 714 613.5 673.5 c 128,-1,46
 539 633 539 633 460 633 c 0,47,48
 358 633 358 633 294 697 c 128,-1,49
 230 761 230 761 230 858 c 0,50,51
 230 943 230 943 264.5 1016 c 128,-1,52
 299 1089 299 1089 352.5 1137 c 128,-1,53
 406 1185 406 1185 472.5 1219.5 c 128,-1,54
 539 1254 539 1254 601 1269 c 128,-1,55
 663 1284 663 1284 715 1284 c 0,0,1
496 821 m 0,56,57
 538 821 538 821 568.5 852 c 128,-1,58
 599 883 599 883 599 925 c 0,59,60
 599 957 599 957 577 977 c 128,-1,61
 555 997 555 997 524 997 c 0,62,63
 482 997 482 997 449 966 c 128,-1,64
 416 935 416 935 416 892 c 0,65,66
 416 860 416 860 438 840.5 c 128,-1,67
 460 821 460 821 496 821 c 0,56,57
EndSplineSet
EndChar

StartChar: uni0E0B
Encoding: 3595 3595 134
Width: 1572
VWidth: 2045
Flags: W
HStem: 0 220<570 680 900 1194> 488 190<434.706 589.466> 854 184<502.128 602.575> 1264 20G<544.5 638.545 892 1008>
VStem: 198 231<686.457 832.175> 611 191<700.251 847.224> 976 219<776.189 1059.57> 1280 223<474.391 753.931> 1503 220<1226.34 1368>
DStem2: 641.208 0 861.208 0 0.173648 0.984808<261.596 580.542> 1155.21 0 1375 0 0.173648 0.984808<223.394 725.668>
LayerCount: 3
Fore
SplineSet
802 818 m 0xff
 802 631 627 488 467 488 c 0
 397 488 198 549 198 788 c 0
 198 1112 485 1264 604 1284 c 1
 756 1196 l 1
 932 1284 l 1
 1084 1245 1195 1118 1195 944 c 0
 1195 623 965 593 925 365 c 2
 900 220 l 1
 1194 220 l 1
 1279 704 l 18
 1280 708 1280 712 1280 715 c 0xff
 1280 743 1258 756 1213 756 c 1
 1252 976 l 1
 1355 1025 1471 1189 1503 1368 c 1
 1723 1368 l 1xfe80
 1688 1172 1585 1003 1463 879 c 1
 1490 841 1503 799 1503 751 c 0
 1503 735 1502 719 1499 702 c 2
 1375 0 l 1
 531 0 l 1
 570 220 l 1
 680 220 l 1
 709 385 l 2
 751 624 976 705 976 942 c 0
 976 1011 950 1057 889 1096 c 1
 721 1020 l 1
 578 1096 l 1
 531 1087 506 1066 500 1038 c 1
 748 1038 802 917 802 818 c 0xff
509 678 m 0
 565 678 611 727 611 782 c 0
 611 825 578 854 537 854 c 0
 483 854 429 808 429 749 c 0
 429 706 461 678 509 678 c 0
EndSplineSet
Validated: 1
Layer: 2
SplineSet
802 818 m 0,0,1
 802 683 802 683 697 585.5 c 128,-1,2
 592 488 592 488 467 488 c 0,3,4
 443 488 443 488 412 496 c 128,-1,5
 381 504 381 504 342.5 525.5 c 128,-1,6
 304 547 304 547 272.5 579 c 128,-1,7
 241 611 241 611 219.5 665.5 c 128,-1,8
 198 720 198 720 198 788 c 0,9,10
 198 880 198 880 229 961.5 c 128,-1,11
 260 1043 260 1043 306.5 1097.5 c 128,-1,12
 353 1152 353 1152 410 1193.5 c 128,-1,13
 467 1235 467 1235 516 1256 c 128,-1,14
 565 1277 565 1277 604 1284 c 1,15,-1
 756 1196 l 1,16,-1
 932 1284 l 1,17,18
 1049 1254 1049 1254 1122 1163 c 128,-1,19
 1195 1072 1195 1072 1195 944 c 0,20,21
 1195 855 1195 855 1171 784 c 128,-1,22
 1147 713 1147 713 1111 665.5 c 128,-1,23
 1075 618 1075 618 1037.5 576 c 128,-1,24
 1000 534 1000 534 968 480.5 c 128,-1,25
 936 427 936 427 925 365 c 2,26,-1
 900 220 l 1,27,-1
 1194 220 l 1,28,-1
 1279 704 l 2,29,30
 1280 708 1280 708 1280 715 c 0,31,32
 1280 756 1280 756 1213 756 c 1,33,-1
 1252 976 l 1,34,35
 1332 1014 1332 1014 1406 1126 c 128,-1,36
 1480 1238 1480 1238 1503 1368 c 1,37,-1
 1723 1368 l 1,38,39
 1698 1228 1698 1228 1629 1103 c 128,-1,40
 1560 978 1560 978 1463 879 c 1,41,42
 1503 823 1503 823 1503 751 c 0,43,44
 1503 725 1503 725 1499 702 c 2,45,-1
 1375 0 l 1,46,-1
 531 0 l 1,47,-1
 570 220 l 1,48,-1
 680 220 l 1,49,-1
 709 385 l 2,50,51
 720 450 720 450 752.5 510.5 c 128,-1,52
 785 571 785 571 821.5 617.5 c 128,-1,53
 858 664 858 664 893.5 711 c 128,-1,54
 929 758 929 758 952.5 817 c 128,-1,55
 976 876 976 876 976 942 c 0,56,57
 976 994 976 994 955.5 1030.5 c 128,-1,58
 935 1067 935 1067 889 1096 c 1,59,-1
 721 1020 l 1,60,-1
 578 1096 l 1,61,62
 510 1083 510 1083 500 1038 c 1,63,64
 588 1038 588 1038 651 1018 c 128,-1,65
 714 998 714 998 745 964 c 128,-1,66
 776 930 776 930 789 894.5 c 128,-1,67
 802 859 802 859 802 818 c 0,0,1
509 678 m 0,68,69
 551 678 551 678 581 709 c 128,-1,70
 611 740 611 740 611 782 c 0,71,72
 611 814 611 814 589.5 834 c 128,-1,73
 568 854 568 854 537 854 c 0,74,75
 495 854 495 854 462 823 c 128,-1,76
 429 792 429 792 429 749 c 0,77,78
 429 717 429 717 451 697.5 c 128,-1,79
 473 678 473 678 509 678 c 0,68,69
EndSplineSet
EndChar

StartChar: uni0E0C
Encoding: 3596 3596 135
Width: 1940
VWidth: 2045
Flags: W
HStem: -20 185<449.48 602.124 1061.57 1213.48> 0 21G<1530.73 1775.52> 343 180<527.898 615.115> 701 220<559 670> 1064 220<690.013 1028.03> 1234 20G<1769.47 1993>
VStem: 255 186<173.546 319.117> 623 188<186.849 334.71> 866 187<173.446 319.518> 1165 224<635.294 922.711>
DStem2: 1548.16 -20 1768.47 -20 0.173648 0.984808<264.011 1293.69>
LayerCount: 3
Fore
SplineSet
1129 165 m 0xb3c0
 1188 165 1235 215 1235 270 c 0
 1235 310 1206 343 1160 343 c 0
 1106 343 1053 298 1053 240 c 0
 1053 200 1080 165 1129 165 c 0xb3c0
517 165 m 0
 576 165 623 215 623 270 c 0
 623 310 594 343 548 343 c 0
 494 343 441 298 441 240 c 0
 441 200 468 165 517 165 c 0
811 303 m 0
 811 116 643 -20 484 -20 c 0
 345 -20 255 79 255 205 c 0
 255 221 257 237 260 254 c 2
 339 701 l 1
 219 701 l 1
 276 1022 576 1284 903 1284 c 0xbbc0
 1178 1284 1389 1092 1389 809 c 0
 1389 775 1387 739 1380 702 c 2
 1340 474 l 17
 1594 240 l 9
 1773 1254 l 1
 1993 1254 l 1
 1772 0 l 25
 1552 0 l 17x77c0
 1385 157 l 1
 1350 94 1250 -20 1096 -20 c 0
 958 -20 866 78 866 205 c 0
 866 380 1010 494 1128 521 c 1
 1159 700 l 2
 1163 723 1165 745 1165 766 c 0
 1165 940 1038 1064 863 1064 c 0xbbc0
 692 1064 580 952 552 921 c 1
 708 921 l 1
 670 701 l 1
 559 701 l 1
 527 523 l 17
 545 526 562 528 581 528 c 0
 719 528 811 430 811 303 c 0
EndSplineSet
Validated: 1
Layer: 2
SplineSet
1129 165 m 0,0,1
 1173 165 1173 165 1204 196.5 c 128,-1,2
 1235 228 1235 228 1235 270 c 0,3,4
 1235 301 1235 301 1214.5 322 c 128,-1,5
 1194 343 1194 343 1160 343 c 0,6,7
 1118 343 1118 343 1085.5 312.5 c 128,-1,8
 1053 282 1053 282 1053 240 c 0,9,10
 1053 208 1053 208 1073.5 186.5 c 128,-1,11
 1094 165 1094 165 1129 165 c 0,0,1
517 165 m 0,12,13
 561 165 561 165 592 196.5 c 128,-1,14
 623 228 623 228 623 270 c 0,15,16
 623 301 623 301 602.5 322 c 128,-1,17
 582 343 582 343 548 343 c 0,18,19
 506 343 506 343 473.5 312.5 c 128,-1,20
 441 282 441 282 441 240 c 0,21,22
 441 208 441 208 461.5 186.5 c 128,-1,23
 482 165 482 165 517 165 c 0,12,13
811 303 m 0,24,25
 811 168 811 168 710 74 c 128,-1,26
 609 -20 609 -20 484 -20 c 0,27,28
 382 -20 382 -20 318.5 44.5 c 128,-1,29
 255 109 255 109 255 205 c 0,30,31
 255 226 255 226 260 254 c 2,32,-1
 339 701 l 1,33,-1
 219 701 l 1,34,35
 247 859 247 859 347 993 c 128,-1,36
 447 1127 447 1127 595 1205.5 c 128,-1,37
 743 1284 743 1284 903 1284 c 0,38,39
 1112 1284 1112 1284 1250.5 1151.5 c 128,-1,40
 1389 1019 1389 1019 1389 809 c 0,41,42
 1389 750 1389 750 1380 702 c 2,43,-1
 1340 474 l 1,44,-1
 1594 240 l 1,45,-1
 1773 1254 l 1,46,-1
 1993 1254 l 1,47,-1
 1772 0 l 1,48,-1
 1552 0 l 1,49,-1
 1385 157 l 1,50,51
 1349 93 1349 93 1273.5 36.5 c 128,-1,52
 1198 -20 1198 -20 1096 -20 c 128,-1,53
 994 -20 994 -20 930 44 c 128,-1,54
 866 108 866 108 866 205 c 0,55,56
 866 268 866 268 890 324 c 128,-1,57
 914 380 914 380 953 419 c 128,-1,58
 992 458 992 458 1037 484.5 c 128,-1,59
 1082 511 1082 511 1128 521 c 1,60,-1
 1159 700 l 2,61,62
 1165 734.5 1165 734.5 1165 766 c 0,63,64
 1165 896 1165 896 1079.5 980 c 128,-1,65
 994 1064 994 1064 863 1064 c 0,66,67
 803 1064 803 1064 747.5 1047 c 128,-1,68
 692 1030 692 1030 652 1003 c 128,-1,69
 612 976 612 976 590 957.5 c 128,-1,70
 568 939 568 939 552 921 c 1,71,-1
 708 921 l 1,72,-1
 670 701 l 1,73,-1
 559 701 l 1,74,-1
 527 523 l 1,75,76
 557 528 557 528 581 528 c 0,77,78
 683 528 683 528 747 464 c 128,-1,79
 811 400 811 400 811 303 c 0,24,25
EndSplineSet
EndChar

StartChar: uni0E0D
Encoding: 3597 3597 136
Width: 1940
VWidth: 2045
Flags: W
HStem: -577 192<996.843 1282.66> -577 163<1228 1390.82> -207 134<1011.13 1167.03> -20 186<449.48 602.443> 0 220<1297 1591> 344 179<528.855 618.656> 701 220<559 670> 1064 220<690.013 1029.67> 1234 20G<1769.48 1993>
VStem: 255 186<174.046 319.617> 624 187<188.116 338.058> 854 136<-377.576 -228.84> 1167 224<629.337 919.584> 1174 138<-362.815 -214.718>
DStem2: 936.259 -577 1156.47 -577 0.173648 0.984808<847.534 1361.69> 1450.47 -577 1670.26 -577 0.173648 0.984808<809.295 1859.19>
LayerCount: 3
Fore
SplineSet
811 303 m 0x2f78
 811 116 643 -20 484 -20 c 0
 345 -20 255 79 255 205 c 0
 255 221 257 237 260 254 c 2
 339 701 l 1
 219 701 l 1
 276 1022 576 1284 903 1284 c 0x3778
 1187 1284 1391 1084 1391 808 c 0
 1391 774 1388 739 1382 703 c 2
 1297 220 l 17
 1591 220 l 9
 1773 1254 l 1
 1993 1254 l 1x2ef8
 1772 0 l 25
 1038 0 l 25
 1161 700 l 2
 1165 723 1167 745 1167 766 c 0
 1167 942 1037 1064 863 1064 c 0
 692 1064 580 952 552 921 c 1
 708 921 l 1
 670 701 l 1
 559 701 l 1
 527 523 l 17
 545 526 562 528 581 528 c 0
 719 528 811 430 811 303 c 0x2f78
517 166 m 0
 576 166 624 216 624 271 c 0
 624 311 595 344 549 344 c 0
 495 344 441 299 441 241 c 0
 441 201 468 166 517 166 c 0
1312 -251 m 0xa674
 1312 -328 1273 -385 1228 -414 c 1x6674
 1415 -414 1522 -275 1594 -154 c 1
 1720 -249 l 1
 1589 -451 1422 -577 1165 -577 c 0
 950 -577 854 -473 854 -347 c 0
 854 -182 986 -73 1122 -73 c 0
 1231 -73 1312 -154 1312 -251 c 0xa674
1066 -385 m 0xa674
 1119 -385 1174 -338 1174 -281 c 0
 1174 -238 1139 -207 1098 -207 c 0
 1043 -207 990 -254 990 -311 c 0
 990 -351 1020 -385 1066 -385 c 0xa674
EndSplineSet
Validated: 1
Layer: 2
SplineSet
811 303 m 0,0,1
 811 168 811 168 710 74 c 128,-1,2
 609 -20 609 -20 484 -20 c 0,3,4
 382 -20 382 -20 318.5 44.5 c 128,-1,5
 255 109 255 109 255 205 c 0,6,7
 255 226 255 226 260 254 c 2,8,-1
 339 701 l 1,9,-1
 219 701 l 1,10,11
 247 859 247 859 347 993 c 128,-1,12
 447 1127 447 1127 595 1205.5 c 128,-1,13
 743 1284 743 1284 903 1284 c 0,14,15
 1116 1284 1116 1284 1253.5 1149.5 c 128,-1,16
 1391 1015 1391 1015 1391 808 c 0,17,18
 1391 757 1391 757 1382 703 c 2,19,-1
 1297 220 l 1,20,-1
 1591 220 l 1,21,-1
 1773 1254 l 1,22,-1
 1993 1254 l 1,23,-1
 1772 0 l 1,24,-1
 1038 0 l 1,25,-1
 1161 700 l 2,26,27
 1167 734.5 1167 734.5 1167 766 c 0,28,29
 1167 897 1167 897 1080.5 980.5 c 128,-1,30
 994 1064 994 1064 863 1064 c 0,31,32
 803 1064 803 1064 747.5 1047 c 128,-1,33
 692 1030 692 1030 652 1003 c 128,-1,34
 612 976 612 976 590 957.5 c 128,-1,35
 568 939 568 939 552 921 c 1,36,-1
 708 921 l 1,37,-1
 670 701 l 1,38,-1
 559 701 l 1,39,-1
 527 523 l 1,40,41
 557 528 557 528 581 528 c 0,42,43
 683 528 683 528 747 464 c 128,-1,44
 811 400 811 400 811 303 c 0,0,1
517 166 m 0,45,46
 561 166 561 166 592.5 197.5 c 128,-1,47
 624 229 624 229 624 271 c 0,48,49
 624 302 624 302 603.5 323 c 128,-1,50
 583 344 583 344 549 344 c 0,51,52
 507 344 507 344 474 313.5 c 128,-1,53
 441 283 441 283 441 241 c 0,54,55
 441 209 441 209 461.5 187.5 c 128,-1,56
 482 166 482 166 517 166 c 0,45,46
1312 -251 m 0,57,58
 1312 -306 1312 -306 1288.5 -348 c 128,-1,59
 1265 -390 1265 -390 1228 -414 c 1,60,61
 1295 -414 1295 -414 1353 -391.5 c 128,-1,62
 1411 -369 1411 -369 1455.5 -328 c 128,-1,63
 1500 -287 1500 -287 1531.5 -247 c 128,-1,64
 1563 -207 1563 -207 1594 -154 c 1,65,-1
 1720 -249 l 1,66,67
 1616 -409 1616 -409 1482.5 -493 c 128,-1,68
 1349 -577 1349 -577 1165 -577 c 0,69,70
 1011 -577 1011 -577 932.5 -512.5 c 128,-1,71
 854 -448 854 -448 854 -347 c 0,72,73
 854 -228 854 -228 934.5 -150.5 c 128,-1,74
 1015 -73 1015 -73 1122 -73 c 0,75,76
 1203 -73 1203 -73 1257.5 -125 c 128,-1,77
 1312 -177 1312 -177 1312 -251 c 0,57,58
1066 -385 m 0,78,79
 1107 -385 1107 -385 1140.5 -354 c 128,-1,80
 1174 -323 1174 -323 1174 -281 c 0,81,82
 1174 -249 1174 -249 1151.5 -228 c 128,-1,83
 1129 -207 1129 -207 1098 -207 c 0,84,85
 1056 -207 1056 -207 1023 -238 c 128,-1,86
 990 -269 990 -269 990 -311 c 0,87,88
 990 -342 990 -342 1011 -363.5 c 128,-1,89
 1032 -385 1032 -385 1066 -385 c 0,78,79
EndSplineSet
Substitution2: "'ccmp' Pali-Sanskrit Descender Removal" uni0E0D.descless
Substitution2: "Thai Descender Removal Single Substitution" uni0E0D.descless
EndChar

StartChar: uni0E0E
Encoding: 3598 3598 137
Width: 1493
VWidth: 2045
Flags: W
HStem: -626 185<374.185 532.156> -263 185<389.882 548.873> -20 186<279.397 432.358> 344 184<292.092 448.076> 701 220<714 825> 1064 220<754.866 1092.99>
VStem: 83 189<173.583 321.367> 182 186<-432.702 -285.75> 1231 224<624.812 922.711>
DStem2: 585 -351 620 -546 0.756274 0.654255<-164.628 -2.61924 203.482 349.785> 984.056 -668 1203.81 -668 0.173648 0.984808<397.032 1454.13>
AnchorPoint: "BelowBase" 1059 -661 basechar 0
LayerCount: 3
Fore
SplineSet
83 205 m 0xfe80
 83 392 251 528 410 528 c 0
 429 528 446 526 462 523 c 9
 494 701 l 1
 284 701 l 1
 341 1022 641 1284 968 1284 c 0
 1243 1284 1455 1092 1455 809 c 0
 1455 775 1452 739 1446 702 c 2
 1265 -321 l 25
 851 -668 l 1
 694 -481 l 25
 620 -546 l 2
 558 -601 487 -626 412 -626 c 0
 274 -626 182 -528 182 -401 c 0xfd80
 182 -214 349 -78 508 -78 c 0
 583 -78 643 -105 688 -158 c 2
 739 -218 l 25
 852 -120 l 1
 961 -251 l 1
 847 -349 l 17
 897 -408 l 17
 1053 -277 l 25
 1225 700 l 2
 1229 723 1231 745 1231 766 c 0
 1231 941 1102 1064 928 1064 c 0
 757 1064 644 951 617 921 c 1
 863 921 l 1
 825 701 l 1
 714 701 l 1
 635 254 l 2
 609 104 468 -20 313 -20 c 0
 175 -20 83 78 83 205 c 0xfe80
476 -263 m 0
 423 -263 368 -309 368 -367 c 0
 368 -408 397 -441 444 -441 c 0
 469 -441 492 -432 512 -415 c 2
 585 -351 l 25
 534 -289 l 2
 520 -272 501 -263 476 -263 c 0
378 344 m 0
 328 344 272 302 272 240 c 0xfe80
 272 201 297 166 346 166 c 0
 402 166 454 213 454 270 c 0
 454 311 424 344 378 344 c 0
EndSplineSet
Validated: 1
Layer: 2
SplineSet
83 205 m 0,0,1
 83 340 83 340 184 434 c 128,-1,2
 285 528 285 528 410 528 c 0,3,4
 435 528 435 528 462 523 c 1,5,-1
 494 701 l 1,6,-1
 284 701 l 1,7,8
 312 859 312 859 412 993 c 128,-1,9
 512 1127 512 1127 660 1205.5 c 128,-1,10
 808 1284 808 1284 968 1284 c 0,11,12
 1177 1284 1177 1284 1316 1151.5 c 128,-1,13
 1455 1019 1455 1019 1455 809 c 0,14,15
 1455 758 1455 758 1446 702 c 2,16,-1
 1265 -321 l 1,17,-1
 851 -668 l 1,18,-1
 694 -481 l 1,19,-1
 620 -546 l 2,20,21
 530 -626 530 -626 412 -626 c 0,22,23
 310 -626 310 -626 246 -562 c 128,-1,24
 182 -498 182 -498 182 -401 c 0,25,26
 182 -266 182 -266 283 -172 c 128,-1,27
 384 -78 384 -78 508 -78 c 0,28,29
 620 -78 620 -78 688 -158 c 2,30,-1
 739 -218 l 1,31,-1
 852 -120 l 1,32,-1
 961 -251 l 1,33,-1
 847 -349 l 1,34,-1
 897 -408 l 1,35,-1
 1053 -277 l 1,36,-1
 1225 700 l 2,37,38
 1231 734.5 1231 734.5 1231 766 c 0,39,40
 1231 897 1231 897 1145 980.5 c 128,-1,41
 1059 1064 1059 1064 928 1064 c 0,42,43
 869 1064 869 1064 813 1047 c 128,-1,44
 757 1030 757 1030 717 1003 c 128,-1,45
 677 976 677 976 655 957 c 128,-1,46
 633 938 633 938 617 921 c 1,47,-1
 863 921 l 1,48,-1
 825 701 l 1,49,-1
 714 701 l 1,50,-1
 635 254 l 2,51,52
 615 141 615 141 521.5 60.5 c 128,-1,53
 428 -20 428 -20 313 -20 c 0,54,55
 211 -20 211 -20 147 44 c 128,-1,56
 83 108 83 108 83 205 c 0,0,1
476 -263 m 0,57,58
 435 -263 435 -263 401.5 -294 c 128,-1,59
 368 -325 368 -325 368 -367 c 0,60,61
 368 -399 368 -399 389 -420 c 128,-1,62
 410 -441 410 -441 444 -441 c 0,63,64
 481 -441 481 -441 512 -415 c 2,65,-1
 585 -351 l 1,66,-1
 534 -289 l 2,67,68
 513 -263 513 -263 476 -263 c 0,57,58
378 344 m 0,69,70
 338 344 338 344 305 314 c 128,-1,71
 272 284 272 284 272 240 c 0,72,73
 272 209 272 209 291.5 187.5 c 128,-1,74
 311 166 311 166 346 166 c 0,75,76
 389 166 389 166 421.5 197 c 128,-1,77
 454 228 454 228 454 270 c 0,78,79
 454 301 454 301 433 322.5 c 128,-1,80
 412 344 412 344 378 344 c 0,69,70
EndSplineSet
EndChar

StartChar: uni0E0F
Encoding: 3599 3599 138
Width: 1493
VWidth: 2045
Flags: W
HStem: -610 185<179.685 339.274> -247 185<195.664 354.827> -20 185<279.397 432.358> 343 185<291.934 447.989> 701 220<714 825> 1064 220<754.866 1092.99>
VStem: -13 187<-416.702 -269.75> 83 189<170.236 320.867> 1231 224<505.867 923.931>
DStem2: 391 -335 425 -530 0.755934 0.654648<-164.616 -2.70753 202.726 302.843> 990.051 -634 1209.81 -634 0.173648 0.984808<362.507 1419.6>
AnchorPoint: "BelowBase" 948 -661 basechar 0
LayerCount: 3
Fore
SplineSet
-13 -385 m 0xfe80
 -13 -198 155 -62 314 -62 c 0
 389 -62 448 -90 493 -142 c 2
 544 -202 l 25
 622 -134 l 1
 731 -265 l 1
 653 -333 l 17
 685 -371 l 25
 840 -241 l 9
 944 -368 l 1
 1053 -277 l 25
 1225 700 l 2
 1229 723 1231 745 1231 766 c 0
 1231 941 1102 1064 928 1064 c 0
 757 1064 644 951 617 921 c 1
 863 921 l 1
 825 701 l 1
 714 701 l 1
 635 254 l 2
 609 104 468 -20 313 -20 c 0
 175 -20 83 78 83 205 c 0xfd80
 83 392 251 528 410 528 c 0
 429 528 446 526 462 523 c 9
 494 701 l 1
 284 701 l 1
 341 1022 641 1284 968 1284 c 0
 1243 1284 1455 1092 1455 809 c 0
 1455 775 1452 739 1446 702 c 2
 1265 -321 l 25
 898 -628 l 1
 795 -501 l 17
 638 -634 l 25
 500 -465 l 9
 425 -530 l 2
 363 -583 292 -610 217 -610 c 0
 79 -610 -13 -512 -13 -385 c 0xfe80
282 -247 m 0
 228 -247 174 -293 174 -351 c 0xfe80
 174 -392 203 -425 250 -425 c 0
 275 -425 298 -416 318 -399 c 2
 391 -335 l 25
 340 -273 l 2
 326 -256 306 -247 282 -247 c 0
377 343 m 0
 327 343 272 301 272 239 c 0xfd80
 272 200 297 165 346 165 c 0
 402 165 454 212 454 269 c 0
 454 310 423 343 377 343 c 0
EndSplineSet
Validated: 1
Layer: 2
SplineSet
-13 -385 m 0,0,1
 -13 -250 -13 -250 88 -156 c 128,-1,2
 189 -62 189 -62 314 -62 c 0,3,4
 424 -62 424 -62 493 -142 c 2,5,-1
 544 -202 l 1,6,-1
 622 -134 l 1,7,-1
 731 -265 l 1,8,-1
 653 -333 l 1,9,-1
 685 -371 l 1,10,-1
 840 -241 l 1,11,-1
 944 -368 l 1,12,-1
 1053 -277 l 1,13,-1
 1225 700 l 2,14,15
 1231 734.5 1231 734.5 1231 766 c 0,16,17
 1231 897 1231 897 1145 980.5 c 128,-1,18
 1059 1064 1059 1064 928 1064 c 0,19,20
 869 1064 869 1064 813 1047 c 128,-1,21
 757 1030 757 1030 717 1003 c 128,-1,22
 677 976 677 976 655 957 c 128,-1,23
 633 938 633 938 617 921 c 1,24,-1
 863 921 l 1,25,-1
 825 701 l 1,26,-1
 714 701 l 1,27,-1
 635 254 l 2,28,29
 615 141 615 141 521.5 60.5 c 128,-1,30
 428 -20 428 -20 313 -20 c 0,31,32
 211 -20 211 -20 147 44 c 128,-1,33
 83 108 83 108 83 205 c 0,34,35
 83 340 83 340 184 434 c 128,-1,36
 285 528 285 528 410 528 c 0,37,38
 435 528 435 528 462 523 c 1,39,-1
 494 701 l 1,40,-1
 284 701 l 1,41,42
 312 859 312 859 412 993 c 128,-1,43
 512 1127 512 1127 660 1205.5 c 128,-1,44
 808 1284 808 1284 968 1284 c 0,45,46
 1177 1284 1177 1284 1316 1151.5 c 128,-1,47
 1455 1019 1455 1019 1455 809 c 0,48,49
 1455 758 1455 758 1446 702 c 2,50,-1
 1265 -321 l 1,51,-1
 898 -628 l 1,52,-1
 795 -501 l 1,53,-1
 638 -634 l 1,54,-1
 500 -465 l 1,55,-1
 425 -530 l 2,56,57
 331 -610 331 -610 217 -610 c 0,58,59
 115 -610 115 -610 51 -546 c 128,-1,60
 -13 -482 -13 -482 -13 -385 c 0,0,1
282 -247 m 0,61,62
 240 -247 240 -247 207 -277.5 c 128,-1,63
 174 -308 174 -308 174 -351 c 0,64,65
 174 -383 174 -383 195 -404 c 128,-1,66
 216 -425 216 -425 250 -425 c 0,67,68
 287 -425 287 -425 318 -399 c 2,69,-1
 391 -335 l 1,70,-1
 340 -273 l 2,71,72
 319 -247 319 -247 282 -247 c 0,61,62
377 343 m 0,73,74
 337 343 337 343 304.5 313 c 128,-1,75
 272 283 272 283 272 239 c 0,76,77
 272 208 272 208 291.5 186.5 c 128,-1,78
 311 165 311 165 346 165 c 0,79,80
 389 165 389 165 421.5 196 c 128,-1,81
 454 227 454 227 454 269 c 0,82,83
 454 300 454 300 432.5 321.5 c 128,-1,84
 411 343 411 343 377 343 c 0,73,74
EndSplineSet
EndChar

StartChar: uni0E10
Encoding: 3600 3600 139
Width: 1245
VWidth: 2045
Flags: W
HStem: -807 134<-60.9946 93.2345> -521 133<655.785 746.92> -494 134<-47.253 108.121> -210 134<672.203 826.398> 0 21G<695.5 924.429> 132 185<465.323 620.691> 495 185<480.592 633.598> 732 186<546 900.208> 1064 220<675.525 1000.77>
VStem: -204 136<-665.329 -517.129> 273 186<325.738 472.68> 513 136<-380.931 -233.912> 832 138<-365.734 -217.372> 908 221<521.297 723.983>
LayerCount: 3
Fore
SplineSet
273 358 m 0x9ff4
 273 544 442 680 600 680 c 0
 769 680 831 540 840 458 c 10
 847 400 l 1
 899 601 l 18
 904 624 908 630 908 644 c 0
 908 666 901 732 833 732 c 2
 235 732 l 1
 292 1053 592 1284 884 1284 c 0
 1151 1284 1313 1104 1343 902 c 9
 1124 818 l 17
 1116 913 1039 1064 846 1064 c 0
 682 1064 575 954 546 918 c 1
 899 918 l 2
 1037 918 1129 820 1129 693 c 0
 1129 677 1128 661 1125 644 c 1
 918 0 l 1
 698 0 l 1
 674 192 l 17
 626 145 554 132 495 132 c 0
 368 132 273 229 273 358 c 0x9ff4
536 317 m 0
 595 317 642 367 642 422 c 0
 642 462 613 495 567 495 c 0
 513 495 459 450 459 392 c 0
 459 352 487 317 536 317 c 0
513 -338 m 0
 513 -193 642 -76 780 -76 c 0
 895 -76 970 -158 970 -261 c 0
 970 -274 968 -286 966 -299 c 2
 913 -603 l 25
 590 -875 l 1
 494 -760 l 1
 361 -873 l 1
 209 -695 l 1
 157 -740 l 2
 104 -786 46 -807 -15 -807 c 0
 -129 -807 -204 -725 -204 -622 c 0
 -204 -476 -73 -360 64 -360 c 0xbff8
 125 -360 174 -382 210 -426 c 2
 248 -474 l 1
 374 -369 l 1
 466 -477 l 1
 341 -583 l 1
 400 -654 l 1
 533 -541 l 1
 628 -656 l 1
 740 -562 l 1
 748 -518 l 1
 733 -520 716 -521 701 -521 c 0xdff8
 590 -521 513 -443 513 -338 c 0
726 -388 m 0xdff8
 783 -388 832 -337 832 -283 c 0
 832 -243 803 -210 757 -210 c 0
 702 -210 649 -256 649 -313 c 0
 649 -354 680 -388 726 -388 c 0xdff8
7 -673 m 0
 56 -673 115 -630 115 -568 c 0
 115 -527 84 -494 39 -494 c 0xbff0
 -16 -494 -68 -541 -68 -598 c 0
 -68 -641 -34 -673 7 -673 c 0
EndSplineSet
Validated: 1
Layer: 2
SplineSet
273 358 m 0,0,1
 273 492 273 492 374.5 586 c 128,-1,2
 476 680 476 680 600 680 c 0,3,4
 660 680 660 680 707 657.5 c 128,-1,5
 754 635 754 635 780.5 599 c 128,-1,6
 807 563 807 563 821.5 527.5 c 128,-1,7
 836 492 836 492 840 458 c 2,8,-1
 847 400 l 1,9,-1
 899 601 l 2,10,11
 908 642 908 642 908 644 c 0,12,13
 908 655 908 655 905.5 667.5 c 128,-1,14
 903 680 903 680 896 696 c 128,-1,15
 889 712 889 712 873 722 c 128,-1,16
 857 732 857 732 833 732 c 2,17,-1
 235 732 l 1,18,19
 263 888 263 888 362.5 1016 c 128,-1,20
 462 1144 462 1144 600 1214 c 128,-1,21
 738 1284 738 1284 884 1284 c 0,22,23
 1075 1284 1075 1284 1197 1173.5 c 128,-1,24
 1319 1063 1319 1063 1343 902 c 1,25,-1
 1124 818 l 1,26,27
 1121 848 1121 848 1110.5 880 c 128,-1,28
 1100 912 1100 912 1078 945.5 c 128,-1,29
 1056 979 1056 979 1025.5 1005 c 128,-1,30
 995 1031 995 1031 948 1047.5 c 128,-1,31
 901 1064 901 1064 846 1064 c 0,32,33
 789 1064 789 1064 735.5 1047 c 128,-1,34
 682 1030 682 1030 644 1003.5 c 128,-1,35
 606 977 606 977 583.5 957 c 128,-1,36
 561 937 561 937 546 918 c 1,37,-1
 899 918 l 2,38,39
 1001 918 1001 918 1065 854 c 128,-1,40
 1129 790 1129 790 1129 693 c 0,41,42
 1129 667 1129 667 1125 644 c 2,43,-1
 918 0 l 1,44,-1
 698 0 l 1,45,-1
 674 192 l 1,46,47
 613 132 613 132 495 132 c 0,48,49
 400 132 400 132 336.5 196.5 c 128,-1,50
 273 261 273 261 273 358 c 0,0,1
536 317 m 0,51,52
 580 317 580 317 611 348.5 c 128,-1,53
 642 380 642 380 642 422 c 0,54,55
 642 453 642 453 621.5 474 c 128,-1,56
 601 495 601 495 567 495 c 0,57,58
 525 495 525 495 492 464.5 c 128,-1,59
 459 434 459 434 459 392 c 0,60,61
 459 361 459 361 480 339 c 128,-1,62
 501 317 501 317 536 317 c 0,51,52
513 -338 m 0,63,64
 513 -231 513 -231 594 -153.5 c 128,-1,65
 675 -76 675 -76 780 -76 c 0,66,67
 865 -76 865 -76 917.5 -129 c 128,-1,68
 970 -182 970 -182 970 -261 c 0,69,70
 970 -273 970 -273 966 -299 c 2,71,-1
 913 -603 l 1,72,-1
 590 -875 l 1,73,-1
 494 -760 l 1,74,-1
 361 -873 l 1,75,-1
 209 -695 l 1,76,-1
 157 -740 l 2,77,78
 80 -807 80 -807 -15 -807 c 0,79,80
 -99 -807 -99 -807 -151.5 -754 c 128,-1,81
 -204 -701 -204 -701 -204 -622 c 0,82,83
 -204 -515 -204 -515 -122.5 -437.5 c 128,-1,84
 -41 -360 -41 -360 64 -360 c 0,85,86
 156 -360 156 -360 210 -426 c 2,87,-1
 248 -474 l 1,88,-1
 374 -369 l 1,89,-1
 466 -477 l 1,90,-1
 341 -583 l 1,91,-1
 400 -654 l 1,92,-1
 533 -541 l 1,93,-1
 628 -656 l 1,94,-1
 740 -562 l 1,95,-1
 748 -518 l 1,96,97
 726 -521 726 -521 701 -521 c 0,98,99
 618 -521 618 -521 565.5 -469 c 128,-1,100
 513 -417 513 -417 513 -338 c 0,63,64
726 -388 m 0,101,102
 768 -388 768 -388 800 -356 c 128,-1,103
 832 -324 832 -324 832 -283 c 0,104,105
 832 -252 832 -252 811.5 -231 c 128,-1,106
 791 -210 791 -210 757 -210 c 0,107,108
 715 -210 715 -210 682 -240.5 c 128,-1,109
 649 -271 649 -271 649 -313 c 0,110,111
 649 -344 649 -344 670.5 -366 c 128,-1,112
 692 -388 692 -388 726 -388 c 0,101,102
7 -673 m 0,113,114
 46 -673 46 -673 80.5 -642.5 c 128,-1,115
 115 -612 115 -612 115 -568 c 0,116,117
 115 -537 115 -537 93.5 -515.5 c 128,-1,118
 72 -494 72 -494 39 -494 c 0,119,120
 -3 -494 -3 -494 -35.5 -525 c 128,-1,121
 -68 -556 -68 -556 -68 -598 c 0,122,123
 -68 -630 -68 -630 -46 -651.5 c 128,-1,124
 -24 -673 -24 -673 7 -673 c 0,113,114
EndSplineSet
Substitution2: "'ccmp' Pali-Sanskrit Descender Removal" uni0E10.descless
Substitution2: "Thai Descender Removal Single Substitution" uni0E10.descless
EndChar

StartChar: uni0E11
Encoding: 3601 3601 140
Width: 1835
VWidth: 2045
Flags: W
HStem: 0 21G<641 982 1431 1654.53> 492 185<433.49 591.406> 853 185<501.128 602.575> 1021 263<1479.91 1683>
VStem: 198 230<686.422 828.474> 611 191<696.645 846.724> 976 222<773.064 1059.48> 1602 233<792.766 1157.5>
DStem2: 1431 0 1651 0 0.173648 0.984808<38.2026 992.604>
LayerCount: 3
Fore
SplineSet
802 818 m 0xef
 802 633 631 492 473 492 c 0
 395 492 198 551 198 788 c 0
 198 1065 409 1250 604 1284 c 1
 756 1196 l 1
 932 1284 l 1
 1064 1253 1198 1121 1198 954 c 0
 1198 693 964 596 925 365 c 2
 908 264 l 17
 1377 948 1185 817 1393 1158 c 16
 1444 1241 1518 1284 1617 1284 c 0
 1749 1284 1835 1232 1835 1083 c 0
 1835 1056 1832 1025 1826 991 c 10
 1651 0 l 1
 1431 0 l 1
 1600 961 l 2
 1601 967 1602 973 1602 978 c 0
 1602 1006 1586 1021 1553 1021 c 0xdf
 1516 1021 1484 998 1466 946 c 0
 1401 767 1078 182 886 0 c 9
 641 0 l 25
 709 383 l 2
 742 571 976 681 976 942 c 0
 976 1011 950 1057 889 1096 c 1
 721 1020 l 1
 578 1096 l 1
 531 1087 506 1066 500 1038 c 1
 748 1038 802 917 802 818 c 0xef
508 677 m 0
 564 677 611 726 611 781 c 0
 611 824 577 853 536 853 c 0xef
 482 853 428 806 428 748 c 0
 428 705 460 677 508 677 c 0
EndSplineSet
Validated: 1
Layer: 2
SplineSet
802 818 m 0,0,1
 802 729 802 729 752.5 652.5 c 128,-1,2
 703 576 703 576 627.5 534 c 128,-1,3
 552 492 552 492 473 492 c 0,4,5
 446 492 446 492 414 499.5 c 128,-1,6
 382 507 382 507 343 528 c 128,-1,7
 304 549 304 549 272.5 581 c 128,-1,8
 241 613 241 613 219.5 667 c 128,-1,9
 198 721 198 721 198 788 c 0,10,11
 198 888 198 888 234 977 c 128,-1,12
 270 1066 270 1066 328.5 1128 c 128,-1,13
 387 1190 387 1190 458 1230.5 c 128,-1,14
 529 1271 529 1271 604 1284 c 1,15,-1
 756 1196 l 1,16,-1
 932 1284 l 1,17,18
 1037 1259 1037 1259 1117.5 1166.5 c 128,-1,19
 1198 1074 1198 1074 1198 954 c 0,20,21
 1198 882 1198 882 1173.5 816.5 c 128,-1,22
 1149 751 1149 751 1112.5 699 c 128,-1,23
 1076 647 1076 647 1038 598 c 128,-1,24
 1000 549 1000 549 968 488.5 c 128,-1,25
 936 428 936 428 925 365 c 2,26,-1
 908 264 l 1,27,28
 1039 455 1039 455 1117 584 c 128,-1,29
 1195 713 1195 713 1223 778.5 c 128,-1,30
 1251 844 1251 844 1266 890.5 c 128,-1,31
 1281 937 1281 937 1309.5 1002.5 c 128,-1,32
 1338 1068 1338 1068 1393 1158 c 0,33,34
 1470 1284 1470 1284 1617 1284 c 0,35,36
 1835 1284 1835 1284 1835 1083 c 0,37,38
 1835 1042 1835 1042 1826 991 c 2,39,-1
 1651 0 l 1,40,-1
 1431 0 l 1,41,-1
 1600 961 l 2,42,43
 1602 973 1602 973 1602 978 c 0,44,45
 1602 1021 1602 1021 1553 1021 c 0,46,47
 1492 1021 1492 1021 1466 946 c 0,48,49
 1432 852 1432 852 1332.5 666 c 128,-1,50
 1233 480 1233 480 1104 282.5 c 128,-1,51
 975 85 975 85 886 0 c 1,52,-1
 641 0 l 1,53,-1
 709 383 l 2,54,55
 718 434 718 434 749 487 c 128,-1,56
 780 540 780 540 817.5 587 c 128,-1,57
 855 634 855 634 891 685.5 c 128,-1,58
 927 737 927 737 951.5 803 c 128,-1,59
 976 869 976 869 976 942 c 0,60,61
 976 994 976 994 955.5 1030.5 c 128,-1,62
 935 1067 935 1067 889 1096 c 1,63,-1
 721 1020 l 1,64,-1
 578 1096 l 1,65,66
 510 1083 510 1083 500 1038 c 1,67,68
 588 1038 588 1038 651 1018 c 128,-1,69
 714 998 714 998 745 964 c 128,-1,70
 776 930 776 930 789 894.5 c 128,-1,71
 802 859 802 859 802 818 c 0,0,1
508 677 m 0,72,73
 550 677 550 677 580.5 708 c 128,-1,74
 611 739 611 739 611 781 c 0,75,76
 611 813 611 813 589 833 c 128,-1,77
 567 853 567 853 536 853 c 0,78,79
 495 853 495 853 461.5 822 c 128,-1,80
 428 791 428 791 428 748 c 0,81,82
 428 716 428 716 450 696.5 c 128,-1,83
 472 677 472 677 508 677 c 0,72,73
EndSplineSet
EndChar

